<?xml version="1.0" encoding="utf-8"?>
<!-- Generator: Adobe Illustrator 27.0.0, SVG Export Plug-In . SVG Version: 6.00 Build 0)  -->
<svg version="1.1" id="Capa_1" xmlns="http://www.w3.org/2000/svg" xmlns:xlink="http://www.w3.org/1999/xlink" x="0px" y="0px"
	 viewBox="0 0 595.28 120" style="enable-background:new 0 0 595.28 120;" xml:space="preserve">
<style type="text/css">
	.st0{fill:#FFFFFF;}
</style>
<g>
	<g>
		<path class="st0" d="M115.86,94.67c-3.31,0-6-2.68-6-6V61.09c0-3.31,2.68-6,6-6s6,2.68,6,6v27.58
			C121.86,91.98,119.18,94.67,115.86,94.67z M99.29,94.67c-3.31,0-6-2.68-6-6V47.2c0-3.31,2.68-6,6-6c3.31,0,6,2.68,6,6v41.47
			C105.29,91.98,102.6,94.67,99.29,94.67z M82.72,94.67c-3.31,0-6-2.68-6-6V69.44c0-3.31,2.68-6,6-6c3.31,0,6,2.68,6,6v19.23
			C88.71,91.98,86.03,94.67,82.72,94.67z M66.14,94.67c-3.31,0-6-2.68-6-6V54.7c0-3.31,2.68-6,6-6c3.31,0,6,2.68,6,6v33.97
			C72.14,91.98,69.46,94.67,66.14,94.67z M49.57,94.67c-3.31,0-6-2.68-6-6v-58.9c0-3.31,2.68-6,6-6c3.31,0,6,2.68,6,6v58.9
			C55.57,91.98,52.88,94.67,49.57,94.67z M33,94.67c-3.31,0-6-2.68-6-6V38.98c0-3.31,2.68-6,6-6c3.31,0,6,2.68,6,6v49.69
			C39,91.98,36.31,94.67,33,94.67z"/>
	</g>
	<path class="st0" d="M465.9,50.69c2.55,1.52,4.39,3.72,5.53,6.61l6.36-2.11c-1.66-4.05-4.26-7.11-7.8-9.17
		c-3.54-2.06-7.94-3.09-13.21-3.09c-7.54,0-13.45,2.24-17.71,6.71c-4.26,4.47-6.39,10.66-6.39,18.55c0,5.27,0.95,9.83,2.86,13.69
		c1.91,3.85,4.68,6.82,8.33,8.89c3.64,2.07,7.96,3.11,12.95,3.11c4.87,0,9.15-1.11,12.84-3.34c3.69-2.23,6.55-5.47,8.59-9.73
		l-5.48-2.74c-3.49,6.86-8.7,10.29-15.64,10.29c-5.41,0-9.71-1.84-12.88-5.53c-3.18-3.69-4.76-8.57-4.76-14.63
		c0-6.14,1.52-10.97,4.57-14.49c3.05-3.52,7.31-5.29,12.79-5.29C460.34,48.41,463.36,49.17,465.9,50.69L465.9,50.69z M530.29,93.17
		L510.4,43.66h-7.62l-20.2,49.51h6.96l5.69-14.48h22.56l5.65,14.48H530.29L530.29,93.17z M507.45,51.64
		c0.66,2.04,1.31,3.87,1.97,5.48l6.36,16.34h-18.52l6.33-16.27c1.15-3.04,2.01-5.54,2.6-7.48l0.32-0.98L507.45,51.64L507.45,51.64z
		 M568.83,49.15v-5.48h-40.69v5.48h17v44.02h6.68V49.15H568.83L568.83,49.15z"/>
	<path class="st0" d="M195.35,68.78c-0.91-2.01-2.21-3.8-3.87-5.33c-1.64-1.51-3.89-2.9-6.68-4.13c-2.75-1.21-7.28-2.54-13.45-3.95
		c-6.4-1.42-10.63-2.55-12.6-3.35c-1.86-0.76-3.28-1.67-4.2-2.72c-0.87-0.99-1.3-2.23-1.3-3.79c0-2.57,1.06-4.43,3.24-5.69
		c2.33-1.35,6.06-2.03,11.09-2.03c4.53,0,8.18,0.72,10.83,2.14c2.57,1.37,4.1,3.27,4.68,5.81l0.2,0.87l12.43-1.4l-0.24-1.09
		c-1.26-5.7-4.32-9.9-9.1-12.49c-4.66-2.53-10.98-3.81-18.8-3.81c-8.83,0-15.69,1.58-20.36,4.71c-4.8,3.21-7.24,7.93-7.24,14.04
		c0,3.33,0.87,6.19,2.58,8.5c1.67,2.26,4,4.2,6.93,5.76c2.92,1.56,7.64,3.09,14.44,4.69l8.31,1.99c4.04,0.98,6.98,2.21,8.74,3.66
		c1.66,1.38,2.47,3.12,2.47,5.32c0,2.93-1.18,5.06-3.61,6.52c-2.56,1.54-6.73,2.32-12.4,2.32c-5.31,0-9.49-0.76-12.43-2.26
		c-2.86-1.46-4.7-3.71-5.61-6.86l-0.25-0.86l-12.19,2.16l0.27,1.05c1.48,5.76,4.73,10.05,9.66,12.78
		c4.83,2.67,11.74,4.02,20.55,4.02c9.09,0,16.28-1.69,21.38-5.02c5.24-3.42,7.89-8.35,7.89-14.66
		C196.73,73.11,196.27,70.79,195.35,68.78L195.35,68.78z"/>
	<path class="st0" d="M324.49,27.64c-5.33,0-9.88,0.95-13.5,2.84c-2.97,1.54-5.68,3.98-8.06,7.28c-0.05-1.59-0.1-2.73-0.14-3.46
		c-0.06-1.11-0.12-2.09-0.16-2.95c-0.06-1.21-0.11-1.56-0.15-1.74l-0.17-0.79h-12.93l0.18,1.15c0.25,1.58,0.37,6.08,0.37,13.37
		v50.83h13.59V56.45c0-5.88,1.54-10.52,4.56-13.78c3.01-3.25,7.21-4.89,12.47-4.89c3.64,0,6.41,0.48,8.24,1.41
		c1.77,0.91,3.03,2.37,3.84,4.45c0.85,2.18,1.28,5.32,1.28,9.36v41.17h13.66V50.95c0-8.21-1.89-14.21-5.62-17.84
		C338.25,29.48,332.37,27.64,324.49,27.64z"/>
	<path class="st0" d="M419.92,68.78c-0.91-2.01-2.21-3.8-3.87-5.33c-1.64-1.51-3.89-2.9-6.68-4.13c-2.75-1.21-7.28-2.54-13.45-3.95
		c-6.4-1.42-10.64-2.55-12.6-3.35c-1.86-0.76-3.28-1.67-4.2-2.72c-0.87-0.99-1.3-2.23-1.3-3.79c0-2.57,1.06-4.43,3.24-5.69
		c2.33-1.35,6.06-2.03,11.09-2.03c4.53,0,8.18,0.72,10.83,2.14c2.57,1.37,4.1,3.27,4.68,5.81l0.2,0.87l12.43-1.4l-0.24-1.09
		c-1.26-5.7-4.32-9.9-9.1-12.49c-4.66-2.53-10.98-3.81-18.8-3.81c-8.84,0-15.69,1.58-20.36,4.71c-4.8,3.21-7.24,7.93-7.24,14.04
		c0,3.33,0.87,6.19,2.58,8.5c1.67,2.26,4,4.2,6.94,5.76c2.92,1.56,7.64,3.09,14.44,4.69l8.31,1.99c4.04,0.98,6.98,2.21,8.75,3.66
		c1.66,1.38,2.47,3.12,2.47,5.32c0,2.93-1.18,5.06-3.61,6.52c-2.56,1.54-6.73,2.32-12.4,2.32c-5.31,0-9.49-0.76-12.43-2.26
		c-2.86-1.46-4.7-3.71-5.62-6.86l-0.25-0.86l-12.19,2.16l0.27,1.04c1.48,5.76,4.73,10.05,9.66,12.78
		c4.83,2.67,11.74,4.02,20.55,4.02c9.09,0,16.28-1.69,21.38-5.02c5.24-3.42,7.89-8.35,7.89-14.66
		C421.3,73.11,420.84,70.79,419.92,68.78z"/>
	<path class="st0" d="M241.23,27.64c-21.39,0-32.24,11.37-32.24,33.79c0,10.87,2.71,19.32,8.06,25.13
		c5.37,5.83,13.37,8.78,23.8,8.78c10.45,0,18.55-2.84,24.09-8.44c5.53-5.59,8.34-14.16,8.34-25.47c0-11.42-2.63-19.99-7.81-25.49
		C260.28,30.43,252.12,27.64,241.23,27.64z M259.11,61.43c0,8.37-1.44,14.57-4.28,18.44c-2.77,3.77-7.52,5.68-14.11,5.68
		c-6.11,0-10.45-1.92-13.26-5.87c-2.85-4-4.29-10.14-4.29-18.25c0-8.33,1.46-14.5,4.34-18.34c2.81-3.76,7.5-5.66,13.92-5.66
		c6.37,0,10.94,1.86,13.59,5.53C257.73,46.73,259.11,52.94,259.11,61.43z"/>
</g>
</svg>
