<svg width="31" height="31" viewBox="0 0 31 31" fill="none" xmlns="http://www.w3.org/2000/svg">
<mask id="mask0_78_2491" style="mask-type:alpha" maskUnits="userSpaceOnUse" x="0" y="0" width="31" height="31">
<rect x="0.904297" y="0.5" width="30" height="30" fill="#E86338"/>
</mask>
<g mask="url(#mask0_78_2491)">
<path d="M15.9043 25.5C15.2168 25.5 14.6283 25.2552 14.1387 24.7656C13.6491 24.276 13.4043 23.6875 13.4043 23C13.4043 22.3125 13.6491 21.724 14.1387 21.2344C14.6283 20.7448 15.2168 20.5 15.9043 20.5C16.5918 20.5 17.1803 20.7448 17.6699 21.2344C18.1595 21.724 18.4043 22.3125 18.4043 23C18.4043 23.6875 18.1595 24.276 17.6699 24.7656C17.1803 25.2552 16.5918 25.5 15.9043 25.5ZM15.9043 18C15.2168 18 14.6283 17.7552 14.1387 17.2656C13.6491 16.776 13.4043 16.1875 13.4043 15.5C13.4043 14.8125 13.6491 14.224 14.1387 13.7344C14.6283 13.2448 15.2168 13 15.9043 13C16.5918 13 17.1803 13.2448 17.6699 13.7344C18.1595 14.224 18.4043 14.8125 18.4043 15.5C18.4043 16.1875 18.1595 16.776 17.6699 17.2656C17.1803 17.7552 16.5918 18 15.9043 18ZM15.9043 10.5C15.2168 10.5 14.6283 10.2552 14.1387 9.76563C13.6491 9.27604 13.4043 8.6875 13.4043 8C13.4043 7.3125 13.6491 6.72396 14.1387 6.23438C14.6283 5.74479 15.2168 5.5 15.9043 5.5C16.5918 5.5 17.1803 5.74479 17.6699 6.23438C18.1595 6.72396 18.4043 7.3125 18.4043 8C18.4043 8.6875 18.1595 9.27604 17.6699 9.76563C17.1803 10.2552 16.5918 10.5 15.9043 10.5Z" fill="#FF5B23"/>
</g>
</svg>
