<svg width="19" height="19" viewBox="0 0 19 19" fill="none" xmlns="http://www.w3.org/2000/svg">
<path d="M7.98084 0.877087C8.9209 0.334344 10.0791 0.334344 11.0192 0.877087L16.2081 3.87291C17.1481 4.41566 17.7272 5.41869 17.7272 6.50417V12.4958C17.7272 13.5813 17.1481 14.5843 16.2081 15.1271L11.0192 18.1229C10.0791 18.6657 8.9209 18.6657 7.98084 18.1229L2.79192 15.1271C1.85186 14.5843 1.27276 13.5813 1.27276 12.4958V6.50417C1.27276 5.41869 1.85186 4.41566 2.79192 3.87291L7.98084 0.877087Z" fill="#A0DF87" fill-opacity="0.5"/>
<path d="M8.29062 1.41365C9.03899 0.981578 9.96101 0.981578 10.7094 1.41365L15.8983 4.40947C16.6467 4.84154 17.1077 5.64004 17.1077 6.50417V12.4958C17.1077 13.36 16.6467 14.1585 15.8983 14.5905L10.7094 17.5864C9.96101 18.0184 9.03899 18.0184 8.29062 17.5864L3.1017 14.5905C2.35334 14.1585 1.89232 13.36 1.89232 12.4958V6.50417C1.89232 5.64004 2.35334 4.84154 3.1017 4.40947L8.29062 1.41365Z" stroke="#A0DF87" stroke-opacity="0.5" stroke-width="1.23913"/>
</svg>
