<svg width="27" height="22" viewBox="0 0 27 22" fill="none" xmlns="http://www.w3.org/2000/svg">
<path d="M6 18.0312C6 19.5404 4.88268 20.7675 3.5 20.7675C2.11732 20.7675 1 19.5404 1 18.0312C1 16.5219 2.11732 15.3024 3.5 15.3024C4.88268 15.3024 6 16.5219 6 18.0312Z" stroke="currentColor" stroke-width="1.5" stroke-linecap="round" stroke-linejoin="round"/>
<path d="M26 2.72878C26 4.23799 24.8827 5.46515 23.5 5.46515C22.1173 5.46515 21 4.23799 21 2.72878C21 1.21957 22.1173 0 23.5 0C24.8827 0 26 1.21957 26 2.72878Z" stroke="currentColor" stroke-width="1.5" stroke-linecap="round" stroke-linejoin="round"/>
<path d="M5 15L10.5482 6.46433C10.9695 5.81622 11.9354 5.87072 12.2811 6.56211L14.7616 11.5232C15.0976 12.1952 16.0268 12.2705 16.4667 11.6615L22 4" stroke="currentColor" stroke-width="2" stroke-linejoin="round"/>
</svg>
