<svg width="29" height="26" viewBox="0 0 29 26" fill="none" xmlns="http://www.w3.org/2000/svg">
<g clip-path="url(#clip0_199_176)">
<path d="M0.884766 14.0655C0.884766 11.7051 0.885498 9.97631 1.03575 8.63314C1.18489 7.2999 1.47614 6.40811 2.0157 5.69732C2.32106 5.29506 2.67982 4.93629 3.08209 4.63093C3.79288 4.09137 4.68466 3.80013 6.01791 3.65099C7.36108 3.50073 9.08987 3.5 11.4503 3.5H15.5288C16.9469 3.5 17.9854 3.50027 18.8092 3.55648C19.6285 3.61238 20.1989 3.72194 20.6844 3.92305C22.0462 4.48711 23.1281 5.56904 23.6922 6.93081C23.8933 7.41633 24.0028 7.98668 24.0587 8.806C24.1149 9.62981 24.1152 10.6683 24.1152 12.0864C24.1152 13.5045 24.1149 14.543 24.0587 15.3668C24.0028 16.1862 23.8933 16.7565 23.6922 17.242C23.1281 18.6038 22.0462 19.6857 20.6844 20.2498C20.1989 20.4509 19.6285 20.5605 18.8092 20.6164C17.9854 20.6726 16.9469 20.6728 15.5288 20.6728H10.2271C7.72615 20.6728 5.45597 22.1346 4.42105 24.4115C3.59727 26.2238 0.884766 25.6362 0.884766 23.6455V14.0655Z" stroke="currentColor"/>
<circle cx="7.76404" cy="12.8021" r="1.32166" fill="#D3D3D3"/>
<circle cx="12.2245" cy="12.8024" r="1.32166" fill="#D3D3D3"/>
<circle cx="16.6854" cy="12.8024" r="1.32166" fill="#D3D3D3"/>
</g>
<defs>
<clipPath id="clip0_199_176">
<rect width="28.2305" height="25.9998" fill="white" transform="translate(0.384766)"/>
</clipPath>
</defs>
</svg>
