<svg width="364" height="185" viewBox="0 0 364 185" fill="none" xmlns="http://www.w3.org/2000/svg">
<rect width="364" height="170" rx="10" fill="#F3F6F5"/>
<path d="M243.5 67.5L363 34.5V160C363 164.971 358.971 169 354 169H10C5.02945 169 1 164.971 1 160V140L73.5 103H92L141.974 67.5H243.5Z" fill="#FF5B23"/>
<path d="M5.57558 32.0831C5.16808 32.0831 4.80805 32.0109 4.4955 31.8665C4.18493 31.7201 3.9426 31.5193 3.76852 31.2641C3.59444 31.007 3.50839 30.7142 3.51037 30.3858C3.50839 30.1286 3.55883 29.8913 3.6617 29.6737C3.76456 29.4541 3.90501 29.2711 4.08305 29.1247C4.26306 28.9764 4.46385 28.8824 4.6854 28.8428V28.8072C4.39461 28.7321 4.16317 28.5689 3.99107 28.3176C3.81896 28.0644 3.7339 27.7766 3.73588 27.4542C3.7339 27.1456 3.81204 26.8696 3.97029 26.6263C4.12855 26.383 4.34615 26.1911 4.62309 26.0506C4.90202 25.9102 5.21951 25.84 5.57558 25.84C5.9277 25.84 6.24223 25.9102 6.51917 26.0506C6.79612 26.1911 7.01372 26.383 7.17197 26.6263C7.3322 26.8696 7.41331 27.1456 7.41529 27.4542C7.41331 27.7766 7.32528 28.0644 7.1512 28.3176C6.9791 28.5689 6.75062 28.7321 6.46576 28.8072V28.8428C6.68534 28.8824 6.88316 28.9764 7.05921 29.1247C7.23527 29.2711 7.37572 29.4541 7.48057 29.6737C7.58541 29.8913 7.63882 30.1286 7.6408 30.3858C7.63882 30.7142 7.5498 31.007 7.37374 31.2641C7.19967 31.5193 6.95734 31.7201 6.64677 31.8665C6.33817 32.0109 5.98111 32.0831 5.57558 32.0831ZM5.57558 31.4303C5.85055 31.4303 6.08793 31.3858 6.28773 31.2968C6.48752 31.2077 6.64182 31.0821 6.75062 30.9199C6.85942 30.7577 6.91481 30.5678 6.91679 30.3502C6.91481 30.1207 6.85546 29.918 6.73875 29.7419C6.62204 29.5659 6.4628 29.4274 6.26102 29.3265C6.06123 29.2256 5.83275 29.1752 5.57558 29.1752C5.31644 29.1752 5.085 29.2256 4.88124 29.3265C4.67947 29.4274 4.52023 29.5659 4.40351 29.7419C4.28878 29.918 4.2324 30.1207 4.23438 30.3502C4.2324 30.5678 4.28482 30.7577 4.39165 30.9199C4.50045 31.0821 4.65573 31.2077 4.85751 31.2968C5.05928 31.3858 5.29864 31.4303 5.57558 31.4303ZM5.57558 28.5461C5.79318 28.5461 5.98605 28.5026 6.1542 28.4155C6.32432 28.3285 6.45785 28.2068 6.55478 28.0506C6.65171 27.8943 6.70117 27.7113 6.70314 27.5016C6.70117 27.2959 6.6527 27.1169 6.55775 26.9646C6.46279 26.8103 6.33125 26.6916 6.1631 26.6085C5.99496 26.5234 5.79912 26.4809 5.57558 26.4809C5.34809 26.4809 5.14929 26.5234 4.97916 26.6085C4.80904 26.6916 4.67749 26.8103 4.58452 26.9646C4.49154 27.1169 4.44605 27.2959 4.44802 27.5016C4.44605 27.7113 4.49253 27.8943 4.58749 28.0506C4.68442 28.2068 4.81794 28.3285 4.98807 28.4155C5.15819 28.5026 5.35403 28.5461 5.57558 28.5461ZM10.593 32.0831C10.1459 32.0831 9.76515 31.9614 9.45062 31.7181C9.13609 31.4728 8.89574 31.1177 8.72958 30.6529C8.56341 30.186 8.48033 29.6222 8.48033 28.9615C8.48033 28.3048 8.56341 27.744 8.72958 27.2791C8.89772 26.8122 9.13906 26.4562 9.45359 26.2109C9.7701 25.9636 10.1499 25.84 10.593 25.84C11.0361 25.84 11.4149 25.9636 11.7295 26.2109C12.046 26.4562 12.2873 26.8122 12.4535 27.2791C12.6216 27.744 12.7057 28.3048 12.7057 28.9615C12.7057 29.6222 12.6226 30.186 12.4565 30.6529C12.2903 31.1177 12.0499 31.4728 11.7354 31.7181C11.4209 31.9614 11.0401 32.0831 10.593 32.0831ZM10.593 31.4303C11.0361 31.4303 11.3803 31.2166 11.6256 30.7894C11.8709 30.3621 11.9936 29.7528 11.9936 28.9615C11.9936 28.4353 11.9372 27.9873 11.8244 27.6174C11.7137 27.2474 11.5534 26.9655 11.3437 26.7717C11.136 26.5778 10.8858 26.4809 10.593 26.4809C10.1539 26.4809 9.81065 26.6975 9.56338 27.1307C9.3161 27.562 9.19247 28.1722 9.19247 28.9615C9.19247 29.4877 9.24786 29.9348 9.35864 30.3027C9.46941 30.6707 9.62866 30.9506 9.83636 31.1425C10.0461 31.3343 10.2983 31.4303 10.593 31.4303ZM13.773 32V25.923H14.5089V28.9378H14.5801L17.3099 25.923H18.2713L15.7195 28.6648L18.2713 32H17.3812L15.2685 29.1752L14.5089 30.0297V32H13.773ZM20.4669 33.8041C20.1286 33.8041 19.8378 33.7606 19.5945 33.6735C19.3512 33.5885 19.1485 33.4757 18.9862 33.3353C18.826 33.1968 18.6984 33.0484 18.6035 32.8902L19.1613 32.4985C19.2246 32.5816 19.3047 32.6765 19.4017 32.7834C19.4986 32.8922 19.6311 32.9861 19.7993 33.0652C19.9694 33.1464 20.1919 33.1869 20.4669 33.1869C20.8348 33.1869 21.1385 33.0979 21.3779 32.9199C21.6172 32.7418 21.7369 32.4629 21.7369 32.0831V31.1573H21.6775C21.6261 31.2404 21.5529 31.3432 21.458 31.4659C21.365 31.5866 21.2305 31.6944 21.0544 31.7893C20.8803 31.8823 20.6449 31.9288 20.3482 31.9288C19.9803 31.9288 19.6499 31.8417 19.3572 31.6677C19.0664 31.4936 18.8359 31.2404 18.6658 30.908C18.4976 30.5757 18.4136 30.1722 18.4136 29.6974C18.4136 29.2306 18.4957 28.824 18.6598 28.4779C18.824 28.1297 19.0525 27.8607 19.3453 27.6708C19.6381 27.4789 19.9763 27.3829 20.3601 27.3829C20.6568 27.3829 20.8922 27.4324 21.0663 27.5313C21.2424 27.6282 21.3769 27.739 21.4698 27.8636C21.5648 27.9863 21.638 28.0872 21.6894 28.1663H21.7606V27.4423H22.4372V32.1306C22.4372 32.5222 22.3482 32.8407 22.1701 33.086C21.9941 33.3333 21.7567 33.5143 21.458 33.629C21.1612 33.7457 20.8309 33.8041 20.4669 33.8041ZM20.4432 31.2997C20.7241 31.2997 20.9615 31.2354 21.1553 31.1069C21.3492 30.9783 21.4965 30.7933 21.5974 30.552C21.6983 30.3106 21.7488 30.0218 21.7488 29.6855C21.7488 29.3572 21.6993 29.0674 21.6004 28.8161C21.5015 28.5649 21.3551 28.3681 21.1612 28.2256C20.9674 28.0832 20.728 28.012 20.4432 28.012C20.1464 28.012 19.8992 28.0872 19.7014 28.2375C19.5055 28.3879 19.3581 28.5896 19.2592 28.8428C19.1623 29.096 19.1138 29.3769 19.1138 29.6855C19.1138 30.002 19.1633 30.282 19.2622 30.5253C19.3631 30.7666 19.5114 30.9565 19.7073 31.095C19.9051 31.2315 20.1504 31.2997 20.4432 31.2997Z" fill="#35393E"/>
<path d="M3.48663 96.7537V96.1484L6.15717 91.923H6.59632V92.8607H6.2996L4.28186 96.0535V96.101H7.87818V96.7537H3.48663ZM6.34707 98V96.5698V96.2879V91.923H7.04735V98H6.34707ZM10.8052 98.0831C10.3581 98.0831 9.97731 97.9614 9.66278 97.7181C9.34825 97.4728 9.1079 97.1177 8.94173 96.6529C8.77557 96.186 8.69248 95.6222 8.69248 94.9615C8.69248 94.3048 8.77557 93.744 8.94173 93.2791C9.10988 92.8122 9.35122 92.4562 9.66575 92.2109C9.98225 91.9636 10.3621 91.84 10.8052 91.84C11.2483 91.84 11.6271 91.9636 11.9416 92.2109C12.2581 92.4562 12.4995 92.8122 12.6656 93.2791C12.8338 93.744 12.9179 94.3048 12.9179 94.9615C12.9179 95.6222 12.8348 96.186 12.6686 96.6529C12.5024 97.1177 12.2621 97.4728 11.9476 97.7181C11.633 97.9614 11.2522 98.0831 10.8052 98.0831ZM10.8052 97.4303C11.2483 97.4303 11.5925 97.2166 11.8378 96.7894C12.0831 96.3621 12.2057 95.7528 12.2057 94.9615C12.2057 94.4353 12.1493 93.9873 12.0366 93.6174C11.9258 93.2474 11.7656 92.9655 11.5559 92.7717C11.3482 92.5778 11.0979 92.4809 10.8052 92.4809C10.366 92.4809 10.0228 92.6975 9.77554 93.1307C9.52826 93.562 9.40463 94.1722 9.40463 94.9615C9.40463 95.4877 9.46002 95.9348 9.57079 96.3027C9.68157 96.6707 9.84082 96.9506 10.0485 97.1425C10.2582 97.3343 10.5104 97.4303 10.8052 97.4303ZM13.9851 98V91.923H14.721V94.9378H14.7922L17.5221 91.923H18.4835L15.9317 94.6648L18.4835 98H17.5933L15.4806 95.1752L14.721 96.0297V98H13.9851ZM20.6791 99.8041C20.3408 99.8041 20.05 99.7606 19.8067 99.6735C19.5634 99.5885 19.3606 99.4757 19.1984 99.3353C19.0382 99.1968 18.9106 99.0484 18.8156 98.8902L19.3735 98.4985C19.4368 98.5816 19.5169 98.6765 19.6138 98.7834C19.7107 98.8922 19.8433 98.9861 20.0114 99.0652C20.1816 99.1464 20.4041 99.1869 20.6791 99.1869C21.047 99.1869 21.3507 99.0979 21.59 98.9199C21.8294 98.7418 21.9491 98.4629 21.9491 98.0831V97.1573H21.8897C21.8383 97.2404 21.7651 97.3432 21.6701 97.4659C21.5772 97.5866 21.4426 97.6944 21.2666 97.7893C21.0925 97.8823 20.8571 97.9288 20.5604 97.9288C20.1924 97.9288 19.8621 97.8417 19.5693 97.6677C19.2785 97.4936 19.0481 97.2404 18.8779 96.908C18.7098 96.5757 18.6257 96.1722 18.6257 95.6974C18.6257 95.2306 18.7078 94.824 18.872 94.4779C19.0362 94.1297 19.2647 93.8607 19.5574 93.6708C19.8502 93.4789 20.1885 93.3829 20.5722 93.3829C20.869 93.3829 21.1044 93.4324 21.2785 93.5313C21.4545 93.6282 21.589 93.739 21.682 93.8636C21.777 93.9863 21.8501 94.0872 21.9016 94.1663H21.9728V93.4423H22.6493V98.1306C22.6493 98.5222 22.5603 98.8407 22.3823 99.086C22.2062 99.3333 21.9688 99.5143 21.6701 99.629C21.3734 99.7457 21.0431 99.8041 20.6791 99.8041ZM20.6553 97.2997C20.9362 97.2997 21.1736 97.2354 21.3675 97.1069C21.5613 96.9783 21.7087 96.7933 21.8096 96.552C21.9105 96.3106 21.9609 96.0218 21.9609 95.6855C21.9609 95.3572 21.9115 95.0674 21.8126 94.8161C21.7137 94.5649 21.5673 94.3681 21.3734 94.2256C21.1795 94.0832 20.9402 94.012 20.6553 94.012C20.3586 94.012 20.1113 94.0872 19.9135 94.2375C19.7177 94.3879 19.5703 94.5896 19.4714 94.8428C19.3745 95.096 19.326 95.3769 19.326 95.6855C19.326 96.002 19.3754 96.282 19.4744 96.5253C19.5752 96.7666 19.7236 96.9565 19.9194 97.095C20.1173 97.2315 20.3626 97.2997 20.6553 97.2997Z" fill="#35393E"/>
<path d="M3.62906 135V134.466L5.63493 132.27C5.87033 132.013 6.06419 131.789 6.21651 131.6C6.36883 131.408 6.48159 131.228 6.55478 131.059C6.62995 130.889 6.66754 130.711 6.66754 130.525C6.66754 130.312 6.6161 130.127 6.51324 129.97C6.41235 129.814 6.27388 129.694 6.09782 129.608C5.92176 129.523 5.72395 129.481 5.50437 129.481C5.27094 129.481 5.06719 129.529 4.89311 129.626C4.72101 129.721 4.58749 129.855 4.49253 130.027C4.39956 130.199 4.35307 130.401 4.35307 130.632H3.6528C3.6528 130.276 3.73489 129.964 3.89908 129.695C4.06327 129.426 4.2868 129.216 4.56968 129.065C4.85454 128.915 5.17401 128.84 5.52811 128.84C5.88418 128.84 6.1997 128.915 6.47466 129.065C6.74963 129.216 6.96525 129.419 7.12153 129.674C7.2778 129.929 7.35594 130.213 7.35594 130.525C7.35594 130.749 7.31539 130.967 7.23428 131.181C7.15516 131.393 7.01668 131.629 6.81887 131.89C6.62303 132.149 6.35103 132.466 6.00287 132.84L4.63793 134.3V134.347H7.46276V135H3.62906ZM10.5033 135.083C10.0562 135.083 9.67539 134.961 9.36086 134.718C9.04633 134.473 8.80598 134.118 8.63982 133.653C8.47365 133.186 8.39057 132.622 8.39057 131.962C8.39057 131.305 8.47365 130.744 8.63982 130.279C8.80796 129.812 9.0493 129.456 9.36383 129.211C9.68034 128.964 10.0601 128.84 10.5033 128.84C10.9464 128.84 11.3252 128.964 11.6397 129.211C11.9562 129.456 12.1976 129.812 12.3637 130.279C12.5319 130.744 12.6159 131.305 12.6159 131.962C12.6159 132.622 12.5329 133.186 12.3667 133.653C12.2005 134.118 11.9602 134.473 11.6457 134.718C11.3311 134.961 10.9503 135.083 10.5033 135.083ZM10.5033 134.43C10.9464 134.43 11.2906 134.217 11.5359 133.789C11.7812 133.362 11.9038 132.753 11.9038 131.962C11.9038 131.435 11.8474 130.987 11.7347 130.617C11.6239 130.247 11.4637 129.966 11.254 129.772C11.0463 129.578 10.796 129.481 10.5033 129.481C10.0641 129.481 9.72089 129.698 9.47362 130.131C9.22634 130.562 9.10271 131.172 9.10271 131.962C9.10271 132.488 9.1581 132.935 9.26888 133.303C9.37965 133.671 9.5389 133.951 9.7466 134.142C9.95629 134.334 10.2085 134.43 10.5033 134.43ZM13.6832 135V128.923H14.4191V131.938H14.4903L17.2202 128.923H18.1816L15.6297 131.665L18.1816 135H17.2914L15.1787 132.175L14.4191 133.03V135H13.6832ZM20.3771 136.804C20.0389 136.804 19.7481 136.761 19.5048 136.674C19.2615 136.588 19.0587 136.476 18.8965 136.335C18.7363 136.197 18.6087 136.048 18.5137 135.89L19.0716 135.499C19.1349 135.582 19.215 135.677 19.3119 135.783C19.4088 135.892 19.5414 135.986 19.7095 136.065C19.8796 136.146 20.1022 136.187 20.3771 136.187C20.7451 136.187 21.0487 136.098 21.2881 135.92C21.5275 135.742 21.6471 135.463 21.6471 135.083V134.157H21.5878C21.5364 134.24 21.4632 134.343 21.3682 134.466C21.2752 134.587 21.1407 134.694 20.9647 134.789C20.7906 134.882 20.5552 134.929 20.2585 134.929C19.8905 134.929 19.5602 134.842 19.2674 134.668C18.9766 134.494 18.7461 134.24 18.576 133.908C18.4079 133.576 18.3238 133.172 18.3238 132.697C18.3238 132.231 18.4059 131.824 18.5701 131.478C18.7343 131.13 18.9628 130.861 19.2555 130.671C19.5483 130.479 19.8866 130.383 20.2703 130.383C20.5671 130.383 20.8025 130.432 20.9765 130.531C21.1526 130.628 21.2871 130.739 21.3801 130.864C21.475 130.986 21.5482 131.087 21.5997 131.166H21.6709V130.442H22.3474V135.131C22.3474 135.522 22.2584 135.841 22.0804 136.086C21.9043 136.333 21.6669 136.514 21.3682 136.629C21.0715 136.746 20.7411 136.804 20.3771 136.804ZM20.3534 134.3C20.6343 134.3 20.8717 134.235 21.0656 134.107C21.2594 133.978 21.4068 133.793 21.5077 133.552C21.6086 133.311 21.659 133.022 21.659 132.686C21.659 132.357 21.6096 132.067 21.5106 131.816C21.4117 131.565 21.2653 131.368 21.0715 131.226C20.8776 131.083 20.6383 131.012 20.3534 131.012C20.0567 131.012 19.8094 131.087 19.6116 131.238C19.4158 131.388 19.2684 131.59 19.1695 131.843C19.0725 132.096 19.0241 132.377 19.0241 132.686C19.0241 133.002 19.0735 133.282 19.1724 133.525C19.2733 133.767 19.4217 133.957 19.6175 134.095C19.8153 134.231 20.0606 134.3 20.3534 134.3Z" fill="#35393E"/>
<path d="M5.6468 65.0831C5.39755 65.0791 5.1483 65.0317 4.89905 64.9407C4.6498 64.8497 4.42231 64.6964 4.21658 64.4807C4.01085 64.2631 3.84567 63.9694 3.72104 63.5995C3.59642 63.2276 3.53411 62.7607 3.53411 62.1989C3.53411 61.6608 3.58455 61.1841 3.68544 60.7687C3.78632 60.3513 3.93271 60.0002 4.12459 59.7153C4.31648 59.4285 4.54792 59.2109 4.81893 59.0625C5.09192 58.9141 5.39953 58.84 5.74175 58.84C6.082 58.84 6.38466 58.9082 6.64973 59.0447C6.91679 59.1792 7.13439 59.3671 7.30253 59.6085C7.47068 59.8498 7.57947 60.1278 7.62893 60.4423H6.90492C6.83766 60.1693 6.7071 59.9428 6.51324 59.7628C6.31938 59.5828 6.06221 59.4928 5.74175 59.4928C5.27094 59.4928 4.90004 59.6975 4.62903 60.107C4.36 60.5165 4.22449 61.0911 4.22251 61.831H4.26999C4.38077 61.6628 4.51231 61.5194 4.66463 61.4007C4.81893 61.28 4.98905 61.1871 5.175 61.1218C5.36095 61.0565 5.55778 61.0239 5.76549 61.0239C6.11365 61.0239 6.43213 61.1109 6.72095 61.285C7.00976 61.4571 7.24121 61.6955 7.41529 62.0001C7.58937 62.3028 7.67641 62.6499 7.67641 63.0416C7.67641 63.4175 7.59233 63.7617 7.42419 64.0742C7.25604 64.3848 7.01965 64.6321 6.71501 64.816C6.41235 64.998 6.05628 65.087 5.6468 65.0831ZM5.6468 64.4303C5.89605 64.4303 6.11958 64.368 6.3174 64.2433C6.51719 64.1187 6.67446 63.9516 6.78919 63.7419C6.90591 63.5322 6.96426 63.2988 6.96426 63.0416C6.96426 62.7904 6.90788 62.5619 6.79513 62.3562C6.68435 62.1485 6.53104 61.9833 6.3352 61.8606C6.14134 61.738 5.91979 61.6767 5.67054 61.6767C5.48261 61.6767 5.30754 61.7143 5.14533 61.7894C4.98312 61.8626 4.84069 61.9635 4.71804 62.0921C4.59738 62.2207 4.50242 62.368 4.43319 62.5342C4.36395 62.6984 4.32933 62.8715 4.32933 63.0535C4.32933 63.2948 4.38571 63.5203 4.49847 63.73C4.6132 63.9397 4.76948 64.1088 4.96729 64.2374C5.16709 64.366 5.39359 64.4303 5.6468 64.4303ZM10.6583 65.0831C10.2112 65.0831 9.83043 64.9614 9.5159 64.7181C9.20137 64.4728 8.96102 64.1177 8.79486 63.6529C8.62869 63.186 8.54561 62.6222 8.54561 61.9615C8.54561 61.3048 8.62869 60.744 8.79486 60.2791C8.963 59.8122 9.20434 59.4562 9.51887 59.2109C9.83538 58.9636 10.2152 58.84 10.6583 58.84C11.1014 58.84 11.4802 58.9636 11.7948 59.2109C12.1113 59.4562 12.3526 59.8122 12.5188 60.2791C12.6869 60.744 12.771 61.3048 12.771 61.9615C12.771 62.6222 12.6879 63.186 12.5217 63.6529C12.3556 64.1177 12.1152 64.4728 11.8007 64.7181C11.4862 64.9614 11.1054 65.0831 10.6583 65.0831ZM10.6583 64.4303C11.1014 64.4303 11.4456 64.2166 11.6909 63.7894C11.9362 63.3621 12.0588 62.7528 12.0588 61.9615C12.0588 61.4353 12.0025 60.9873 11.8897 60.6174C11.7789 60.2474 11.6187 59.9655 11.409 59.7717C11.2013 59.5778 10.9511 59.4809 10.6583 59.4809C10.2191 59.4809 9.87593 59.6975 9.62866 60.1307C9.38138 60.562 9.25775 61.1722 9.25775 61.9615C9.25775 62.4877 9.31314 62.9348 9.42391 63.3027C9.53469 63.6707 9.69394 63.9506 9.90164 64.1425C10.1113 64.3343 10.3635 64.4303 10.6583 64.4303ZM14.3961 63.3383L14.3842 62.4719H14.5267L16.5207 60.4423H17.3871L15.2625 62.5906H15.2032L14.3961 63.3383ZM13.7433 65V58.923H14.4436V65H13.7433ZM16.6393 65L14.859 62.7449L15.3575 62.2582L17.5295 65H16.6393ZM19.7733 66.8041C19.435 66.8041 19.1443 66.7606 18.9009 66.6735C18.6576 66.5885 18.4549 66.4757 18.2926 66.3353C18.1324 66.1968 18.0048 66.0484 17.9099 65.8902L18.4677 65.4985C18.531 65.5816 18.6111 65.6765 18.7081 65.7834C18.805 65.8922 18.9375 65.9861 19.1057 66.0652C19.2758 66.1464 19.4983 66.1869 19.7733 66.1869C20.1413 66.1869 20.4449 66.0979 20.6843 65.9199C20.9236 65.7418 21.0433 65.4629 21.0433 65.0831V64.1573H20.984C20.9325 64.2404 20.8593 64.3432 20.7644 64.4659C20.6714 64.5866 20.5369 64.6944 20.3608 64.7893C20.1867 64.8823 19.9513 64.9288 19.6546 64.9288C19.2867 64.9288 18.9563 64.8417 18.6636 64.6677C18.3728 64.4936 18.1423 64.2404 17.9722 63.908C17.804 63.5757 17.72 63.1722 17.72 62.6974C17.72 62.2306 17.8021 61.824 17.9662 61.4779C18.1304 61.1297 18.3589 60.8607 18.6517 60.6708C18.9445 60.4789 19.2827 60.3829 19.6665 60.3829C19.9632 60.3829 20.1986 60.4324 20.3727 60.5313C20.5488 60.6282 20.6833 60.739 20.7762 60.8636C20.8712 60.9863 20.9444 61.0872 20.9958 61.1663H21.067V60.4423H21.7436V65.1306C21.7436 65.5222 21.6546 65.8407 21.4765 66.086C21.3005 66.3333 21.0631 66.5143 20.7644 66.629C20.4676 66.7457 20.1373 66.8041 19.7733 66.8041ZM19.7496 64.2997C20.0305 64.2997 20.2679 64.2354 20.4617 64.1069C20.6556 63.9783 20.8029 63.7933 20.9038 63.552C21.0047 63.3106 21.0552 63.0218 21.0552 62.6855C21.0552 62.3572 21.0057 62.0674 20.9068 61.8161C20.8079 61.5649 20.6615 61.3681 20.4676 61.2256C20.2738 61.0832 20.0344 61.012 19.7496 61.012C19.4528 61.012 19.2056 61.0872 19.0078 61.2375C18.8119 61.3879 18.6645 61.5896 18.5656 61.8428C18.4687 62.096 18.4202 62.3769 18.4202 62.6855C18.4202 63.002 18.4697 63.282 18.5686 63.5253C18.6695 63.7666 18.8179 63.9565 19.0137 64.095C19.2115 64.2315 19.4568 64.2997 19.7496 64.2997Z" fill="#35393E"/>
<path d="M5.83088 183H3.79779V176.412H5.92096C6.56005 176.412 7.10692 176.544 7.56158 176.807C8.01624 177.069 8.36474 177.445 8.60708 177.937C8.84942 178.426 8.97059 179.011 8.97059 179.693C8.97059 180.379 8.84835 180.97 8.60386 181.466C8.35937 181.959 8.00337 182.338 7.53585 182.604C7.06832 182.868 6.5 183 5.83088 183ZM4.59559 182.292H5.77941C6.32414 182.292 6.77558 182.187 7.13373 181.977C7.49188 181.767 7.75888 181.468 7.93474 181.08C8.1106 180.691 8.19853 180.229 8.19853 179.693C8.19853 179.161 8.11167 178.703 7.93796 178.319C7.76425 177.933 7.50475 177.637 7.15947 177.432C6.81418 177.223 6.38419 177.119 5.86949 177.119H4.59559V182.292ZM10.0247 183V178.059H10.7839V183H10.0247ZM10.0633 177.39L10.8482 175.897H11.7361L10.7324 177.39H10.0633ZM13.4473 183.116C13.1342 183.116 12.85 183.057 12.5948 182.939C12.3396 182.819 12.1369 182.646 11.9868 182.421C11.8367 182.194 11.7616 181.919 11.7616 181.597C11.7616 181.314 11.8174 181.085 11.9289 180.909C12.0404 180.731 12.1895 180.592 12.376 180.491C12.5626 180.39 12.7685 180.315 12.9937 180.266C13.221 180.214 13.4494 180.173 13.6789 180.143C13.9791 180.105 14.2225 180.076 14.4091 180.057C14.5979 180.035 14.7351 180 14.8209 179.95C14.9088 179.901 14.9528 179.815 14.9528 179.693V179.667C14.9528 179.35 14.8659 179.103 14.6922 178.927C14.5207 178.752 14.2601 178.664 13.9105 178.664C13.5481 178.664 13.2639 178.743 13.058 178.902C12.8521 179.06 12.7074 179.23 12.6237 179.41L11.9032 179.153C12.0318 178.852 12.2034 178.619 12.4179 178.451C12.6345 178.282 12.8704 178.164 13.1256 178.097C13.3829 178.029 13.636 177.994 13.8848 177.994C14.0435 177.994 14.2258 178.014 14.4316 178.052C14.6397 178.089 14.8402 178.165 15.0332 178.281C15.2284 178.397 15.3903 178.571 15.519 178.805C15.6476 179.039 15.712 179.352 15.712 179.744V183H14.9528V182.331H14.9142C14.8627 182.438 14.7769 182.553 14.6568 182.675C14.5367 182.797 14.377 182.901 14.1775 182.987C13.9781 183.073 13.7347 183.116 13.4473 183.116ZM13.5631 182.434C13.8633 182.434 14.1164 182.375 14.3223 182.257C14.5303 182.139 14.6869 181.987 14.7919 181.8C14.8992 181.614 14.9528 181.417 14.9528 181.211V180.517C14.9206 180.555 14.8498 180.591 14.7405 180.623C14.6332 180.653 14.5089 180.68 14.3673 180.703C14.2279 180.725 14.0917 180.744 13.9588 180.761C13.8279 180.776 13.7218 180.789 13.6403 180.8C13.443 180.825 13.2585 180.867 13.087 180.925C12.9176 180.981 12.7803 181.066 12.6752 181.179C12.5723 181.291 12.5208 181.443 12.5208 181.636C12.5208 181.9 12.6184 182.099 12.8135 182.234C13.0108 182.367 13.2607 182.434 13.5631 182.434ZM21.5864 176.412V183H20.7886V177.248H20.75L19.1416 178.316V177.506L20.7886 176.412H21.5864Z" fill="#35393E"/>
<path d="M164.831 183H162.798V176.412H164.921C165.56 176.412 166.107 176.544 166.562 176.807C167.016 177.069 167.365 177.445 167.607 177.937C167.849 178.426 167.971 179.011 167.971 179.693C167.971 180.379 167.848 180.97 167.604 181.466C167.359 181.959 167.003 182.338 166.536 182.604C166.068 182.868 165.5 183 164.831 183ZM163.596 182.292H164.779C165.324 182.292 165.776 182.187 166.134 181.977C166.492 181.767 166.759 181.468 166.935 181.08C167.111 180.691 167.199 180.229 167.199 179.693C167.199 179.161 167.112 178.703 166.938 178.319C166.764 177.933 166.505 177.637 166.159 177.432C165.814 177.223 165.384 177.119 164.869 177.119H163.596V182.292ZM169.025 183V178.059H169.784V183H169.025ZM169.063 177.39L169.848 175.897H170.736L169.732 177.39H169.063ZM172.447 183.116C172.134 183.116 171.85 183.057 171.595 182.939C171.34 182.819 171.137 182.646 170.987 182.421C170.837 182.194 170.762 181.919 170.762 181.597C170.762 181.314 170.817 181.085 170.929 180.909C171.04 180.731 171.189 180.592 171.376 180.491C171.563 180.39 171.769 180.315 171.994 180.266C172.221 180.214 172.449 180.173 172.679 180.143C172.979 180.105 173.223 180.076 173.409 180.057C173.598 180.035 173.735 180 173.821 179.95C173.909 179.901 173.953 179.815 173.953 179.693V179.667C173.953 179.35 173.866 179.103 173.692 178.927C173.521 178.752 173.26 178.664 172.911 178.664C172.548 178.664 172.264 178.743 172.058 178.902C171.852 179.06 171.707 179.23 171.624 179.41L170.903 179.153C171.032 178.852 171.203 178.619 171.418 178.451C171.634 178.282 171.87 178.164 172.126 178.097C172.383 178.029 172.636 177.994 172.885 177.994C173.043 177.994 173.226 178.014 173.432 178.052C173.64 178.089 173.84 178.165 174.033 178.281C174.228 178.397 174.39 178.571 174.519 178.805C174.648 179.039 174.712 179.352 174.712 179.744V183H173.953V182.331H173.914C173.863 182.438 173.777 182.553 173.657 182.675C173.537 182.797 173.377 182.901 173.178 182.987C172.978 183.073 172.735 183.116 172.447 183.116ZM172.563 182.434C172.863 182.434 173.116 182.375 173.322 182.257C173.53 182.139 173.687 181.987 173.792 181.8C173.899 181.614 173.953 181.417 173.953 181.211V180.517C173.921 180.555 173.85 180.591 173.74 180.623C173.633 180.653 173.509 180.68 173.367 180.703C173.228 180.725 173.092 180.744 172.959 180.761C172.828 180.776 172.722 180.789 172.64 180.8C172.443 180.825 172.259 180.867 172.087 180.925C171.918 180.981 171.78 181.066 171.675 181.179C171.572 181.291 171.521 181.443 171.521 181.636C171.521 181.9 171.618 182.099 171.814 182.234C172.011 182.367 172.261 182.434 172.563 182.434ZM180.586 176.412V183H179.789V177.248H179.75L178.142 178.316V177.506L179.789 176.412H180.586ZM184.359 183.09C183.981 183.09 183.641 183.015 183.339 182.865C183.037 182.715 182.794 182.509 182.612 182.247C182.43 181.986 182.33 181.688 182.313 181.353H183.085C183.115 181.651 183.25 181.898 183.49 182.093C183.733 182.286 184.022 182.382 184.359 182.382C184.629 182.382 184.869 182.319 185.079 182.193C185.292 182.066 185.458 181.892 185.578 181.671C185.7 181.448 185.761 181.196 185.761 180.915C185.761 180.628 185.698 180.372 185.572 180.147C185.447 179.919 185.276 179.74 185.057 179.609C184.838 179.479 184.588 179.412 184.307 179.41C184.106 179.408 183.899 179.439 183.686 179.503C183.474 179.565 183.299 179.646 183.162 179.744L182.416 179.654L182.815 176.412H186.237V177.119H183.484L183.252 179.063H183.291C183.426 178.955 183.595 178.866 183.799 178.795C184.003 178.725 184.215 178.689 184.436 178.689C184.839 178.689 185.198 178.786 185.514 178.979C185.831 179.17 186.08 179.431 186.26 179.764C186.442 180.096 186.533 180.476 186.533 180.903C186.533 181.323 186.439 181.698 186.25 182.028C186.064 182.357 185.806 182.616 185.478 182.807C185.15 182.996 184.777 183.09 184.359 183.09Z" fill="#35393E"/>
<path d="M337.831 183H335.798V176.412H337.921C338.56 176.412 339.107 176.544 339.562 176.807C340.016 177.069 340.365 177.445 340.607 177.937C340.849 178.426 340.971 179.011 340.971 179.693C340.971 180.379 340.848 180.97 340.604 181.466C340.359 181.959 340.003 182.338 339.536 182.604C339.068 182.868 338.5 183 337.831 183ZM336.596 182.292H337.779C338.324 182.292 338.776 182.187 339.134 181.977C339.492 181.767 339.759 181.468 339.935 181.08C340.111 180.691 340.199 180.229 340.199 179.693C340.199 179.161 340.112 178.703 339.938 178.319C339.764 177.933 339.505 177.637 339.159 177.432C338.814 177.223 338.384 177.119 337.869 177.119H336.596V182.292ZM342.025 183V178.059H342.784V183H342.025ZM342.063 177.39L342.848 175.897H343.736L342.732 177.39H342.063ZM345.447 183.116C345.134 183.116 344.85 183.057 344.595 182.939C344.34 182.819 344.137 182.646 343.987 182.421C343.837 182.194 343.762 181.919 343.762 181.597C343.762 181.314 343.817 181.085 343.929 180.909C344.04 180.731 344.189 180.592 344.376 180.491C344.563 180.39 344.769 180.315 344.994 180.266C345.221 180.214 345.449 180.173 345.679 180.143C345.979 180.105 346.223 180.076 346.409 180.057C346.598 180.035 346.735 180 346.821 179.95C346.909 179.901 346.953 179.815 346.953 179.693V179.667C346.953 179.35 346.866 179.103 346.692 178.927C346.521 178.752 346.26 178.664 345.911 178.664C345.548 178.664 345.264 178.743 345.058 178.902C344.852 179.06 344.707 179.23 344.624 179.41L343.903 179.153C344.032 178.852 344.203 178.619 344.418 178.451C344.634 178.282 344.87 178.164 345.126 178.097C345.383 178.029 345.636 177.994 345.885 177.994C346.043 177.994 346.226 178.014 346.432 178.052C346.64 178.089 346.84 178.165 347.033 178.281C347.228 178.397 347.39 178.571 347.519 178.805C347.648 179.039 347.712 179.352 347.712 179.744V183H346.953V182.331H346.914C346.863 182.438 346.777 182.553 346.657 182.675C346.537 182.797 346.377 182.901 346.178 182.987C345.978 183.073 345.735 183.116 345.447 183.116ZM345.563 182.434C345.863 182.434 346.116 182.375 346.322 182.257C346.53 182.139 346.687 181.987 346.792 181.8C346.899 181.614 346.953 181.417 346.953 181.211V180.517C346.921 180.555 346.85 180.591 346.74 180.623C346.633 180.653 346.509 180.68 346.367 180.703C346.228 180.725 346.092 180.744 345.959 180.761C345.828 180.776 345.722 180.789 345.64 180.8C345.443 180.825 345.259 180.867 345.087 180.925C344.918 180.981 344.78 181.066 344.675 181.179C344.572 181.291 344.521 181.443 344.521 181.636C344.521 181.9 344.618 182.099 344.814 182.234C345.011 182.367 345.261 182.434 345.563 182.434ZM353.496 183.09C353.072 183.09 352.693 183.017 352.361 182.871C352.031 182.725 351.768 182.523 351.573 182.263C351.38 182.002 351.275 181.698 351.257 181.353H352.068C352.085 181.565 352.158 181.749 352.287 181.903C352.415 182.055 352.584 182.173 352.792 182.257C353 182.341 353.23 182.382 353.483 182.382C353.767 182.382 354.017 182.333 354.236 182.234C354.455 182.136 354.627 181.998 354.751 181.823C354.875 181.647 354.938 181.443 354.938 181.211C354.938 180.969 354.877 180.756 354.757 180.571C354.637 180.385 354.461 180.239 354.23 180.134C353.998 180.029 353.715 179.976 353.381 179.976H352.853V179.268H353.381C353.642 179.268 353.872 179.221 354.069 179.127C354.268 179.032 354.424 178.9 354.535 178.728C354.649 178.556 354.706 178.355 354.706 178.123C354.706 177.9 354.657 177.706 354.558 177.541C354.459 177.376 354.32 177.247 354.14 177.155C353.962 177.063 353.752 177.017 353.509 177.017C353.282 177.017 353.067 177.058 352.866 177.142C352.666 177.223 352.503 177.343 352.377 177.499C352.25 177.653 352.182 177.84 352.171 178.059H351.399C351.412 177.714 351.516 177.411 351.711 177.152C351.906 176.89 352.161 176.686 352.477 176.54C352.794 176.395 353.142 176.322 353.522 176.322C353.93 176.322 354.279 176.404 354.571 176.569C354.862 176.732 355.087 176.948 355.243 177.216C355.4 177.484 355.478 177.774 355.478 178.085C355.478 178.456 355.38 178.772 355.185 179.034C354.992 179.295 354.729 179.476 354.397 179.577V179.629C354.813 179.697 355.138 179.874 355.372 180.159C355.606 180.443 355.722 180.793 355.722 181.211C355.722 181.57 355.625 181.891 355.43 182.176C355.237 182.46 354.973 182.683 354.638 182.846C354.304 183.009 353.923 183.09 353.496 183.09ZM359.006 183.09C358.521 183.09 358.108 182.958 357.767 182.694C357.426 182.428 357.166 182.044 356.986 181.54C356.806 181.033 356.715 180.422 356.715 179.706C356.715 178.994 356.806 178.386 356.986 177.882C357.168 177.376 357.43 176.99 357.771 176.724C358.114 176.456 358.525 176.322 359.006 176.322C359.486 176.322 359.897 176.456 360.238 176.724C360.581 176.99 360.843 177.376 361.023 177.882C361.205 178.386 361.296 178.994 361.296 179.706C361.296 180.422 361.206 181.033 361.026 181.54C360.846 182.044 360.585 182.428 360.244 182.694C359.903 182.958 359.491 183.09 359.006 183.09ZM359.006 182.382C359.486 182.382 359.859 182.151 360.125 181.688C360.391 181.224 360.524 180.564 360.524 179.706C360.524 179.135 360.463 178.65 360.341 178.249C360.221 177.848 360.047 177.542 359.82 177.332C359.595 177.122 359.323 177.017 359.006 177.017C358.53 177.017 358.158 177.251 357.89 177.721C357.622 178.189 357.487 178.85 357.487 179.706C357.487 180.276 357.548 180.761 357.668 181.16C357.788 181.559 357.96 181.862 358.186 182.07C358.413 182.278 358.686 182.382 359.006 182.382Z" fill="#35393E"/>
</svg>
