<svg width="364" height="185" viewBox="0 0 364 185" fill="none" xmlns="http://www.w3.org/2000/svg">
<path d="M5.83088 183H3.79779V176.412H5.92096C6.56005 176.412 7.10692 176.544 7.56158 176.807C8.01624 177.069 8.36474 177.445 8.60708 177.937C8.84942 178.426 8.97059 179.011 8.97059 179.693C8.97059 180.379 8.84835 180.97 8.60386 181.466C8.35937 181.959 8.00337 182.338 7.53585 182.604C7.06832 182.868 6.5 183 5.83088 183ZM4.59559 182.292H5.77941C6.32414 182.292 6.77558 182.187 7.13373 181.977C7.49188 181.767 7.75888 181.468 7.93474 181.08C8.1106 180.691 8.19853 180.229 8.19853 179.693C8.19853 179.161 8.11167 178.703 7.93796 178.319C7.76425 177.933 7.50475 177.637 7.15947 177.432C6.81418 177.223 6.38419 177.119 5.86949 177.119H4.59559V182.292ZM10.0247 183V178.059H10.7839V183H10.0247ZM10.0633 177.39L10.8482 175.897H11.7361L10.7324 177.39H10.0633ZM13.4473 183.116C13.1342 183.116 12.85 183.057 12.5948 182.939C12.3396 182.819 12.1369 182.646 11.9868 182.421C11.8367 182.194 11.7616 181.919 11.7616 181.597C11.7616 181.314 11.8174 181.085 11.9289 180.909C12.0404 180.731 12.1895 180.592 12.376 180.491C12.5626 180.39 12.7685 180.315 12.9937 180.266C13.221 180.214 13.4494 180.173 13.6789 180.143C13.9791 180.105 14.2225 180.076 14.4091 180.057C14.5979 180.035 14.7351 180 14.8209 179.95C14.9088 179.901 14.9528 179.815 14.9528 179.693V179.667C14.9528 179.35 14.8659 179.103 14.6922 178.927C14.5207 178.752 14.2601 178.664 13.9105 178.664C13.5481 178.664 13.2639 178.743 13.058 178.902C12.8521 179.06 12.7074 179.23 12.6237 179.41L11.9032 179.153C12.0318 178.852 12.2034 178.619 12.4179 178.451C12.6345 178.282 12.8704 178.164 13.1256 178.097C13.3829 178.029 13.636 177.994 13.8848 177.994C14.0435 177.994 14.2258 178.014 14.4316 178.052C14.6397 178.089 14.8402 178.165 15.0332 178.281C15.2284 178.397 15.3903 178.571 15.519 178.805C15.6476 179.039 15.712 179.352 15.712 179.744V183H14.9528V182.331H14.9142C14.8627 182.438 14.7769 182.553 14.6568 182.675C14.5367 182.797 14.377 182.901 14.1775 182.987C13.9781 183.073 13.7347 183.116 13.4473 183.116ZM13.5631 182.434C13.8633 182.434 14.1164 182.375 14.3223 182.257C14.5303 182.139 14.6869 181.987 14.7919 181.8C14.8992 181.614 14.9528 181.417 14.9528 181.211V180.517C14.9206 180.555 14.8498 180.591 14.7405 180.623C14.6332 180.653 14.5089 180.68 14.3673 180.703C14.2279 180.725 14.0917 180.744 13.9588 180.761C13.8279 180.776 13.7218 180.789 13.6403 180.8C13.443 180.825 13.2585 180.867 13.087 180.925C12.9176 180.981 12.7803 181.066 12.6752 181.179C12.5723 181.291 12.5208 181.443 12.5208 181.636C12.5208 181.9 12.6184 182.099 12.8135 182.234C13.0108 182.367 13.2607 182.434 13.5631 182.434ZM21.5864 176.412V183H20.7886V177.248H20.75L19.1416 178.316V177.506L20.7886 176.412H21.5864Z" fill="#35393E"/>
<path d="M164.831 183H162.798V176.412H164.921C165.56 176.412 166.107 176.544 166.562 176.807C167.016 177.069 167.365 177.445 167.607 177.937C167.849 178.426 167.971 179.011 167.971 179.693C167.971 180.379 167.848 180.97 167.604 181.466C167.359 181.959 167.003 182.338 166.536 182.604C166.068 182.868 165.5 183 164.831 183ZM163.596 182.292H164.779C165.324 182.292 165.776 182.187 166.134 181.977C166.492 181.767 166.759 181.468 166.935 181.08C167.111 180.691 167.199 180.229 167.199 179.693C167.199 179.161 167.112 178.703 166.938 178.319C166.764 177.933 166.505 177.637 166.159 177.432C165.814 177.223 165.384 177.119 164.869 177.119H163.596V182.292ZM169.025 183V178.059H169.784V183H169.025ZM169.063 177.39L169.848 175.897H170.736L169.732 177.39H169.063ZM172.447 183.116C172.134 183.116 171.85 183.057 171.595 182.939C171.34 182.819 171.137 182.646 170.987 182.421C170.837 182.194 170.762 181.919 170.762 181.597C170.762 181.314 170.817 181.085 170.929 180.909C171.04 180.731 171.189 180.592 171.376 180.491C171.563 180.39 171.769 180.315 171.994 180.266C172.221 180.214 172.449 180.173 172.679 180.143C172.979 180.105 173.223 180.076 173.409 180.057C173.598 180.035 173.735 180 173.821 179.95C173.909 179.901 173.953 179.815 173.953 179.693V179.667C173.953 179.35 173.866 179.103 173.692 178.927C173.521 178.752 173.26 178.664 172.911 178.664C172.548 178.664 172.264 178.743 172.058 178.902C171.852 179.06 171.707 179.23 171.624 179.41L170.903 179.153C171.032 178.852 171.203 178.619 171.418 178.451C171.634 178.282 171.87 178.164 172.126 178.097C172.383 178.029 172.636 177.994 172.885 177.994C173.043 177.994 173.226 178.014 173.432 178.052C173.64 178.089 173.84 178.165 174.033 178.281C174.228 178.397 174.39 178.571 174.519 178.805C174.648 179.039 174.712 179.352 174.712 179.744V183H173.953V182.331H173.914C173.863 182.438 173.777 182.553 173.657 182.675C173.537 182.797 173.377 182.901 173.178 182.987C172.978 183.073 172.735 183.116 172.447 183.116ZM172.563 182.434C172.863 182.434 173.116 182.375 173.322 182.257C173.53 182.139 173.687 181.987 173.792 181.8C173.899 181.614 173.953 181.417 173.953 181.211V180.517C173.921 180.555 173.85 180.591 173.74 180.623C173.633 180.653 173.509 180.68 173.367 180.703C173.228 180.725 173.092 180.744 172.959 180.761C172.828 180.776 172.722 180.789 172.64 180.8C172.443 180.825 172.259 180.867 172.087 180.925C171.918 180.981 171.78 181.066 171.675 181.179C171.572 181.291 171.521 181.443 171.521 181.636C171.521 181.9 171.618 182.099 171.814 182.234C172.011 182.367 172.261 182.434 172.563 182.434ZM180.586 176.412V183H179.789V177.248H179.75L178.142 178.316V177.506L179.789 176.412H180.586ZM184.359 183.09C183.981 183.09 183.641 183.015 183.339 182.865C183.037 182.715 182.794 182.509 182.612 182.247C182.43 181.986 182.33 181.688 182.313 181.353H183.085C183.115 181.651 183.25 181.898 183.49 182.093C183.733 182.286 184.022 182.382 184.359 182.382C184.629 182.382 184.869 182.319 185.079 182.193C185.292 182.066 185.458 181.892 185.578 181.671C185.7 181.448 185.761 181.196 185.761 180.915C185.761 180.628 185.698 180.372 185.572 180.147C185.447 179.919 185.276 179.74 185.057 179.609C184.838 179.479 184.588 179.412 184.307 179.41C184.106 179.408 183.899 179.439 183.686 179.503C183.474 179.565 183.299 179.646 183.162 179.744L182.416 179.654L182.815 176.412H186.237V177.119H183.484L183.252 179.063H183.291C183.426 178.955 183.595 178.866 183.799 178.795C184.003 178.725 184.215 178.689 184.436 178.689C184.839 178.689 185.198 178.786 185.514 178.979C185.831 179.17 186.08 179.431 186.26 179.764C186.442 180.096 186.533 180.476 186.533 180.903C186.533 181.323 186.439 181.698 186.25 182.028C186.064 182.357 185.806 182.616 185.478 182.807C185.15 182.996 184.777 183.09 184.359 183.09Z" fill="#35393E"/>
<rect width="364" height="170" rx="10" fill="#F3F6F5"/>
<path d="M120.5 67.5L1 34.5V160C1 164.971 5.02944 169 10 169H354C358.971 169 363 164.971 363 160V140L290.5 103H272L222.026 67.5H120.5Z" fill="#FF5B23"/>
<rect x="1" y="34" width="363" height="1" fill="#262525" fill-opacity="0.08"/>
<path d="M337.831 183H335.798V176.412H337.921C338.56 176.412 339.107 176.544 339.562 176.807C340.016 177.069 340.365 177.445 340.607 177.937C340.849 178.426 340.971 179.011 340.971 179.693C340.971 180.379 340.848 180.97 340.604 181.466C340.359 181.959 340.003 182.338 339.536 182.604C339.068 182.868 338.5 183 337.831 183ZM336.596 182.292H337.779C338.324 182.292 338.776 182.187 339.134 181.977C339.492 181.767 339.759 181.468 339.935 181.08C340.111 180.691 340.199 180.229 340.199 179.693C340.199 179.161 340.112 178.703 339.938 178.319C339.764 177.933 339.505 177.637 339.159 177.432C338.814 177.223 338.384 177.119 337.869 177.119H336.596V182.292ZM342.025 183V178.059H342.784V183H342.025ZM342.063 177.39L342.848 175.897H343.736L342.732 177.39H342.063ZM345.447 183.116C345.134 183.116 344.85 183.057 344.595 182.939C344.34 182.819 344.137 182.646 343.987 182.421C343.837 182.194 343.762 181.919 343.762 181.597C343.762 181.314 343.817 181.085 343.929 180.909C344.04 180.731 344.189 180.592 344.376 180.491C344.563 180.39 344.769 180.315 344.994 180.266C345.221 180.214 345.449 180.173 345.679 180.143C345.979 180.105 346.223 180.076 346.409 180.057C346.598 180.035 346.735 180 346.821 179.95C346.909 179.901 346.953 179.815 346.953 179.693V179.667C346.953 179.35 346.866 179.103 346.692 178.927C346.521 178.752 346.26 178.664 345.911 178.664C345.548 178.664 345.264 178.743 345.058 178.902C344.852 179.06 344.707 179.23 344.624 179.41L343.903 179.153C344.032 178.852 344.203 178.619 344.418 178.451C344.634 178.282 344.87 178.164 345.126 178.097C345.383 178.029 345.636 177.994 345.885 177.994C346.043 177.994 346.226 178.014 346.432 178.052C346.64 178.089 346.84 178.165 347.033 178.281C347.228 178.397 347.39 178.571 347.519 178.805C347.648 179.039 347.712 179.352 347.712 179.744V183H346.953V182.331H346.914C346.863 182.438 346.777 182.553 346.657 182.675C346.537 182.797 346.377 182.901 346.178 182.987C345.978 183.073 345.735 183.116 345.447 183.116ZM345.563 182.434C345.863 182.434 346.116 182.375 346.322 182.257C346.53 182.139 346.687 181.987 346.792 181.8C346.899 181.614 346.953 181.417 346.953 181.211V180.517C346.921 180.555 346.85 180.591 346.74 180.623C346.633 180.653 346.509 180.68 346.367 180.703C346.228 180.725 346.092 180.744 345.959 180.761C345.828 180.776 345.722 180.789 345.64 180.8C345.443 180.825 345.259 180.867 345.087 180.925C344.918 180.981 344.78 181.066 344.675 181.179C344.572 181.291 344.521 181.443 344.521 181.636C344.521 181.9 344.618 182.099 344.814 182.234C345.011 182.367 345.261 182.434 345.563 182.434ZM353.496 183.09C353.072 183.09 352.693 183.017 352.361 182.871C352.031 182.725 351.768 182.523 351.573 182.263C351.38 182.002 351.275 181.698 351.257 181.353H352.068C352.085 181.565 352.158 181.749 352.287 181.903C352.415 182.055 352.584 182.173 352.792 182.257C353 182.341 353.23 182.382 353.483 182.382C353.767 182.382 354.017 182.333 354.236 182.234C354.455 182.136 354.627 181.998 354.751 181.823C354.875 181.647 354.938 181.443 354.938 181.211C354.938 180.969 354.877 180.756 354.757 180.571C354.637 180.385 354.461 180.239 354.23 180.134C353.998 180.029 353.715 179.976 353.381 179.976H352.853V179.268H353.381C353.642 179.268 353.872 179.221 354.069 179.127C354.268 179.032 354.424 178.9 354.535 178.728C354.649 178.556 354.706 178.355 354.706 178.123C354.706 177.9 354.657 177.706 354.558 177.541C354.459 177.376 354.32 177.247 354.14 177.155C353.962 177.063 353.752 177.017 353.509 177.017C353.282 177.017 353.067 177.058 352.866 177.142C352.666 177.223 352.503 177.343 352.377 177.499C352.25 177.653 352.182 177.84 352.171 178.059H351.399C351.412 177.714 351.516 177.411 351.711 177.152C351.906 176.89 352.161 176.686 352.477 176.54C352.794 176.395 353.142 176.322 353.522 176.322C353.93 176.322 354.279 176.404 354.571 176.569C354.862 176.732 355.087 176.948 355.243 177.216C355.4 177.484 355.478 177.774 355.478 178.085C355.478 178.456 355.38 178.772 355.185 179.034C354.992 179.295 354.729 179.476 354.397 179.577V179.629C354.813 179.697 355.138 179.874 355.372 180.159C355.606 180.443 355.722 180.793 355.722 181.211C355.722 181.57 355.625 181.891 355.43 182.176C355.237 182.46 354.973 182.683 354.638 182.846C354.304 183.009 353.923 183.09 353.496 183.09ZM359.006 183.09C358.521 183.09 358.108 182.958 357.767 182.694C357.426 182.428 357.166 182.044 356.986 181.54C356.806 181.033 356.715 180.422 356.715 179.706C356.715 178.994 356.806 178.386 356.986 177.882C357.168 177.376 357.43 176.99 357.771 176.724C358.114 176.456 358.525 176.322 359.006 176.322C359.486 176.322 359.897 176.456 360.238 176.724C360.581 176.99 360.843 177.376 361.023 177.882C361.205 178.386 361.296 178.994 361.296 179.706C361.296 180.422 361.206 181.033 361.026 181.54C360.846 182.044 360.585 182.428 360.244 182.694C359.903 182.958 359.491 183.09 359.006 183.09ZM359.006 182.382C359.486 182.382 359.859 182.151 360.125 181.688C360.391 181.224 360.524 180.564 360.524 179.706C360.524 179.135 360.463 178.65 360.341 178.249C360.221 177.848 360.047 177.542 359.82 177.332C359.595 177.122 359.323 177.017 359.006 177.017C358.53 177.017 358.158 177.251 357.89 177.721C357.622 178.189 357.487 178.85 357.487 179.706C357.487 180.276 357.548 180.761 357.668 181.16C357.788 181.559 357.96 181.862 358.186 182.07C358.413 182.278 358.686 182.382 359.006 182.382Z" fill="#35393E"/>
</svg>
