<svg width="25" height="25" viewBox="0 0 25 25" fill="none" xmlns="http://www.w3.org/2000/svg">
<g clip-path="url(#clip0_394_2194)">
<path d="M15.5371 11.625C16.3655 11.625 17.0371 10.9534 17.0371 10.125C17.0371 9.29657 16.3655 8.625 15.5371 8.625C14.7087 8.625 14.0371 9.29657 14.0371 10.125C14.0371 10.9534 14.7087 11.625 15.5371 11.625Z" fill="white"/>
<path d="M8.53711 11.625C9.36554 11.625 10.0371 10.9534 10.0371 10.125C10.0371 9.29657 9.36554 8.625 8.53711 8.625C7.70868 8.625 7.03711 9.29657 7.03711 10.125C7.03711 10.9534 7.70868 11.625 8.53711 11.625Z" fill="white"/>
<path d="M12.0271 2.625C6.50711 2.625 2.03711 7.105 2.03711 12.625C2.03711 18.145 6.50711 22.625 12.0271 22.625C17.5571 22.625 22.0371 18.145 22.0371 12.625C22.0371 7.105 17.5571 2.625 12.0271 2.625ZM12.0371 20.625C7.61711 20.625 4.03711 17.045 4.03711 12.625C4.03711 8.205 7.61711 4.625 12.0371 4.625C16.4571 4.625 20.0371 8.205 20.0371 12.625C20.0371 17.045 16.4571 20.625 12.0371 20.625ZM7.03711 14.625C7.81711 16.965 9.75711 18.625 12.0371 18.625C14.3171 18.625 16.2571 16.965 17.0371 14.625H7.03711Z" fill="#35393E"/>
</g>
<defs>
<clipPath id="clip0_394_2194">
<rect width="24" height="24" fill="white" transform="translate(0.0371094 0.625)"/>
</clipPath>
</defs>
</svg>
