<svg width="210" height="210" viewBox="0 0 210 210" fill="none" xmlns="http://www.w3.org/2000/svg">
<g clip-path="url(#clip0_33_1119)">
<path d="M60.438 191.1V18.9C60.438 9.61798 67.956 2.09998 77.238 2.09998H168.252C177.534 2.09998 185.052 9.61798 185.052 18.9V191.1C185.052 200.382 177.534 207.9 168.252 207.9H77.238C67.956 207.9 60.438 200.382 60.438 191.1Z" fill="#206A71"/>
<path d="M168.252 210H77.238C66.822 210 58.338 201.516 58.338 191.1V18.9C58.338 8.484 66.822 0 77.238 0H168.252C178.668 0 187.152 8.484 187.152 18.9V191.1C187.152 201.516 178.668 210 168.252 210ZM77.238 4.2C69.132 4.2 62.538 10.794 62.538 18.9V191.1C62.538 199.206 69.132 205.8 77.238 205.8H168.252C176.358 205.8 182.952 199.206 182.952 191.1V18.9C182.952 10.794 176.358 4.2 168.252 4.2H77.238Z" fill="#231F20"/>
<path d="M88.704 201.6H77.238C71.442 201.6 66.738 196.896 66.738 191.1C66.738 189.924 67.662 189 68.838 189C70.014 189 70.938 189.924 70.938 191.1C70.938 194.586 73.752 197.4 77.238 197.4H88.704C89.88 197.4 90.804 198.324 90.804 199.5C90.804 200.676 89.88 201.6 88.704 201.6Z" fill="#DEEEEF"/>
<path d="M81.438 182.322C76.818 182.322 73.038 178.542 73.038 173.922V23.1C73.038 18.48 76.818 14.7 81.438 14.7H164.052C168.672 14.7 172.452 18.48 172.452 23.1V173.922C172.452 178.542 168.672 182.322 164.052 182.322H81.438Z" fill="#B2EAEE"/>
<path d="M164.052 165.48C162.876 165.48 161.952 164.556 161.952 163.38V57.12C161.952 55.944 162.876 55.02 164.052 55.02C165.228 55.02 166.152 55.944 166.152 57.12V163.38C166.152 164.556 165.186 165.48 164.052 165.48Z" fill="white"/>
<path d="M164.052 49.98C162.876 49.98 161.952 49.056 161.952 47.88V45.99C161.952 44.814 162.876 43.89 164.052 43.89C165.228 43.89 166.152 44.814 166.152 45.99V47.88C166.152 49.056 165.186 49.98 164.052 49.98Z" fill="white"/>
<path d="M172.452 37.086V23.1C172.452 18.48 168.672 14.7 164.052 14.7H81.438C76.818 14.7 73.038 18.48 73.038 23.1V37.086H172.452Z" fill="white"/>
<path d="M172.452 39.186H73.038C71.862 39.186 70.938 38.262 70.938 37.086V23.1C70.938 17.304 75.642 12.6 81.438 12.6H164.052C169.848 12.6 174.552 17.304 174.552 23.1V37.086C174.552 38.262 173.586 39.186 172.452 39.186ZM75.138 34.986H170.352V23.1C170.352 19.614 167.538 16.8 164.052 16.8H81.438C77.952 16.8 75.138 19.614 75.138 23.1V34.986Z" fill="#231F20"/>
<path d="M164.052 184.422H81.438C75.642 184.422 70.938 179.718 70.938 173.922V23.1C70.938 17.304 75.642 12.6 81.438 12.6H164.052C169.848 12.6 174.552 17.304 174.552 23.1V173.922C174.552 179.718 169.806 184.422 164.052 184.422ZM81.438 16.8C77.952 16.8 75.138 19.614 75.138 23.1V173.922C75.138 177.408 77.952 180.222 81.438 180.222H164.052C167.538 180.222 170.352 177.408 170.352 173.922V23.1C170.352 19.614 167.538 16.8 164.052 16.8H81.438Z" fill="#231F20"/>
<path d="M122.724 207.9C129.776 207.9 135.492 202.184 135.492 195.132C135.492 188.08 129.776 182.364 122.724 182.364C115.672 182.364 109.956 188.08 109.956 195.132C109.956 202.184 115.672 207.9 122.724 207.9Z" fill="#DEEEEF"/>
<path d="M122.724 210C114.534 210 107.856 203.322 107.856 195.132C107.856 186.942 114.534 180.264 122.724 180.264C130.914 180.264 137.634 186.942 137.634 195.132C137.634 203.322 130.956 210 122.724 210ZM122.724 184.422C116.844 184.422 112.056 189.21 112.056 195.09C112.056 200.97 116.844 205.758 122.724 205.758C128.604 205.758 133.434 200.97 133.434 195.09C133.434 189.21 128.646 184.422 122.724 184.422Z" fill="#231F20"/>
<path d="M122.724 14.7C126.203 14.7 129.024 11.8794 129.024 8.39998C129.024 4.92058 126.203 2.09998 122.724 2.09998C119.245 2.09998 116.424 4.92058 116.424 8.39998C116.424 11.8794 119.245 14.7 122.724 14.7Z" fill="#DEEEEF"/>
<path d="M122.724 16.8C118.104 16.8 114.324 13.02 114.324 8.4C114.324 3.78 118.104 0 122.724 0C127.344 0 131.124 3.78 131.124 8.4C131.124 13.02 127.344 16.8 122.724 16.8ZM122.724 4.2C120.414 4.2 118.524 6.09 118.524 8.4C118.524 10.71 120.414 12.6 122.724 12.6C125.034 12.6 126.924 10.71 126.924 8.4C126.924 6.09 125.034 4.2 122.724 4.2Z" fill="#231F20"/>
<path d="M118.356 197.232C117.18 197.232 116.256 196.308 116.256 195.132C116.256 191.562 119.154 188.664 122.724 188.664C123.9 188.664 124.824 189.588 124.824 190.764C124.824 191.94 123.9 192.864 122.724 192.864C121.464 192.864 120.456 193.872 120.456 195.132C120.456 196.266 119.49 197.232 118.356 197.232Z" fill="#DEEEEF"/>
<path d="M110.208 120.498H41.748C37.128 120.498 33.348 116.718 33.348 112.098V43.638C33.348 39.018 37.128 35.238 41.748 35.238H110.208C114.828 35.238 118.608 39.018 118.608 43.638V112.098C118.608 116.718 114.87 120.498 110.208 120.498Z" fill="#DEEEEF"/>
<path d="M110.208 26.838H41.748C32.466 26.838 24.948 34.356 24.948 43.638V112.098C24.948 121.38 32.466 128.898 41.748 128.898H99.666C103.95 128.898 108.108 130.158 111.678 132.51L127.008 142.59V112.098V108.696V43.638C127.008 34.356 119.49 26.838 110.208 26.838Z" fill="#DEEEEF"/>
<path d="M108.36 118.65H43.596C38.976 118.65 35.196 114.87 35.196 110.25V45.4859C35.196 40.8659 38.976 37.0859 43.596 37.0859H108.36C112.98 37.0859 116.76 40.8659 116.76 45.4859V110.25C116.76 114.87 113.022 118.65 108.36 118.65Z" fill="#FDA568"/>
<path d="M73.038 47.586H71.274C70.098 47.586 69.174 46.662 69.174 45.486C69.174 44.31 70.098 43.386 71.274 43.386H73.038C74.214 43.386 75.138 44.31 75.138 45.486C75.138 46.662 74.172 47.586 73.038 47.586Z" fill="#FFEDCC"/>
<path d="M43.596 67.62C42.42 67.62 41.496 66.696 41.496 65.52V48.804C41.496 45.822 43.932 43.344 46.956 43.344H63.378C64.554 43.344 65.478 44.268 65.478 45.444C65.478 46.62 64.554 47.544 63.378 47.544H46.956C46.284 47.544 45.696 48.09 45.696 48.804V65.52C45.696 66.696 44.772 67.62 43.596 67.62Z" fill="#FFEDCC"/>
<path d="M43.596 118.65H108.36C112.98 118.65 116.76 114.87 116.76 110.25V69.258L103.488 60.396C102.06 59.472 100.254 59.472 98.826 60.396L84 70.308L69.174 60.396C67.746 59.472 65.94 59.472 64.512 60.396L35.196 79.968V110.25C35.196 114.87 38.976 118.65 43.596 118.65Z" fill="white"/>
<path d="M89.796 39.186H87.36C86.184 39.186 85.26 38.262 85.26 37.086C85.26 35.91 86.184 34.986 87.36 34.986H89.796C90.972 34.986 91.896 35.91 91.896 37.086C91.896 38.262 90.93 39.186 89.796 39.186Z" fill="#231F20"/>
<path d="M108.36 120.75H43.5959C37.7999 120.75 33.0959 116.046 33.0959 110.25V45.486C33.0959 39.69 37.7999 34.986 43.5959 34.986H78.5399C79.7159 34.986 80.6399 35.91 80.6399 37.086C80.6399 38.262 79.7159 39.186 78.5399 39.186H43.5959C40.1099 39.186 37.2959 42 37.2959 45.486V110.25C37.2959 113.736 40.1099 116.55 43.5959 116.55H108.36C111.846 116.55 114.66 113.736 114.66 110.25V45.486C114.66 42 111.846 39.186 108.36 39.186H97.6499C96.4739 39.186 95.5499 38.262 95.5499 37.086C95.5499 35.91 96.4739 34.986 97.6499 34.986H108.36C114.156 34.986 118.86 39.69 118.86 45.486V110.25C118.86 116.046 114.156 120.75 108.36 120.75Z" fill="#231F20"/>
<path d="M127.008 144.648C126.588 144.648 126.21 144.522 125.874 144.312L110.544 134.232C107.31 132.09 103.572 130.998 99.708 130.998H41.748C31.332 130.998 22.848 122.514 22.848 112.098V43.638C22.848 33.222 31.332 24.738 41.748 24.738H110.208C120.624 24.738 129.108 33.222 129.108 43.638V142.59C129.108 143.346 128.688 144.06 128.016 144.438C127.722 144.564 127.344 144.648 127.008 144.648ZM41.748 28.938C33.642 28.938 27.048 35.532 27.048 43.638V112.098C27.048 120.204 33.642 126.798 41.748 126.798H99.666C104.37 126.798 108.906 128.142 112.812 130.746L124.866 138.684V43.638C124.866 35.532 118.272 28.938 110.166 28.938H41.748Z" fill="#231F20"/>
<path d="M93.324 156.03H89.964C88.788 156.03 87.864 155.106 87.864 153.93C87.864 152.754 88.788 151.83 89.964 151.83H93.324C94.5 151.83 95.424 152.754 95.424 153.93C95.424 155.106 94.5 156.03 93.324 156.03Z" fill="#231F20"/>
<path d="M122.388 156.03H102.144C100.968 156.03 100.044 155.106 100.044 153.93C100.044 152.754 100.968 151.83 102.144 151.83H122.388C123.564 151.83 124.488 152.754 124.488 153.93C124.488 155.106 123.564 156.03 122.388 156.03Z" fill="#231F20"/>
<path d="M155.484 156.03H133.434C132.258 156.03 131.334 155.106 131.334 153.93C131.334 152.754 132.258 151.83 133.434 151.83H155.484C156.66 151.83 157.584 152.754 157.584 153.93C157.584 155.106 156.66 156.03 155.484 156.03Z" fill="#231F20"/>
<path d="M93.324 167.16H89.964C88.788 167.16 87.864 166.236 87.864 165.06C87.864 163.884 88.788 162.96 89.964 162.96H93.324C94.5 162.96 95.424 163.884 95.424 165.06C95.424 166.236 94.5 167.16 93.324 167.16Z" fill="#231F20"/>
<path d="M122.388 167.16H102.144C100.968 167.16 100.044 166.236 100.044 165.06C100.044 163.884 100.968 162.96 102.144 162.96H122.388C123.564 162.96 124.488 163.884 124.488 165.06C124.488 166.236 123.564 167.16 122.388 167.16Z" fill="#231F20"/>
<path d="M155.484 167.16H133.434C132.258 167.16 131.334 166.236 131.334 165.06C131.334 163.884 132.258 162.96 133.434 162.96H155.484C156.66 162.96 157.584 163.884 157.584 165.06C157.584 166.236 156.66 167.16 155.484 167.16Z" fill="#231F20"/>
<path d="M98.532 82.068C98.112 82.068 97.734 81.942 97.356 81.732L68.04 62.16C67.326 61.698 66.402 61.698 65.688 62.16L36.372 81.732C35.406 82.362 34.104 82.11 33.474 81.144C32.844 80.178 33.096 78.876 34.062 78.246L63.378 58.674C65.52 57.246 68.25 57.246 70.392 58.674L99.708 78.246C100.674 78.876 100.926 80.178 100.296 81.144C99.876 81.774 99.204 82.068 98.532 82.068Z" fill="#231F20"/>
<path d="M84.042 72.408C83.37 72.408 82.698 72.072 82.278 71.484C81.648 70.518 81.9 69.216 82.866 68.586L97.692 58.674C99.834 57.246 102.564 57.246 104.706 58.674L118.062 67.578C119.028 68.208 119.28 69.51 118.65 70.476C118.02 71.442 116.718 71.694 115.752 71.064L102.354 62.16C101.64 61.698 100.716 61.698 100.002 62.16L85.176 72.072C84.84 72.282 84.42 72.408 84.042 72.408Z" fill="#231F20"/>
<path d="M39.8161 94.92C39.6481 94.332 39.5221 93.744 39.5221 93.114C39.5221 89.88 42.1681 87.234 45.4021 87.234C48.6361 87.234 51.2821 89.88 51.2821 93.114C51.2821 93.744 51.1981 94.332 50.9881 94.92C53.6341 95.508 55.5661 97.86 55.5661 100.674C55.5661 103.908 52.9201 106.554 49.6861 106.554C47.9641 106.554 46.4521 105.84 45.3601 104.664C44.2681 105.84 42.7561 106.554 41.0341 106.554C37.8001 106.554 35.1541 103.908 35.1541 100.674C35.1961 97.86 37.1701 95.508 39.8161 94.92Z" fill="#B4EEB2"/>
<path d="M49.7279 108.654C48.1739 108.654 46.7039 108.192 45.4019 107.394C44.1419 108.234 42.6299 108.654 41.0759 108.654C36.6659 108.654 33.0959 105.084 33.0959 100.674C33.0959 97.65 34.8179 94.92 37.4219 93.576C37.4219 93.408 37.4219 93.282 37.4219 93.114C37.4219 88.704 40.9919 85.134 45.4019 85.134C49.8119 85.134 53.3819 88.704 53.3819 93.114C53.3819 93.282 53.3819 93.408 53.3819 93.576C55.9859 94.92 57.7079 97.65 57.7079 100.674C57.7079 105.084 54.1379 108.654 49.7279 108.654ZM45.4019 102.564C45.9899 102.564 46.5359 102.816 46.9559 103.236C47.6699 104.034 48.6779 104.454 49.7279 104.454C51.8279 104.454 53.5079 102.774 53.5079 100.674C53.5079 98.91 52.2479 97.356 50.5679 96.978C49.9799 96.852 49.4759 96.474 49.1819 95.97C48.8879 95.466 48.8039 94.836 49.0139 94.29C49.1399 93.912 49.1819 93.534 49.1819 93.114C49.1819 91.014 47.5019 89.334 45.4019 89.334C43.3019 89.334 41.6219 91.014 41.6219 93.114C41.6219 93.492 41.6639 93.912 41.7899 94.29C41.9579 94.836 41.9159 95.466 41.6219 95.97C41.3279 96.474 40.8239 96.852 40.2359 96.978C38.5139 97.356 37.2959 98.91 37.2959 100.674C37.2959 102.774 38.9759 104.454 41.0759 104.454C42.1259 104.454 43.1339 104.034 43.8479 103.236C44.2679 102.816 44.8139 102.564 45.4019 102.564Z" fill="#231F20"/>
<path d="M45.402 120.792C44.226 120.792 43.302 119.868 43.302 118.692V106.554C43.302 105.378 44.226 104.454 45.402 104.454C46.578 104.454 47.502 105.378 47.502 106.554V118.692C47.502 119.826 46.578 120.792 45.402 120.792Z" fill="#231F20"/>
<path d="M60.186 94.92C60.018 94.332 59.892 93.744 59.892 93.114C59.892 89.88 62.538 87.234 65.772 87.234C69.006 87.234 71.652 89.88 71.652 93.114C71.652 93.744 71.568 94.332 71.358 94.92C74.004 95.508 75.936 97.86 75.936 100.674C75.936 103.908 73.29 106.554 70.056 106.554C68.334 106.554 66.822 105.84 65.73 104.664C64.638 105.84 63.126 106.554 61.404 106.554C58.17 106.554 55.524 103.908 55.524 100.674C55.608 97.86 57.582 95.508 60.186 94.92Z" fill="#B4EEB2"/>
<path d="M70.098 108.654C68.544 108.654 67.074 108.192 65.772 107.394C64.512 108.234 63 108.654 61.446 108.654C57.036 108.654 53.466 105.084 53.466 100.674C53.466 97.65 55.188 94.92 57.792 93.576C57.792 93.408 57.792 93.282 57.792 93.114C57.792 88.704 61.362 85.134 65.772 85.134C70.182 85.134 73.752 88.704 73.752 93.114C73.752 93.282 73.752 93.408 73.752 93.576C76.356 94.92 78.078 97.65 78.078 100.674C78.078 105.084 74.508 108.654 70.098 108.654ZM65.814 102.564C66.402 102.564 66.948 102.816 67.368 103.236C68.082 104.034 69.09 104.454 70.14 104.454C72.24 104.454 73.92 102.774 73.92 100.674C73.92 98.91 72.66 97.356 70.98 96.978C70.392 96.852 69.888 96.474 69.594 95.97C69.3 95.466 69.216 94.836 69.426 94.29C69.552 93.912 69.594 93.534 69.594 93.114C69.594 91.014 67.914 89.334 65.814 89.334C63.714 89.334 62.034 91.014 62.034 93.114C62.034 93.492 62.076 93.912 62.202 94.29C62.37 94.836 62.328 95.466 62.034 95.97C61.74 96.474 61.236 96.852 60.648 96.978C58.926 97.356 57.708 98.91 57.708 100.674C57.708 102.774 59.388 104.454 61.488 104.454C62.538 104.454 63.546 104.034 64.26 103.236C64.638 102.816 65.226 102.564 65.814 102.564Z" fill="#231F20"/>
<path d="M65.814 120.792C64.638 120.792 63.714 119.868 63.714 118.692V106.554C63.714 105.378 64.638 104.454 65.814 104.454C66.99 104.454 67.914 105.378 67.914 106.554V118.692C67.914 119.826 66.948 120.792 65.814 120.792Z" fill="#231F20"/>
<path d="M80.598 94.92C80.43 94.332 80.304 93.744 80.304 93.114C80.304 89.88 82.95 87.234 86.184 87.234C89.418 87.234 92.064 89.88 92.064 93.114C92.064 93.744 91.98 94.332 91.77 94.92C94.416 95.508 96.348 97.86 96.348 100.674C96.348 103.908 93.702 106.554 90.468 106.554C88.746 106.554 87.234 105.84 86.142 104.664C85.05 105.84 83.538 106.554 81.816 106.554C78.582 106.554 75.936 103.908 75.936 100.674C75.978 97.86 77.952 95.508 80.598 94.92Z" fill="#B4EEB2"/>
<path d="M90.51 108.654C88.956 108.654 87.486 108.192 86.184 107.394C84.924 108.234 83.412 108.654 81.858 108.654C77.448 108.654 73.878 105.084 73.878 100.674C73.878 97.65 75.6 94.92 78.204 93.576C78.204 93.408 78.204 93.282 78.204 93.114C78.204 88.704 81.774 85.134 86.184 85.134C90.594 85.134 94.164 88.704 94.164 93.114C94.164 93.282 94.164 93.408 94.164 93.576C96.768 94.92 98.49 97.65 98.49 100.674C98.49 105.084 94.92 108.654 90.51 108.654ZM86.184 102.564C86.772 102.564 87.318 102.816 87.738 103.236C88.452 104.034 89.46 104.454 90.51 104.454C92.61 104.454 94.29 102.774 94.29 100.674C94.29 98.91 93.03 97.356 91.35 96.978C90.762 96.852 90.258 96.474 89.964 95.97C89.67 95.466 89.586 94.836 89.796 94.29C89.922 93.912 89.964 93.534 89.964 93.114C89.964 91.014 88.284 89.334 86.184 89.334C84.084 89.334 82.404 91.014 82.404 93.114C82.404 93.492 82.446 93.912 82.572 94.29C82.74 94.836 82.698 95.466 82.404 95.97C82.11 96.474 81.606 96.852 81.018 96.978C79.296 97.356 78.078 98.91 78.078 100.674C78.078 102.774 79.758 104.454 81.858 104.454C82.908 104.454 83.916 104.034 84.63 103.236C85.05 102.816 85.596 102.564 86.184 102.564Z" fill="#231F20"/>
<path d="M86.184 120.792C85.008 120.792 84.084 119.868 84.084 118.692V106.554C84.084 105.378 85.008 104.454 86.184 104.454C87.36 104.454 88.284 105.378 88.284 106.554V118.692C88.284 119.826 87.36 120.792 86.184 120.792Z" fill="#231F20"/>
<path d="M100.968 94.92C100.8 94.332 100.674 93.744 100.674 93.114C100.674 89.88 103.32 87.234 106.554 87.234C109.788 87.234 112.434 89.88 112.434 93.114C112.434 93.744 112.35 94.332 112.14 94.92C114.786 95.508 116.718 97.86 116.718 100.674C116.718 103.908 114.072 106.554 110.838 106.554C109.116 106.554 107.604 105.84 106.512 104.664C105.42 105.84 103.908 106.554 102.186 106.554C98.952 106.554 96.306 103.908 96.306 100.674C96.39 97.86 98.364 95.508 100.968 94.92Z" fill="#B4EEB2"/>
<path d="M110.88 108.654C109.326 108.654 107.856 108.192 106.554 107.394C105.294 108.234 103.782 108.654 102.228 108.654C97.818 108.654 94.248 105.084 94.248 100.674C94.248 97.65 95.97 94.92 98.574 93.576C98.574 93.408 98.574 93.282 98.574 93.114C98.574 88.704 102.144 85.134 106.554 85.134C110.964 85.134 114.534 88.704 114.534 93.114C114.534 93.282 114.534 93.408 114.534 93.576C117.138 94.92 118.86 97.65 118.86 100.674C118.86 105.084 115.29 108.654 110.88 108.654ZM106.596 102.564C107.184 102.564 107.73 102.816 108.15 103.236C108.864 104.034 109.872 104.454 110.922 104.454C113.022 104.454 114.702 102.774 114.702 100.674C114.702 98.91 113.442 97.356 111.762 96.978C111.174 96.852 110.67 96.474 110.376 95.97C110.082 95.466 109.998 94.836 110.208 94.29C110.334 93.912 110.376 93.534 110.376 93.114C110.376 91.014 108.696 89.334 106.596 89.334C104.496 89.334 102.816 91.014 102.816 93.114C102.816 93.492 102.858 93.912 102.984 94.29C103.152 94.836 103.11 95.466 102.816 95.97C102.522 96.474 102.018 96.852 101.43 96.978C99.708 97.356 98.49 98.91 98.49 100.674C98.49 102.774 100.17 104.454 102.27 104.454C103.32 104.454 104.328 104.034 105.042 103.236C105.42 102.816 106.008 102.564 106.596 102.564Z" fill="#231F20"/>
<path d="M106.596 120.792C105.42 120.792 104.496 119.868 104.496 118.692V106.554C104.496 105.378 105.42 104.454 106.596 104.454C107.772 104.454 108.696 105.378 108.696 106.554V118.692C108.696 119.826 107.73 120.792 106.596 120.792Z" fill="#231F20"/>
<path d="M98.784 201.6H97.524C96.348 201.6 95.424 200.676 95.424 199.5C95.424 198.324 96.348 197.4 97.524 197.4H98.784C99.96 197.4 100.884 198.324 100.884 199.5C100.884 200.676 99.96 201.6 98.784 201.6Z" fill="#DEEEEF"/>
<path d="M145.782 30.786C144.606 30.786 143.682 29.862 143.682 28.686V27.132C143.682 25.956 144.606 25.032 145.782 25.032C146.958 25.032 147.882 25.956 147.882 27.132V28.686C147.882 29.82 146.916 30.786 145.782 30.786Z" fill="#231F20"/>
<path d="M153.3 30.7861C152.124 30.7861 151.2 29.8621 151.2 28.6861V24.7801C151.2 23.6041 152.124 22.6801 153.3 22.6801C154.476 22.6801 155.4 23.6041 155.4 24.7801V28.6441C155.4 29.8201 154.434 30.7861 153.3 30.7861Z" fill="#231F20"/>
<path d="M160.818 30.786C159.642 30.786 158.718 29.862 158.718 28.686V22.386C158.718 21.21 159.642 20.286 160.818 20.286C161.994 20.286 162.918 21.21 162.918 22.386V28.644C162.918 29.82 161.952 30.786 160.818 30.786Z" fill="#231F20"/>
</g>
<defs>
<clipPath id="clip0_33_1119">
<rect width="210" height="210" fill="white"/>
</clipPath>
</defs>
</svg>
