<svg width="210" height="210" viewBox="0 0 210 210" fill="none" xmlns="http://www.w3.org/2000/svg">
<g clip-path="url(#clip0_33_1121)">
<path d="M71.82 191.1V18.9C71.82 9.61798 79.338 2.09998 88.62 2.09998H179.634C188.916 2.09998 196.434 9.61798 196.434 18.9V191.1C196.434 200.382 188.916 207.9 179.634 207.9H88.62C79.338 207.9 71.82 200.382 71.82 191.1Z" fill="#206A71"/>
<path d="M179.634 210H88.62C78.204 210 69.72 201.516 69.72 191.1V18.9C69.72 8.484 78.204 0 88.62 0H179.634C190.05 0 198.534 8.484 198.534 18.9V191.1C198.534 201.516 190.05 210 179.634 210ZM88.62 4.2C80.514 4.2 73.92 10.794 73.92 18.9V191.1C73.92 199.206 80.514 205.8 88.62 205.8H179.634C187.74 205.8 194.334 199.206 194.334 191.1V18.9C194.334 10.794 187.74 4.2 179.634 4.2H88.62Z" fill="#231F20"/>
<path d="M100.128 201.6H88.62C82.824 201.6 78.12 196.896 78.12 191.1C78.12 189.924 79.044 189 80.22 189C81.396 189 82.32 189.924 82.32 191.1C82.32 194.586 85.134 197.4 88.62 197.4H100.086C101.262 197.4 102.186 198.324 102.186 199.5C102.186 200.676 101.262 201.6 100.128 201.6Z" fill="#DEEEEF"/>
<path d="M92.82 182.322C88.2 182.322 84.42 178.542 84.42 173.922V23.1C84.42 18.48 88.2 14.7 92.82 14.7H175.434C180.054 14.7 183.834 18.48 183.834 23.1V173.922C183.834 178.542 180.054 182.322 175.434 182.322H92.82Z" fill="#B2EAEE"/>
<path d="M183.834 37.086V23.1C183.834 18.48 180.054 14.7 175.434 14.7H92.82C88.2 14.7 84.42 18.48 84.42 23.1V37.086H183.834Z" fill="white"/>
<path d="M183.834 39.186H84.42C83.244 39.186 82.32 38.262 82.32 37.086V23.1C82.32 17.304 87.024 12.6 92.82 12.6H175.434C181.23 12.6 185.934 17.304 185.934 23.1V37.086C185.934 38.262 185.01 39.186 183.834 39.186ZM86.52 34.986H181.734V23.1C181.734 19.614 178.92 16.8 175.434 16.8H92.82C89.334 16.8 86.52 19.614 86.52 23.1V34.986Z" fill="#231F20"/>
<path d="M175.434 184.422H92.82C87.024 184.422 82.32 179.718 82.32 173.922V23.1C82.32 17.304 87.024 12.6 92.82 12.6H175.434C181.23 12.6 185.934 17.304 185.934 23.1V173.922C185.934 179.718 181.23 184.422 175.434 184.422ZM92.82 16.8C89.334 16.8 86.52 19.614 86.52 23.1V173.922C86.52 177.408 89.334 180.222 92.82 180.222H175.434C178.92 180.222 181.734 177.408 181.734 173.922V23.1C181.734 19.614 178.92 16.8 175.434 16.8H92.82Z" fill="#231F20"/>
<path d="M134.148 207.9C141.2 207.9 146.916 202.184 146.916 195.132C146.916 188.08 141.2 182.364 134.148 182.364C127.096 182.364 121.38 188.08 121.38 195.132C121.38 202.184 127.096 207.9 134.148 207.9Z" fill="#DEEEEF"/>
<path d="M134.148 210C125.958 210 119.238 203.322 119.238 195.132C119.238 186.942 125.916 180.264 134.148 180.264C142.38 180.264 149.016 186.942 149.016 195.132C149.016 203.322 142.338 210 134.148 210ZM134.148 184.422C128.268 184.422 123.438 189.21 123.438 195.09C123.438 200.97 128.226 205.758 134.148 205.758C140.07 205.758 144.816 200.97 144.816 195.09C144.816 189.21 140.028 184.422 134.148 184.422Z" fill="#231F20"/>
<path d="M134.148 14.7C137.627 14.7 140.448 11.8794 140.448 8.39998C140.448 4.92058 137.627 2.09998 134.148 2.09998C130.669 2.09998 127.848 4.92058 127.848 8.39998C127.848 11.8794 130.669 14.7 134.148 14.7Z" fill="#DEEEEF"/>
<path d="M134.148 16.8C129.528 16.8 125.748 13.02 125.748 8.4C125.748 3.78 129.528 0 134.148 0C138.768 0 142.548 3.78 142.548 8.4C142.548 13.02 138.768 16.8 134.148 16.8ZM134.148 4.2C131.838 4.2 129.948 6.09 129.948 8.4C129.948 10.71 131.838 12.6 134.148 12.6C136.458 12.6 138.348 10.71 138.348 8.4C138.348 6.09 136.458 4.2 134.148 4.2Z" fill="#231F20"/>
<path d="M129.738 197.232C128.562 197.232 127.638 196.308 127.638 195.132C127.638 191.562 130.536 188.664 134.148 188.664C135.324 188.664 136.248 189.588 136.248 190.764C136.248 191.94 135.324 192.864 134.148 192.864C132.888 192.864 131.838 193.872 131.838 195.132C131.838 196.266 130.914 197.232 129.738 197.232Z" fill="#DEEEEF"/>
<path d="M101.178 39.186H98.742C97.566 39.186 96.642 38.262 96.642 37.086C96.642 35.91 97.566 34.986 98.742 34.986H101.178C102.354 34.986 103.278 35.91 103.278 37.086C103.278 38.262 102.354 39.186 101.178 39.186Z" fill="#231F20"/>
<path d="M110.208 201.6H108.948C107.772 201.6 106.848 200.676 106.848 199.5C106.848 198.324 107.772 197.4 108.948 197.4H110.208C111.384 197.4 112.308 198.324 112.308 199.5C112.308 200.676 111.342 201.6 110.208 201.6Z" fill="#DEEEEF"/>
<path d="M157.164 30.786C155.988 30.786 155.064 29.862 155.064 28.686V27.132C155.064 25.956 155.988 25.032 157.164 25.032C158.34 25.032 159.264 25.956 159.264 27.132V28.686C159.264 29.82 158.34 30.786 157.164 30.786Z" fill="#231F20"/>
<path d="M164.682 30.7861C163.506 30.7861 162.582 29.8621 162.582 28.6861V24.7801C162.582 23.6041 163.506 22.6801 164.682 22.6801C165.858 22.6801 166.782 23.6041 166.782 24.7801V28.6441C166.782 29.8201 165.858 30.7861 164.682 30.7861Z" fill="#231F20"/>
<path d="M172.2 30.786C171.024 30.786 170.1 29.862 170.1 28.686V22.386C170.1 21.21 171.024 20.286 172.2 20.286C173.376 20.286 174.3 21.21 174.3 22.386V28.644C174.3 29.82 173.376 30.786 172.2 30.786Z" fill="#231F20"/>
<path d="M76.986 137.004C101.481 137.004 121.338 117.147 121.338 92.6521C121.338 68.1571 101.481 48.3 76.986 48.3C52.4911 48.3 32.634 68.1571 32.634 92.6521C32.634 117.147 52.4911 137.004 76.986 137.004Z" fill="#DEEEEF"/>
<path d="M91.686 100.8C91.686 111.594 95.76 121.464 102.438 128.982C104.538 127.512 106.512 125.874 108.36 124.026C124.53 107.856 125.58 82.32 111.552 64.89C99.624 72.408 91.686 85.722 91.686 100.8Z" fill="#DEEEEF"/>
<path d="M108.822 125.664C108.276 125.664 107.772 125.454 107.352 125.076C106.512 124.278 106.512 122.934 107.31 122.094C120.12 108.906 122.976 89.124 114.324 72.87C113.778 71.862 114.156 70.56 115.206 70.014C116.214 69.468 117.516 69.846 118.062 70.896C127.554 88.746 124.446 110.502 110.334 125.034C109.914 125.454 109.368 125.664 108.822 125.664Z" fill="#231F20"/>
<path d="M112.098 67.62C111.468 67.62 110.838 67.326 110.418 66.822C109.956 66.234 109.494 65.646 108.99 65.1C108.234 64.218 108.318 62.916 109.2 62.118C110.082 61.362 111.384 61.446 112.182 62.328C112.728 62.958 113.232 63.588 113.736 64.218C114.45 65.142 114.282 66.444 113.358 67.158C112.98 67.494 112.518 67.62 112.098 67.62Z" fill="#231F20"/>
<path d="M76.986 139.104C75.852 139.104 74.76 139.062 73.626 138.978C62.496 138.18 52.038 133.392 44.184 125.496C35.406 116.718 30.576 105.042 30.576 92.652C30.576 80.262 35.406 68.586 44.184 59.808C52.416 51.5759 63.378 46.746 75.012 46.242C86.562 45.738 97.818 49.56 106.722 56.91C106.932 57.078 107.184 57.2879 107.394 57.4979C108.276 58.2539 108.36 59.598 107.604 60.48C106.848 61.362 105.504 61.446 104.622 60.69C104.412 60.522 104.202 60.354 103.992 60.186C87.108 46.116 62.664 47.25 47.124 62.79C39.144 70.77 34.734 81.396 34.734 92.652C34.734 103.95 39.144 114.534 47.124 122.514C61.74 137.13 85.26 138.936 101.892 126.756C102.816 126.084 104.16 126.294 104.832 127.218C105.504 128.142 105.294 129.486 104.37 130.158C96.474 135.996 86.814 139.104 76.986 139.104Z" fill="#231F20"/>
<path d="M76.986 126.294C95.566 126.294 110.628 111.232 110.628 92.652C110.628 74.072 95.566 59.01 76.986 59.01C58.406 59.01 43.344 74.072 43.344 92.652C43.344 111.232 58.406 126.294 76.986 126.294Z" fill="#B2EAEE"/>
<path d="M102.858 116.34C102.396 116.34 101.892 116.172 101.514 115.836C100.632 115.08 100.506 113.778 101.262 112.896C108.864 103.824 110.712 90.888 105.966 80.052C105.504 79.002 105.966 77.742 107.058 77.28C108.108 76.818 109.368 77.322 109.83 78.372C115.206 90.678 113.106 105.294 104.496 115.626C104.034 116.088 103.446 116.34 102.858 116.34Z" fill="#231F20"/>
<path d="M76.986 128.436C76.188 128.436 75.348 128.394 74.55 128.352C65.94 127.764 57.834 124.068 51.744 117.978C37.8 104.034 37.8 81.354 51.744 67.41C65.688 53.466 88.368 53.466 102.312 67.41C103.32 68.418 104.286 69.468 105.126 70.602C105.84 71.526 105.672 72.828 104.79 73.542C103.866 74.256 102.564 74.088 101.85 73.206C101.094 72.24 100.254 71.274 99.33 70.392C87.024 58.086 66.99 58.086 54.684 70.392C42.378 82.698 42.378 102.732 54.684 115.038C65.688 126.042 83.37 127.344 95.844 118.062C96.768 117.39 98.07 117.558 98.784 118.482C99.456 119.406 99.288 120.708 98.364 121.422C92.19 125.958 84.672 128.436 76.986 128.436Z" fill="#231F20"/>
<path d="M74.508 69.6361C73.458 69.6361 72.534 68.8381 72.408 67.7461C72.282 66.6121 73.122 65.5621 74.298 65.4361C75.18 65.3521 76.104 65.3101 77.028 65.3101C78.204 65.3101 79.128 66.2341 79.128 67.4101C79.128 68.5861 78.204 69.5101 77.028 69.5101C76.272 69.5101 75.474 69.5521 74.718 69.6361C74.634 69.6361 74.55 69.6361 74.508 69.6361Z" fill="white"/>
<path d="M59.136 112.644C58.59 112.644 58.044 112.434 57.666 112.014C52.5 106.848 49.644 99.96 49.644 92.652C49.644 85.344 52.5 78.456 57.666 73.29C59.766 71.19 62.16 69.426 64.806 68.124C65.856 67.62 67.116 68.04 67.62 69.048C68.124 70.098 67.704 71.358 66.696 71.862C64.47 72.954 62.412 74.424 60.648 76.23C56.28 80.598 53.844 86.436 53.844 92.61C53.844 98.784 56.238 104.622 60.648 108.99C61.488 109.83 61.488 111.132 60.648 111.972C60.228 112.434 59.682 112.644 59.136 112.644Z" fill="white"/>
<path d="M42.126 120.078L15.12 147.126C13.062 149.184 13.062 152.502 15.12 154.56C17.178 156.618 20.496 156.618 22.554 154.56L49.602 127.512C48.258 126.42 46.914 125.286 45.654 124.026C44.394 122.766 43.218 121.464 42.126 120.078Z" fill="#DEEEEF"/>
<path d="M18.816 158.214C16.842 158.214 14.994 157.458 13.608 156.072C10.752 153.216 10.752 148.512 13.608 145.656L40.656 118.608C41.076 118.188 41.664 117.978 42.252 117.978C42.84 118.02 43.386 118.314 43.764 118.776C44.814 120.078 45.948 121.38 47.082 122.514C48.258 123.69 49.518 124.824 50.82 125.832C51.282 126.21 51.576 126.756 51.618 127.344C51.66 127.932 51.45 128.52 50.988 128.94L23.94 155.988C22.638 157.458 20.79 158.214 18.816 158.214ZM42 123.186L16.59 148.596C15.372 149.814 15.372 151.83 16.59 153.048C17.178 153.636 17.976 153.972 18.816 153.972C19.656 153.972 20.454 153.636 21.042 153.048L46.452 127.638C45.654 126.924 44.898 126.21 44.142 125.496C43.428 124.782 42.714 123.984 42 123.186Z" fill="#231F20"/>
<path d="M134.148 134.82C152.937 134.82 168.168 119.589 168.168 100.8C168.168 82.0113 152.937 66.78 134.148 66.78C115.359 66.78 100.128 82.0113 100.128 100.8C100.128 119.589 115.359 134.82 134.148 134.82Z" fill="white"/>
<path d="M167.37 100.8H152.502C152.502 100.8 152.124 112.014 149.646 119.028C149.646 119.028 156.744 122.934 158.004 125.076C158.004 125.076 167.538 116.928 168.168 101.472L167.37 100.8Z" fill="#B2EAEE"/>
<path d="M115.752 100.8H134.148V115.29C134.148 115.29 127.218 114.702 118.608 119.028C118.608 119.028 115.332 111.132 115.752 100.8Z" fill="#B2EAEE"/>
<path d="M134.148 115.29C139.734 115.29 145.026 116.634 149.688 119.028C146.412 128.52 140.7 134.862 134.148 134.862V115.29Z" fill="#B2EAEE"/>
<path d="M134.148 136.962C114.24 136.962 98.028 120.75 98.028 100.842C98.028 80.934 114.24 64.722 134.148 64.722C154.056 64.722 170.268 80.934 170.268 100.842C170.268 120.75 154.056 136.962 134.148 136.962ZM134.148 68.88C116.55 68.88 102.228 83.202 102.228 100.8C102.228 118.398 116.55 132.72 134.148 132.72C151.746 132.72 166.068 118.398 166.068 100.8C166.068 83.202 151.746 68.88 134.148 68.88Z" fill="#231F20"/>
<path d="M110.418 112.644C109.578 112.644 108.822 112.14 108.486 111.342C107.1 107.982 106.428 104.454 106.428 100.842C106.428 97.4399 107.016 94.1639 108.234 91.0139C108.402 90.6359 108.528 90.2159 108.696 89.8379C109.158 88.7879 110.376 88.2839 111.468 88.7459C112.518 89.2079 113.022 90.4259 112.56 91.5179C112.434 91.8539 112.266 92.1899 112.14 92.5259C111.132 95.1719 110.628 97.9859 110.628 100.884C110.628 103.95 111.216 106.974 112.392 109.788C112.812 110.88 112.308 112.098 111.258 112.518C110.964 112.602 110.67 112.644 110.418 112.644Z" fill="#B2EAEE"/>
<path d="M134.148 136.962C124.614 136.962 115.584 133.266 108.78 126.588C108.36 126.21 108.15 125.664 108.15 125.076C108.15 124.53 108.36 123.984 108.78 123.564C115.584 116.886 124.572 113.19 134.148 113.19C143.724 113.19 152.712 116.886 159.516 123.564C159.936 123.942 160.146 124.488 160.146 125.076C160.146 125.622 159.936 126.168 159.516 126.588C152.67 133.266 143.682 136.962 134.148 136.962ZM113.358 125.076C119.154 130.032 126.462 132.762 134.148 132.762C141.834 132.762 149.142 130.032 154.938 125.076C149.142 120.12 141.834 117.39 134.148 117.39C126.462 117.39 119.154 120.12 113.358 125.076Z" fill="#231F20"/>
<path d="M131.04 66.78C131.04 66.78 123.354 68.586 118.608 82.614C118.608 82.614 110.838 78.792 110.25 76.566C110.25 76.566 117.096 68.502 131.04 66.78Z" fill="#B2EAEE"/>
<path d="M134.148 86.352C139.734 86.352 145.026 85.008 149.688 82.614C146.412 73.122 140.7 66.78 134.148 66.78V86.352Z" fill="#B2EAEE"/>
<path d="M134.148 88.4521C124.614 88.4521 115.584 84.7561 108.78 78.0781C108.36 77.7001 108.15 77.1541 108.15 76.5661C108.15 76.0201 108.36 75.4741 108.78 75.0541C115.584 68.3761 124.572 64.6801 134.148 64.6801C143.724 64.6801 152.712 68.3761 159.516 75.0541C159.936 75.4321 160.146 75.9781 160.146 76.5661C160.146 77.1121 159.936 77.6581 159.516 78.0781C152.67 84.7561 143.682 88.4521 134.148 88.4521ZM113.358 76.5661C119.154 81.5221 126.462 84.2521 134.148 84.2521C141.834 84.2521 149.142 81.5221 154.938 76.5661C149.142 71.6101 141.834 68.8801 134.148 68.8801C126.462 68.8801 119.154 71.6101 113.358 76.5661Z" fill="#231F20"/>
<path d="M134.148 136.962C122.64 136.962 113.652 121.086 113.652 100.842C113.652 80.598 122.64 64.722 134.148 64.722C145.656 64.722 154.644 80.598 154.644 100.842C154.644 121.086 145.614 136.962 134.148 136.962ZM134.148 68.88C125.328 68.88 117.852 83.496 117.852 100.8C117.852 118.104 125.328 132.72 134.148 132.72C142.968 132.72 150.444 118.104 150.444 100.8C150.444 83.496 142.968 68.88 134.148 68.88Z" fill="#231F20"/>
<path d="M134.148 136.962C132.972 136.962 132.048 136.038 132.048 134.862V66.7801C132.048 65.6041 132.972 64.6801 134.148 64.6801C135.324 64.6801 136.248 65.6041 136.248 66.7801V134.862C136.248 136.038 135.282 136.962 134.148 136.962Z" fill="#231F20"/>
<path d="M168.168 102.9H100.086C98.91 102.9 97.986 101.976 97.986 100.8C97.986 99.624 98.91 98.7 100.086 98.7H168.168C169.344 98.7 170.268 99.624 170.268 100.8C170.268 101.976 169.344 102.9 168.168 102.9Z" fill="#231F20"/>
<path d="M93.828 165.48C92.652 165.48 91.728 164.556 91.728 163.38V151.494C91.728 150.318 92.652 149.394 93.828 149.394C95.004 149.394 95.928 150.318 95.928 151.494V163.38C95.928 164.556 94.962 165.48 93.828 165.48Z" fill="white"/>
<path d="M93.828 144.984C92.652 144.984 91.728 144.06 91.728 142.884V141.75C91.728 140.574 92.652 139.65 93.828 139.65C95.004 139.65 95.928 140.574 95.928 141.75V142.884C95.928 144.018 94.962 144.984 93.828 144.984Z" fill="white"/>
</g>
<defs>
<clipPath id="clip0_33_1121">
<rect width="210" height="210" fill="white"/>
</clipPath>
</defs>
</svg>
