<svg width="210" height="210" viewBox="0 0 210 210" fill="none" xmlns="http://www.w3.org/2000/svg">
<g clip-path="url(#clip0_33_1118)">
<path d="M64.47 44.94H51.744C50.568 44.94 49.644 44.016 49.644 42.84C49.644 41.664 50.568 40.74 51.744 40.74H64.47C65.646 40.74 66.57 41.664 66.57 42.84C66.57 44.016 65.646 44.94 64.47 44.94Z" fill="#231F20"/>
<path d="M44.814 44.94H44.1C42.924 44.94 42 44.016 42 42.84C42 41.664 42.924 40.74 44.1 40.74H44.814C45.99 40.74 46.914 41.664 46.914 42.84C46.914 44.016 45.99 44.94 44.814 44.94Z" fill="#231F20"/>
<path d="M64.47 23.016C59.01 23.016 54.558 27.468 54.558 32.928C54.558 38.388 59.01 42.84 64.47 42.84H104.538C109.998 42.84 114.45 38.388 114.45 32.928C114.45 27.468 110.04 23.016 104.538 23.016H104.328C104.328 19.026 101.094 15.834 97.146 15.834C93.156 15.834 89.964 19.068 89.964 23.016C89.964 16.086 84.378 10.5 77.448 10.5C70.518 10.5 64.932 16.086 64.932 23.016H64.47Z" fill="#B2EAEE"/>
<path d="M104.538 44.94H64.47C57.834 44.94 52.458 39.564 52.458 32.928C52.458 26.796 57.036 21.756 62.958 21C63.924 13.902 70.056 8.40002 77.448 8.40002C83.16 8.40002 88.116 11.718 90.51 16.506C92.19 14.784 94.542 13.734 97.146 13.734C101.598 13.734 105.294 16.884 106.218 21.042C112.056 21.84 116.55 26.88 116.55 32.928C116.55 39.564 111.174 44.94 104.538 44.94ZM64.47 25.116C60.144 25.116 56.658 28.602 56.658 32.928C56.658 37.254 60.144 40.74 64.47 40.74H104.538C108.864 40.74 112.35 37.254 112.35 32.928C112.35 28.602 108.864 25.116 104.538 25.116H104.328C103.152 25.116 102.228 24.192 102.228 23.016C102.228 20.202 99.96 17.934 97.146 17.934C94.332 17.934 92.064 20.202 92.064 23.016C92.064 24.192 91.14 25.116 89.964 25.116C88.788 25.116 87.864 24.192 87.864 23.016C87.864 17.262 83.202 12.6 77.448 12.6C71.694 12.6 67.032 17.262 67.032 23.016C67.032 24.192 66.108 25.116 64.932 25.116H64.47Z" fill="#231F20"/>
<path d="M69.342 32.802H64.47C63.294 32.802 62.37 31.878 62.37 30.702C62.37 29.526 63.294 28.602 64.47 28.602H69.342C70.014 28.602 70.56 28.056 70.56 27.384V23.142C70.56 19.53 73.29 16.464 76.818 16.128C78.75 15.96 80.682 16.59 82.11 17.892C83.538 19.194 84.378 21.042 84.378 23.016C84.378 24.192 83.454 25.116 82.278 25.116C81.102 25.116 80.178 24.192 80.178 23.016C80.178 22.26 79.842 21.546 79.296 21C78.708 20.496 77.994 20.244 77.196 20.328C75.81 20.454 74.76 21.714 74.76 23.142V27.426C74.718 30.408 72.324 32.802 69.342 32.802Z" fill="white"/>
<path d="M53.55 189.756L2.09998 207.9V104.706L53.55 86.562V189.756Z" fill="#B4EEB2"/>
<path d="M53.55 189.756L105 207.9V104.706L53.55 86.562V189.756Z" fill="#B4EEB2"/>
<path d="M156.45 189.756L105 207.9V104.706L156.45 86.562V189.756Z" fill="#B4EEB2"/>
<path d="M84.672 125.076V130.41C84.672 132.09 86.058 133.476 87.738 133.476H105V104.706L91.938 100.086V109.074C87.486 112.98 84.672 118.734 84.672 125.076Z" fill="#C6FCE5"/>
<path d="M105 133.476H124.026C125.706 133.476 127.092 132.09 127.092 130.41V125.076C127.092 118.692 124.278 112.98 119.826 109.116V99.498L105 104.706V133.476Z" fill="#C6FCE5"/>
<path d="M156.45 189.756L207.9 207.9V104.706L156.45 86.562V189.756Z" fill="#B4EEB2"/>
<path d="M2.1 210C1.68 210 1.26 209.874 0.882 209.622C0.336 209.202 0 208.572 0 207.9V104.706C0 103.824 0.546 103.026 1.386 102.732L52.836 84.588C53.466 84.378 54.18 84.462 54.768 84.84C55.314 85.218 55.65 85.89 55.65 86.562V189.756C55.65 190.638 55.104 191.436 54.264 191.73L2.814 209.874C2.562 209.958 2.352 210 2.1 210ZM4.2 106.218V204.96L51.45 188.286V89.544L4.2 106.218Z" fill="#231F20"/>
<path d="M11.97 115.5C10.794 115.5 9.87 114.576 9.87 113.4V111.09C9.87 109.914 10.794 108.99 11.97 108.99C13.146 108.99 14.07 109.914 14.07 111.09V113.4C14.07 114.576 13.146 115.5 11.97 115.5Z" fill="#C6FCE5"/>
<path d="M11.97 197.4C10.794 197.4 9.87 196.476 9.87 195.3V121.38C9.87 120.204 10.794 119.28 11.97 119.28C13.146 119.28 14.07 120.204 14.07 121.38V195.3C14.07 196.476 13.146 197.4 11.97 197.4Z" fill="#C6FCE5"/>
<path d="M105 210C104.748 210 104.538 209.958 104.286 209.874L52.836 191.73C51.996 191.436 51.45 190.638 51.45 189.756V86.562C51.45 85.89 51.786 85.26 52.332 84.84C52.878 84.462 53.5919 84.336 54.264 84.588L105.714 102.732C106.554 103.026 107.1 103.824 107.1 104.706V169.932C107.1 171.108 106.176 172.032 105 172.032C103.824 172.032 102.9 171.108 102.9 169.932V106.218L55.65 89.544V188.286L102.9 204.918V195.132C102.9 193.956 103.824 193.032 105 193.032C106.176 193.032 107.1 193.956 107.1 195.132V207.9C107.1 208.572 106.764 209.202 106.218 209.622C105.84 209.874 105.42 210 105 210Z" fill="#231F20"/>
<path d="M105 210C104.58 210 104.16 209.874 103.782 209.622C103.236 209.244 102.9 208.572 102.9 207.9V195.174C102.9 193.998 103.824 193.074 105 193.074C106.176 193.074 107.1 193.998 107.1 195.174V204.96L154.35 188.286V89.544L107.1 106.218V169.974C107.1 171.15 106.176 172.074 105 172.074C103.824 172.074 102.9 171.15 102.9 169.974V104.706C102.9 103.824 103.446 103.026 104.286 102.732L155.736 84.588C156.366 84.378 157.08 84.462 157.668 84.84C158.214 85.218 158.55 85.89 158.55 86.562V189.756C158.55 190.638 158.004 191.436 157.164 191.73L105.714 209.874C105.462 209.958 105.252 210 105 210Z" fill="#231F20"/>
<path d="M207.9 210C207.648 210 207.438 209.958 207.186 209.874L155.736 191.73C154.896 191.436 154.35 190.638 154.35 189.756V86.562C154.35 85.89 154.686 85.26 155.232 84.84C155.778 84.462 156.492 84.336 157.164 84.588L208.614 102.732C209.454 103.026 210 103.824 210 104.706V207.9C210 208.572 209.664 209.202 209.118 209.622C208.74 209.874 208.32 210 207.9 210ZM158.55 188.244L205.8 204.918V106.218L158.55 89.544V188.244Z" fill="#231F20"/>
<path d="M105 189.546C103.824 189.546 102.9 188.622 102.9 187.446V185.64C102.9 184.464 103.824 183.54 105 183.54C106.176 183.54 107.1 184.464 107.1 185.64V187.446C107.1 188.622 106.176 189.546 105 189.546Z" fill="#231F20"/>
<path d="M179.508 54.894H100.338V7.55998C100.338 4.53598 102.774 2.09998 105.798 2.09998H179.466C182.616 2.09998 183.96 6.08998 181.482 8.02198L154.854 28.518L181.482 49.014C184.002 50.904 182.658 54.894 179.508 54.894Z" fill="#FDA568"/>
<path d="M153.636 4.2H152.46C151.284 4.2 150.36 3.276 150.36 2.1C150.36 0.924 151.284 0 152.46 0H153.636C154.812 0 155.736 0.924 155.736 2.1C155.736 3.276 154.812 4.2 153.636 4.2Z" fill="#231F20"/>
<path d="M179.508 56.994H100.338C99.162 56.994 98.238 56.07 98.238 54.894V7.56002C98.238 3.40202 101.64 1.56236e-05 105.798 1.56236e-05H144.228C145.404 1.56236e-05 146.328 0.924016 146.328 2.10002C146.328 3.27602 145.404 4.20002 144.228 4.20002H105.84C103.992 4.20002 102.48 5.71202 102.48 7.56002V52.752H179.55C180.306 52.752 180.6 52.164 180.684 51.954C180.768 51.702 180.894 51.072 180.264 50.61L153.636 30.114C153.132 29.736 152.796 29.106 152.796 28.434C152.796 27.762 153.09 27.174 153.636 26.754L180.264 6.25802C180.894 5.79602 180.768 5.16602 180.684 4.91402C180.6 4.66202 180.306 4.11602 179.55 4.11602H161.28C160.104 4.11602 159.18 3.19202 159.18 2.01602C159.18 0.840016 160.104 -0.0839844 161.28 -0.0839844H179.508C181.86 -0.0839844 183.876 1.34402 184.632 3.57002C185.388 5.79602 184.674 8.14802 182.826 9.57602L158.34 28.476L182.784 47.292C184.632 48.72 185.346 51.072 184.59 53.298C183.834 55.524 181.86 56.994 179.508 56.994Z" fill="#231F20"/>
<path d="M108.738 13.86C107.562 13.86 106.638 12.936 106.638 11.76V10.5C106.638 9.32402 107.562 8.40002 108.738 8.40002C109.914 8.40002 110.838 9.32402 110.838 10.5V11.76C110.838 12.936 109.914 13.86 108.738 13.86Z" fill="#FFEDCC"/>
<path d="M108.738 48.594C107.562 48.594 106.638 47.67 106.638 46.494V19.026C106.638 17.85 107.562 16.926 108.738 16.926C109.914 16.926 110.838 17.85 110.838 19.026V46.494C110.838 47.628 109.914 48.594 108.738 48.594Z" fill="#FFEDCC"/>
<path d="M111.342 54.894H100.338V113.484H111.342V54.894Z" fill="#C9C9C9"/>
<path d="M111.384 115.542H100.38C99.204 115.542 98.28 114.618 98.28 113.442V54.8939C98.28 53.7179 99.204 52.7939 100.38 52.7939H111.384C112.56 52.7939 113.484 53.7179 113.484 54.8939V113.484C113.484 114.618 112.518 115.542 111.384 115.542ZM102.438 111.342H109.242V56.9939H102.438V111.342Z" fill="#231F20"/>
<path d="M93.072 125.076C93.072 118.02 98.784 112.266 105.882 112.266C112.98 112.266 118.692 117.978 118.692 125.076H93.072Z" fill="#C9C9C9"/>
<path d="M118.65 127.176H93.072C91.896 127.176 90.972 126.252 90.972 125.076C90.972 116.844 97.65 110.166 105.882 110.166C114.114 110.166 120.792 116.844 120.792 125.076C120.75 126.252 119.826 127.176 118.65 127.176ZM95.382 122.976H116.382C115.416 118.062 111.09 114.366 105.882 114.366C100.674 114.366 96.348 118.104 95.382 122.976Z" fill="#231F20"/>
<path d="M154.896 30.576H141.582C140.406 30.576 139.482 29.652 139.482 28.476C139.482 27.3 140.406 26.376 141.582 26.376H154.896C156.072 26.376 156.996 27.3 156.996 28.476C156.996 29.652 156.072 30.576 154.896 30.576Z" fill="#231F20"/>
<path d="M133.14 30.576H132.09C130.914 30.576 129.99 29.652 129.99 28.476C129.99 27.3 130.914 26.376 132.09 26.376H133.14C134.316 26.376 135.24 27.3 135.24 28.476C135.24 29.652 134.316 30.576 133.14 30.576Z" fill="#231F20"/>
<path d="M27.636 76.734C22.176 76.734 17.724 81.186 17.724 86.646C17.724 92.106 22.176 96.558 27.636 96.558H67.704C73.164 96.558 77.616 92.106 77.616 86.646C77.616 81.186 73.164 76.734 67.704 76.734H67.494C67.494 72.744 64.26 69.552 60.312 69.552C56.322 69.552 53.13 72.786 53.13 76.734C53.13 69.804 47.544 64.218 40.614 64.218C33.684 64.218 28.098 69.804 28.098 76.734H27.636Z" fill="#B2EAEE"/>
<path d="M67.704 98.658H27.636C21 98.658 15.624 93.282 15.624 86.646C15.624 80.514 20.202 75.474 26.124 74.718C27.09 67.62 33.222 62.118 40.614 62.118C46.326 62.118 51.282 65.436 53.676 70.224C55.356 68.502 57.708 67.452 60.312 67.452C64.764 67.452 68.46 70.602 69.384 74.76C75.222 75.558 79.716 80.598 79.716 86.646C79.716 93.24 74.34 98.658 67.704 98.658ZM27.636 78.834C23.31 78.834 19.824 82.32 19.824 86.646C19.824 90.972 23.31 94.458 27.636 94.458H67.704C72.03 94.458 75.516 90.972 75.516 86.646C75.516 82.32 72.03 78.834 67.704 78.834H67.494C66.318 78.834 65.394 77.91 65.394 76.734C65.394 73.92 63.126 71.652 60.312 71.652C57.498 71.652 55.23 73.92 55.23 76.734C55.23 77.91 54.306 78.834 53.13 78.834C51.954 78.834 51.03 77.91 51.03 76.734C51.03 70.98 46.368 66.318 40.614 66.318C34.86 66.318 30.198 70.98 30.198 76.734C30.198 77.91 29.274 78.834 28.098 78.834H27.636Z" fill="#231F20"/>
<path d="M32.508 86.52H27.636C26.46 86.52 25.536 85.596 25.536 84.42C25.536 83.244 26.46 82.32 27.636 82.32H32.508C33.18 82.32 33.726 81.774 33.726 81.102V76.86C33.726 73.248 36.456 70.182 39.984 69.846C41.916 69.678 43.848 70.308 45.276 71.61C46.704 72.912 47.544 74.76 47.544 76.734C47.544 77.91 46.62 78.834 45.444 78.834C44.268 78.834 43.344 77.91 43.344 76.734C43.344 75.978 43.008 75.264 42.462 74.718C41.874 74.214 41.16 73.962 40.362 74.046C38.976 74.172 37.926 75.432 37.926 76.86V81.144C37.884 84.084 35.49 86.52 32.508 86.52Z" fill="white"/>
</g>
<defs>
<clipPath id="clip0_33_1118">
<rect width="210" height="210" fill="white"/>
</clipPath>
</defs>
</svg>
