<svg width="210" height="210" viewBox="0 0 210 210" fill="none" xmlns="http://www.w3.org/2000/svg">
<path d="M204.395 89.6684C204.264 97.2382 198.058 103.4 190.392 103.4H183.879C192.703 103.4 198.629 111.04 197.808 118.83C197.045 125.885 190.786 131.398 183.518 131.398H177.366C185.072 131.398 191.271 137.604 191.367 145.222C191.465 153.017 184.802 159.394 177.007 159.394H170.853C178.634 159.394 184.937 165.747 184.856 173.536C184.737 181.502 178.297 187.4 170.853 187.4H92.4287C88.0909 187.4 83.9295 185.682 80.8549 182.621L72.8191 174.623C69.7446 171.563 65.5832 169.845 61.2454 169.845H40.1149V75.4031H79.0264C92.6182 75.4031 103.636 64.3855 103.636 50.7937V27.3328C103.636 24.8784 105.602 22.5996 108.41 22.5996C121.114 22.5996 131.641 32.92 131.641 45.8637V75.4031H190.023C197.824 75.4031 204.524 81.7679 204.395 89.6684Z" fill="#FFCDBD"/>
<path d="M114.468 45.4166H103.636V29.8307H106.265C110.796 29.8307 114.468 33.5032 114.468 38.0338V45.4166Z" fill="#EFEFEF"/>
<path d="M53.5311 75.4031H26.6987V169.846H53.5311V75.4031Z" fill="#EA8F7C"/>
<path d="M43.6874 180.086H9.70758C7.4427 180.086 5.60602 178.25 5.60602 175.985V69.2622C5.60602 66.9973 7.4427 65.1606 9.70758 65.1606H43.6882C45.9531 65.1606 47.7898 66.9973 47.7898 69.2622V175.985C47.7889 178.251 45.9531 180.086 43.6874 180.086Z" fill="#B4EEB2"/>
<path d="M26.6971 100.112C31.9637 100.112 36.2332 95.8422 36.2332 90.5756C36.2332 85.3089 31.9637 81.0394 26.6971 81.0394C21.4304 81.0394 17.1609 85.3089 17.1609 90.5756C17.1609 95.8422 21.4304 100.112 26.6971 100.112Z" fill="#EFEFEF"/>
<path d="M9.70676 182.137H43.6874C47.0802 182.137 49.8397 179.378 49.8397 175.985V171.896H61.2413C65.0647 171.896 68.661 173.38 71.3688 176.074L79.4087 184.081C82.8909 187.545 87.515 189.452 92.4295 189.452H170.851C179.716 189.452 186.767 182.475 186.905 173.559C186.957 168.559 184.734 164.008 180.988 160.948C188.139 159.143 193.513 152.75 193.418 145.194C193.354 140.273 191.043 135.869 187.474 132.96C193.981 131.33 199.116 125.801 199.847 119.045C200.414 113.657 198.191 108.39 194.138 105.005C201.07 103.326 206.317 97.102 206.445 89.7028C206.596 80.6375 198.951 73.3573 190.03 73.3532C190.028 73.3532 190.026 73.3532 190.026 73.3532H173.62C172.488 73.3532 171.569 74.2719 171.569 75.4039C171.569 76.536 172.488 77.4547 173.62 77.4547H190.023C196.612 77.4547 202.457 82.8229 202.345 89.6339C202.232 96.0947 196.871 101.35 190.393 101.35C189.518 101.35 161.81 101.351 160.693 101.351C159.561 101.351 158.643 102.269 158.643 103.402C158.643 104.535 159.561 105.453 160.693 105.453H183.883C183.885 105.453 183.888 105.452 183.889 105.452C191.43 105.458 196.469 111.97 195.77 118.61C195.119 124.631 189.737 129.347 183.519 129.347H177.366C177.36 129.347 177.353 129.349 177.347 129.349H160.694C159.561 129.349 158.644 130.266 158.644 131.399C158.644 132.532 159.561 133.45 160.694 133.45H177.37C177.374 133.45 177.378 133.449 177.382 133.449C183.881 133.457 189.235 138.746 189.319 145.245C189.404 151.97 183.593 157.344 177.006 157.344C173.701 157.344 170.539 157.347 160.694 157.347C159.561 157.347 158.644 158.265 158.644 159.398C158.644 160.531 159.561 161.449 160.694 161.449H170.919C177.561 161.484 182.875 166.91 182.806 173.505C182.703 180.147 177.452 185.35 170.853 185.35H92.4312C88.6085 185.35 85.0114 183.866 82.3036 181.173L74.2637 173.166C70.7815 169.701 66.1574 167.794 61.2421 167.794H49.8397V77.4539H79.0264C93.7264 77.4539 105.687 65.4937 105.687 50.7937V47.4674H114.468C115.601 47.4674 116.519 46.5495 116.519 45.4166V38.0338C116.519 32.8757 112.608 27.7799 105.687 27.7799C105.687 25.602 107.014 24.6504 108.41 24.6504C120.089 24.6504 129.591 34.1668 129.591 45.8637V73.3523H123.86C122.727 73.3523 121.809 74.2703 121.809 75.4031C121.809 76.536 122.727 77.4539 123.86 77.4539C136.671 77.4539 144.498 77.4539 157.215 77.4539C158.338 77.4539 159.265 76.5352 159.265 75.4031C159.265 74.2711 158.338 73.3523 157.215 73.3523H133.693V45.8637C133.693 31.9044 122.351 20.5488 108.411 20.5488C104.648 20.5488 101.586 23.5922 101.586 27.3328V50.7937C101.586 63.233 91.4665 73.3523 79.0273 73.3523H49.8405V69.2631C49.8405 65.8703 47.081 63.1107 43.6882 63.1107H9.70676C6.32461 63.1107 3.57328 65.8539 3.55605 69.2319C3.55605 69.2442 3.55277 69.2549 3.55277 69.2672V143.169C3.55277 144.301 4.47152 145.22 5.60355 145.22C6.73559 145.22 7.65434 144.301 7.65434 143.169V69.2828C7.65434 69.2762 7.65598 69.2696 7.65598 69.2631C7.65598 68.1327 8.57637 67.2123 9.70676 67.2123H43.6874C44.8178 67.2123 45.7382 68.1327 45.7382 69.2631V75.399C45.7382 75.4007 45.7382 75.4015 45.7382 75.4031C45.7382 75.4048 45.7382 75.4056 45.7382 75.4072V169.842C45.7382 169.843 45.7382 169.844 45.7382 169.846C45.7382 169.847 45.7382 169.848 45.7382 169.85V175.985C45.7382 177.115 44.8178 178.036 43.6874 178.036H9.70676C8.57637 178.036 7.65598 177.115 7.65598 175.985C7.65598 175.978 7.65434 175.972 7.65434 175.965V159.575C7.65434 158.452 6.73559 157.525 5.60355 157.525C4.47152 157.525 3.55277 158.452 3.55277 159.575V175.982C3.55277 175.994 3.55605 176.005 3.55605 176.018C3.5741 179.395 6.32543 182.137 9.70676 182.137ZM112.417 38.0338V43.3658H105.687V31.8814C110.169 31.8814 112.417 34.9683 112.417 38.0338Z" fill="black"/>
<path d="M38.2848 90.5756C38.2848 84.1861 33.0873 78.9886 26.6979 78.9886C20.3085 78.9886 15.111 84.1861 15.111 90.5756C15.111 96.965 20.3085 102.162 26.6979 102.162C33.0865 102.162 38.2848 96.965 38.2848 90.5756ZM19.2117 90.5756C19.2117 86.4477 22.5693 83.0902 26.6971 83.0902C30.8249 83.0902 34.1824 86.4477 34.1824 90.5756C34.1824 94.7034 30.8241 98.0609 26.6971 98.0609C22.5701 98.0609 19.2117 94.7034 19.2117 90.5756Z" fill="black"/>
<path d="M5.60355 153.423C6.73617 153.423 7.65434 152.505 7.65434 151.372C7.65434 150.24 6.73617 149.321 5.60355 149.321C4.47094 149.321 3.55277 150.24 3.55277 151.372C3.55277 152.505 4.47094 153.423 5.60355 153.423Z" fill="black"/>
<path d="M165.417 77.4539C166.549 77.4539 167.468 76.5357 167.468 75.4031C167.468 74.2705 166.549 73.3523 165.417 73.3523C164.284 73.3523 163.366 74.2705 163.366 75.4031C163.366 76.5357 164.284 77.4539 165.417 77.4539Z" fill="black"/>
<path d="M170.856 181.248H168.395C167.263 181.248 166.344 180.329 166.344 179.197C166.344 178.065 167.263 177.146 168.395 177.146H170.856C171.979 177.146 172.906 178.065 172.906 179.197C172.906 180.329 171.979 181.248 170.856 181.248ZM160.191 181.248H92.4254C91.2934 181.248 90.3746 180.329 90.3746 179.197C90.3746 178.065 91.2934 177.146 92.4254 177.146H160.191C161.315 177.146 162.242 178.065 162.242 179.197C162.242 180.329 161.315 181.248 160.191 181.248Z" fill="#FFF9F9"/>
<path d="M39.5891 173.931H37.1282C35.9961 173.931 35.0774 173.012 35.0774 171.888C35.0774 170.756 35.9961 169.829 37.1282 169.829H39.5891C40.7129 169.829 41.6399 170.756 41.6399 171.888C41.6399 173.012 40.7129 173.931 39.5891 173.931ZM28.925 173.931H13.8067C12.6648 173.931 11.7559 173.006 11.7559 171.888V105C11.7559 103.868 12.6746 102.949 13.8067 102.949C14.9387 102.949 15.8575 103.868 15.8575 105V169.829H28.925C30.0489 169.829 30.9758 170.756 30.9758 171.888C30.9758 173.012 30.0489 173.931 28.925 173.931Z" fill="#206A71"/>
</svg>
