<svg width="210" height="210" viewBox="0 0 210 210" fill="none" xmlns="http://www.w3.org/2000/svg">
<g clip-path="url(#clip0_33_1120)">
<path d="M207.9 159.138H2.09998V207.9H207.9V159.138Z" fill="#E7E7E7"/>
<path d="M207.9 161.238H31.794C30.618 161.238 29.694 160.314 29.694 159.138C29.694 157.962 30.618 157.038 31.794 157.038H207.9C209.076 157.038 210 157.962 210 159.138C210 160.314 209.076 161.238 207.9 161.238Z" fill="#231F20"/>
<path d="M207.9 210H2.1C0.924 210 0 209.076 0 207.9C0 206.724 0.924 205.8 2.1 205.8H207.9C209.076 205.8 210 206.724 210 207.9C210 209.076 209.076 210 207.9 210Z" fill="#231F20"/>
<path d="M207.9 210H2.1C0.924 210 0 209.076 0 207.9C0 206.724 0.924 205.8 2.1 205.8H207.9C209.076 205.8 210 206.724 210 207.9C210 209.076 209.076 210 207.9 210Z" fill="#231F20"/>
<path d="M187.404 135.744C187.194 135.072 187.068 134.358 187.068 133.602C187.068 129.78 190.176 126.672 193.998 126.672C197.82 126.672 200.928 129.78 200.928 133.602C200.928 134.358 200.802 135.072 200.592 135.744C203.7 136.416 206.01 139.188 206.01 142.506C206.01 146.328 202.902 149.436 199.08 149.436C197.064 149.436 195.258 148.596 193.998 147.21C192.738 148.596 190.932 149.436 188.916 149.436C185.094 149.436 181.986 146.328 181.986 142.506C181.944 139.188 184.296 136.416 187.404 135.744Z" fill="#B4EEB2"/>
<path d="M199.08 151.536C197.274 151.536 195.468 150.99 193.998 149.982C192.528 150.99 190.722 151.536 188.916 151.536C183.918 151.536 179.886 147.504 179.886 142.506C179.886 139.02 181.944 135.87 185.01 134.358C184.968 134.106 184.968 133.854 184.968 133.602C184.968 128.604 189 124.572 193.998 124.572C198.996 124.572 203.028 128.604 203.028 133.602C203.028 133.854 203.028 134.106 202.986 134.358C206.052 135.828 208.11 138.978 208.11 142.506C208.11 147.462 204.036 151.536 199.08 151.536ZM193.998 145.11C194.586 145.11 195.132 145.362 195.552 145.782C196.476 146.79 197.736 147.336 199.08 147.336C201.726 147.336 203.91 145.152 203.91 142.506C203.91 140.28 202.314 138.264 200.13 137.802C199.542 137.676 199.038 137.298 198.744 136.794C198.45 136.29 198.366 135.66 198.576 135.114C198.744 134.652 198.828 134.148 198.828 133.644C198.828 130.998 196.644 128.814 193.998 128.814C191.352 128.814 189.168 130.998 189.168 133.644C189.168 134.148 189.252 134.652 189.42 135.114C189.588 135.66 189.546 136.29 189.252 136.794C188.958 137.298 188.454 137.676 187.866 137.802C185.682 138.306 184.086 140.28 184.086 142.506C184.086 145.152 186.27 147.336 188.916 147.336C190.26 147.336 191.52 146.79 192.444 145.782C192.822 145.362 193.41 145.11 193.998 145.11Z" fill="#231F20"/>
<path d="M193.998 161.238C192.822 161.238 191.898 160.314 191.898 159.138V148.008C191.898 146.832 192.822 145.908 193.998 145.908C195.174 145.908 196.098 146.832 196.098 148.008V159.138C196.098 160.314 195.132 161.238 193.998 161.238Z" fill="#231F20"/>
<path d="M163.338 135.744C163.128 135.072 163.002 134.358 163.002 133.602C163.002 129.78 166.11 126.672 169.932 126.672C173.754 126.672 176.862 129.78 176.862 133.602C176.862 134.358 176.736 135.072 176.526 135.744C179.634 136.416 181.944 139.188 181.944 142.506C181.944 146.328 178.836 149.436 175.014 149.436C172.998 149.436 171.192 148.596 169.932 147.21C168.672 148.596 166.866 149.436 164.85 149.436C161.028 149.436 157.92 146.328 157.92 142.506C157.92 139.188 160.272 136.416 163.338 135.744Z" fill="#B4EEB2"/>
<path d="M175.014 151.536C173.208 151.536 171.402 150.99 169.932 149.982C168.462 150.99 166.656 151.536 164.85 151.536C159.852 151.536 155.82 147.504 155.82 142.506C155.82 139.02 157.878 135.87 160.944 134.358C160.902 134.106 160.902 133.854 160.902 133.602C160.902 128.604 164.934 124.572 169.932 124.572C174.93 124.572 178.962 128.604 178.962 133.602C178.962 133.854 178.962 134.106 178.92 134.358C181.986 135.828 184.044 138.978 184.044 142.506C184.044 147.462 180.012 151.536 175.014 151.536ZM169.932 145.11C170.52 145.11 171.066 145.362 171.486 145.782C172.41 146.79 173.67 147.336 175.014 147.336C177.66 147.336 179.844 145.152 179.844 142.506C179.844 140.28 178.248 138.264 176.064 137.802C175.476 137.676 174.972 137.298 174.678 136.794C174.384 136.29 174.3 135.66 174.51 135.114C174.678 134.652 174.762 134.148 174.762 133.644C174.762 130.998 172.578 128.814 169.932 128.814C167.286 128.814 165.102 130.998 165.102 133.644C165.102 134.148 165.186 134.652 165.354 135.114C165.522 135.66 165.48 136.29 165.186 136.794C164.892 137.298 164.388 137.676 163.8 137.802C161.616 138.306 160.02 140.28 160.02 142.506C160.02 145.152 162.204 147.336 164.85 147.336C166.194 147.336 167.454 146.79 168.378 145.782C168.798 145.362 169.344 145.11 169.932 145.11Z" fill="#231F20"/>
<path d="M169.932 161.238C168.756 161.238 167.832 160.314 167.832 159.138V148.008C167.832 146.832 168.756 145.908 169.932 145.908C171.108 145.908 172.032 146.832 172.032 148.008V159.138C172.032 160.314 171.108 161.238 169.932 161.238Z" fill="#231F20"/>
<path d="M2.09998 171.402H171.906C175.392 171.402 178.206 168.588 178.206 165.102V156.912C178.206 149.016 171.822 142.632 163.926 142.632H137.088L113.148 118.692C108.318 113.862 101.766 111.132 94.92 111.132H46.032H19.614C16.842 111.132 14.154 112.224 12.18 114.198L2.09998 124.32V171.402Z" fill="#F49C9C"/>
<path d="M139.02 130.41H135.156C131.796 130.41 129.024 133.14 129.024 136.542C129.024 139.902 131.754 142.674 135.156 142.674H139.02C142.38 142.674 145.152 139.944 145.152 136.542C145.11 133.14 142.38 130.41 139.02 130.41Z" fill="#F49C9C"/>
<path d="M139.02 144.732H135.156C130.62 144.732 126.924 141.036 126.924 136.5C126.924 131.964 130.62 128.268 135.156 128.268H139.02C143.556 128.268 147.252 131.964 147.252 136.5C147.252 141.036 143.514 144.732 139.02 144.732ZM135.114 132.51C132.888 132.51 131.082 134.316 131.082 136.542C131.082 138.768 132.888 140.574 135.114 140.574H138.978C141.204 140.574 143.01 138.768 143.01 136.542C143.01 134.316 141.204 132.51 138.978 132.51H135.114Z" fill="#231F20"/>
<path d="M149.94 186.228C158.128 186.228 164.766 179.59 164.766 171.402C164.766 163.214 158.128 156.576 149.94 156.576C141.752 156.576 135.114 163.214 135.114 171.402C135.114 179.59 141.752 186.228 149.94 186.228Z" fill="#585858"/>
<path d="M149.94 188.328C140.616 188.328 133.014 180.726 133.014 171.402C133.014 162.078 140.616 154.476 149.94 154.476C159.264 154.476 166.866 162.078 166.866 171.402C166.866 180.726 159.264 188.328 149.94 188.328ZM149.94 158.676C142.926 158.676 137.214 164.388 137.214 171.402C137.214 178.416 142.926 184.128 149.94 184.128C156.954 184.128 162.666 178.416 162.666 171.402C162.666 164.388 156.954 158.676 149.94 158.676Z" fill="#231F20"/>
<path d="M137.046 142.632L113.106 118.692C108.276 113.862 101.724 111.132 94.878 111.132H46.032L70.14 135.24C74.844 139.944 81.27 142.632 87.948 142.632H137.046Z" fill="#B2EAEE"/>
<path d="M116.802 136.332C116.256 136.332 115.71 136.122 115.332 135.702L105.756 126.126C102.858 123.228 99.036 121.632 94.962 121.632H78.246C77.07 121.632 76.146 120.708 76.146 119.532C76.146 118.356 77.07 117.432 78.246 117.432H94.92C100.128 117.432 105 119.448 108.696 123.144L118.272 132.72C119.112 133.56 119.112 134.862 118.272 135.702C117.852 136.122 117.306 136.332 116.802 136.332Z" fill="#EDF9FF"/>
<path d="M68.586 121.674H66.318C65.142 121.674 64.218 120.75 64.218 119.574C64.218 118.398 65.142 117.474 66.318 117.474H68.586C69.762 117.474 70.686 118.398 70.686 119.574C70.686 120.75 69.762 121.674 68.586 121.674Z" fill="#EDF9FF"/>
<path d="M149.94 176.022C152.492 176.022 154.56 173.954 154.56 171.402C154.56 168.85 152.492 166.782 149.94 166.782C147.388 166.782 145.32 168.85 145.32 171.402C145.32 173.954 147.388 176.022 149.94 176.022Z" fill="#231F20"/>
<path d="M137.046 144.732H87.948C80.64 144.732 73.794 141.876 68.67 136.752L44.562 112.644C43.974 112.056 43.764 111.132 44.1 110.376C44.436 109.578 45.192 109.074 46.032 109.074H94.92C102.354 109.074 109.368 111.972 114.618 117.222L138.558 141.162C139.146 141.75 139.356 142.674 139.02 143.43C138.684 144.228 137.928 144.732 137.046 144.732ZM51.114 113.274L71.652 133.812C76.02 138.18 81.816 140.574 87.99 140.574H132.048L111.72 120.246C107.226 115.752 101.304 113.316 94.962 113.316H51.114V113.274Z" fill="#231F20"/>
<path d="M171.906 173.502H2.1C0.924 173.502 0 172.578 0 171.402C0 170.226 0.924 169.302 2.1 169.302H171.906C174.216 169.302 176.106 167.412 176.106 165.102V156.912C176.106 150.192 170.646 144.732 163.926 144.732H137.088C136.542 144.732 135.996 144.522 135.618 144.102L111.678 120.162C107.184 115.668 101.262 113.232 94.92 113.232H19.614C17.388 113.232 15.246 114.114 13.692 115.71L3.612 125.79C2.772 126.63 1.47 126.63 0.63 125.79C-0.21 124.95 -0.21 123.648 0.63 122.808L10.71 112.728C13.104 110.334 16.254 109.032 19.614 109.032H94.92C102.354 109.032 109.368 111.93 114.618 117.18L137.928 140.49H163.926C172.956 140.49 180.306 147.84 180.306 156.87V165.06C180.306 169.722 176.526 173.502 171.906 173.502Z" fill="#231F20"/>
<path d="M161.742 171.402H134.274C130.788 171.402 127.974 168.588 127.974 165.102V156.912C127.974 149.016 134.358 142.632 142.254 142.632H161.742H163.926C171.822 142.632 178.206 149.016 178.206 156.912V165.102C178.206 168.588 175.392 171.402 171.906 171.402H161.742Z" fill="#F49C9C"/>
<path d="M171.906 173.502H134.274C129.654 173.502 125.874 169.722 125.874 165.102V156.912C125.874 147.882 133.224 140.532 142.254 140.532H163.926C172.956 140.532 180.306 147.882 180.306 156.912V165.102C180.306 169.722 176.526 173.502 171.906 173.502ZM142.254 144.732C135.534 144.732 130.074 150.192 130.074 156.912V165.102C130.074 167.412 131.964 169.302 134.274 169.302H171.906C174.216 169.302 176.106 167.412 176.106 165.102V156.912C176.106 150.192 170.646 144.732 163.926 144.732H142.254Z" fill="#231F20"/>
<path d="M103.068 186.228C111.256 186.228 117.894 179.59 117.894 171.402C117.894 163.214 111.256 156.576 103.068 156.576C94.8798 156.576 88.242 163.214 88.242 171.402C88.242 179.59 94.8798 186.228 103.068 186.228Z" fill="#585858"/>
<path d="M103.068 188.328C93.744 188.328 86.142 180.726 86.142 171.402C86.142 162.078 93.744 154.476 103.068 154.476C112.392 154.476 119.994 162.078 119.994 171.402C119.994 180.726 112.392 188.328 103.068 188.328ZM103.068 158.676C96.054 158.676 90.342 164.388 90.342 171.402C90.342 178.416 96.054 184.128 103.068 184.128C110.082 184.128 115.794 178.416 115.794 171.402C115.794 164.388 110.082 158.676 103.068 158.676Z" fill="#231F20"/>
<path d="M103.068 176.022C105.62 176.022 107.688 173.954 107.688 171.402C107.688 168.85 105.62 166.782 103.068 166.782C100.516 166.782 98.448 168.85 98.448 171.402C98.448 173.954 100.516 176.022 103.068 176.022Z" fill="#A5A5A5"/>
<path d="M156.366 161.238H152.334C151.158 161.238 150.234 160.314 150.234 159.138C150.234 157.962 151.158 157.038 152.334 157.038H156.366C157.542 157.038 158.466 157.962 158.466 159.138C158.466 160.314 157.542 161.238 156.366 161.238Z" fill="#231F20"/>
<path d="M134.316 159.138H127.974V165.06C127.974 168.546 130.788 171.36 134.274 171.36H140.574V165.396C140.574 161.952 137.802 159.138 134.316 159.138Z" fill="#FDA568"/>
<path d="M140.574 173.502H134.274C129.654 173.502 125.874 169.722 125.874 165.102V159.18C125.874 158.004 126.798 157.08 127.974 157.08H134.316C138.936 157.08 142.674 160.818 142.674 165.438V171.402C142.674 172.536 141.75 173.502 140.574 173.502ZM130.074 161.238V165.06C130.074 167.37 131.964 169.26 134.274 169.26H138.474V165.396C138.474 163.086 136.584 161.238 134.316 161.238H130.074Z" fill="#231F20"/>
<path d="M178.206 165.102V159.18H173.418C169.974 159.18 167.16 161.994 167.16 165.438V171.402H171.906C175.392 171.402 178.206 168.588 178.206 165.102Z" fill="#FDA568"/>
<path d="M171.906 173.502H167.16C165.984 173.502 165.06 172.578 165.06 171.402V165.438C165.06 160.818 168.798 157.08 173.418 157.08H178.206C179.382 157.08 180.306 158.004 180.306 159.18V165.102C180.306 169.722 176.526 173.502 171.906 173.502ZM169.26 169.302H171.906C174.216 169.302 176.106 167.412 176.106 165.102V161.28H173.418C171.108 161.28 169.26 163.17 169.26 165.438V169.302Z" fill="#231F20"/>
<path d="M2.09998 142.632H70.98L70.434 135.534L46.032 111.174H19.614C16.842 111.174 14.154 112.266 12.18 114.24L2.09998 124.32" fill="#B2EAEE"/>
<path d="M8.022 132.384C7.476 132.384 6.93 132.174 6.552 131.754C5.712 130.914 5.712 129.612 6.552 128.772L16.632 118.692C17.43 117.894 18.48 117.474 19.614 117.474H42.546C43.092 117.474 43.638 117.684 44.016 118.104L52.458 126.546C53.298 127.386 53.298 128.688 52.458 129.528C51.618 130.368 50.316 130.368 49.476 129.528L41.664 121.716H19.614L9.534 131.796C9.114 132.174 8.568 132.384 8.022 132.384Z" fill="#EDF9FF"/>
<path d="M57.246 136.332C56.7 136.332 56.154 136.122 55.776 135.702L54.894 134.82C54.054 133.98 54.054 132.678 54.894 131.838C55.734 130.998 57.036 130.998 57.876 131.838L58.758 132.72C59.598 133.56 59.598 134.862 58.758 135.702C58.338 136.122 57.792 136.332 57.246 136.332Z" fill="#EDF9FF"/>
<path d="M70.98 144.732H2.1C0.924 144.732 0 143.808 0 142.632C0 141.456 0.924 140.532 2.1 140.532H68.712L68.418 136.458L45.192 113.232H19.614C17.388 113.232 15.246 114.114 13.692 115.71L3.612 125.79C2.772 126.63 1.47 126.63 0.63 125.79C-0.21 124.95 -0.21 123.648 0.63 122.808L10.71 112.728C13.104 110.334 16.254 109.032 19.614 109.032H46.032C46.578 109.032 47.124 109.242 47.502 109.662L71.904 134.022C72.24 134.358 72.492 134.862 72.534 135.366L73.08 142.464C73.122 143.052 72.912 143.64 72.534 144.06C72.156 144.48 71.568 144.732 70.98 144.732Z" fill="#231F20"/>
<path d="M78.162 154.602C76.986 154.602 76.062 153.678 76.062 152.502V142.632C76.062 141.456 76.986 140.532 78.162 140.532C79.338 140.532 80.262 141.456 80.262 142.632V152.502C80.262 153.678 79.338 154.602 78.162 154.602Z" fill="#231F20"/>
<path d="M78.162 171.318C76.986 171.318 76.062 170.394 76.062 169.218V161.952C76.062 160.776 76.986 159.852 78.162 159.852C79.338 159.852 80.262 160.776 80.262 161.952V169.218C80.262 170.394 79.338 171.318 78.162 171.318Z" fill="#231F20"/>
<path d="M72.912 130.41H69.048C65.688 130.41 62.916 133.14 62.916 136.542C62.916 139.902 65.646 142.674 69.048 142.674H72.912C76.272 142.674 79.044 139.944 79.044 136.542C79.002 133.14 76.272 130.41 72.912 130.41Z" fill="#F49C9C"/>
<path d="M72.912 144.732H69.048C64.512 144.732 60.816 141.036 60.816 136.5C60.816 131.964 64.512 128.268 69.048 128.268H72.912C77.448 128.268 81.144 131.964 81.144 136.5C81.144 141.036 77.448 144.732 72.912 144.732ZM69.048 132.51C66.822 132.51 65.016 134.316 65.016 136.542C65.016 138.768 66.822 140.574 69.048 140.574H72.912C75.138 140.574 76.944 138.768 76.944 136.542C76.944 134.316 75.138 132.51 72.912 132.51H69.048Z" fill="#231F20"/>
<path d="M36.54 144.732C35.364 144.732 34.44 143.808 34.44 142.632V111.132C34.44 109.956 35.364 109.032 36.54 109.032C37.716 109.032 38.64 109.956 38.64 111.132V142.632C38.64 143.808 37.674 144.732 36.54 144.732Z" fill="#231F20"/>
<path d="M25.452 186.228C33.6402 186.228 40.278 179.59 40.278 171.402C40.278 163.214 33.6402 156.576 25.452 156.576C17.2638 156.576 10.626 163.214 10.626 171.402C10.626 179.59 17.2638 186.228 25.452 186.228Z" fill="#585858"/>
<path d="M25.452 188.328C16.128 188.328 8.526 180.726 8.526 171.402C8.526 162.078 16.128 154.476 25.452 154.476C34.776 154.476 42.378 162.078 42.378 171.402C42.378 180.726 34.776 188.328 25.452 188.328ZM25.452 158.676C18.438 158.676 12.726 164.388 12.726 171.402C12.726 178.416 18.438 184.128 25.452 184.128C32.466 184.128 38.178 178.416 38.178 171.402C38.178 164.388 32.466 158.676 25.452 158.676Z" fill="#231F20"/>
<path d="M25.452 176.022C28.0035 176.022 30.072 173.954 30.072 171.402C30.072 168.85 28.0035 166.782 25.452 166.782C22.9004 166.782 20.832 168.85 20.832 171.402C20.832 173.954 22.9004 176.022 25.452 176.022Z" fill="#A5A5A5"/>
<path d="M67.452 153.594H65.982C64.806 153.594 63.882 152.67 63.882 151.494C63.882 150.318 64.806 149.394 65.982 149.394H67.452C68.628 149.394 69.552 150.318 69.552 151.494C69.552 152.67 68.628 153.594 67.452 153.594Z" fill="white"/>
<path d="M58.716 153.594H40.236C39.06 153.594 38.136 152.67 38.136 151.494C38.136 150.318 39.06 149.394 40.236 149.394H58.716C59.892 149.394 60.816 150.318 60.816 151.494C60.816 152.67 59.892 153.594 58.716 153.594Z" fill="white"/>
<path d="M88.914 153.594H86.52C85.344 153.594 84.42 152.67 84.42 151.494C84.42 150.318 85.344 149.394 86.52 149.394H88.914C90.09 149.394 91.014 150.318 91.014 151.494C91.014 152.67 90.048 153.594 88.914 153.594Z" fill="white"/>
<path d="M144.984 33.978C143.01 33.978 141.078 33.222 139.566 31.752C120.498 12.684 89.502 12.684 70.434 31.752C67.452 34.734 62.58 34.734 59.598 31.752C56.616 28.77 56.616 23.898 59.598 20.916C84.63 -4.11603 125.37 -4.11603 150.402 20.916C153.384 23.898 153.384 28.77 150.402 31.752C148.932 33.222 146.958 33.978 144.984 33.978Z" fill="#FDA568"/>
<path d="M129.99 63.756C128.016 63.756 126.084 63 124.572 61.53C119.364 56.322 112.392 53.424 105 53.424C97.608 53.424 90.678 56.322 85.428 61.53C82.446 64.512 77.574 64.512 74.592 61.53C71.61 58.548 71.61 53.676 74.592 50.694C82.698 42.588 93.534 38.094 105 38.094C116.466 38.094 127.302 42.588 135.408 50.694C138.39 53.676 138.39 58.548 135.408 61.53C133.896 63 131.964 63.756 129.99 63.756Z" fill="#FDA568"/>
<path d="M118.944 93.786C116.97 93.786 115.038 93.03 113.526 91.56C108.822 86.856 101.178 86.856 96.474 91.56C93.492 94.542 88.62 94.542 85.638 91.56C82.656 88.578 82.656 83.706 85.638 80.724C96.306 70.056 113.694 70.056 124.362 80.724C127.344 83.706 127.344 88.578 124.362 91.56C122.892 93.072 120.918 93.786 118.944 93.786Z" fill="#FDA568"/>
<path d="M78.792 9.74405C77.994 9.74405 77.238 9.28205 76.86 8.48405C76.398 7.43405 76.86 6.17405 77.91 5.71205C78.414 5.50205 78.876 5.29205 79.38 5.08205C80.43 4.62005 81.69 5.12405 82.11 6.21605C82.572 7.26605 82.068 8.52605 80.976 8.94605C80.514 9.15605 80.052 9.32405 79.632 9.53405C79.38 9.70205 79.086 9.74405 78.792 9.74405Z" fill="#231F20"/>
<path d="M144.984 36.078C142.38 36.078 139.902 35.07 138.096 33.222C119.868 14.994 90.174 14.994 71.946 33.222C68.124 37.044 61.95 37.044 58.128 33.222C56.28 31.374 55.272 28.938 55.272 26.334C55.272 23.73 56.28 21.252 58.128 19.446C61.32 16.254 64.848 13.398 68.586 10.92C69.552 10.29 70.854 10.542 71.484 11.508C72.114 12.474 71.862 13.776 70.896 14.406C67.368 16.716 64.092 19.404 61.11 22.386C60.06 23.436 59.472 24.822 59.472 26.334C59.472 27.846 60.06 29.232 61.11 30.282C63.294 32.466 66.822 32.466 69.006 30.282C88.872 10.416 121.212 10.416 141.12 30.282C142.17 31.332 143.556 31.92 145.068 31.92C146.58 31.92 147.966 31.332 149.016 30.282C150.066 29.232 150.654 27.846 150.654 26.334C150.654 24.822 150.066 23.436 149.016 22.386C133.14 6.59403 109.956 0.504025 88.368 6.46803C87.234 6.76203 86.1 6.13203 85.764 4.99802C85.47 3.86402 86.1 2.73002 87.234 2.39402C110.25 -3.94798 135.03 2.56203 151.872 19.404C153.72 21.252 154.728 23.688 154.728 26.292C154.728 28.896 153.72 31.374 151.872 33.18C150.066 35.07 147.588 36.078 144.984 36.078Z" fill="#231F20"/>
<path d="M129.99 65.856C127.386 65.856 124.908 64.848 123.102 63C118.272 58.17 111.846 55.524 105.042 55.524C98.238 55.524 91.812 58.17 86.982 63C83.16 66.822 76.986 66.822 73.164 63C69.342 59.178 69.342 53.004 73.164 49.182C81.69 40.656 93.03 35.952 105.042 35.952C117.096 35.952 128.436 40.656 136.92 49.182C138.768 51.03 139.776 53.466 139.776 56.07C139.776 58.674 138.768 61.152 136.92 62.958C135.03 64.848 132.594 65.856 129.99 65.856ZM105 51.324C112.938 51.324 120.414 54.432 126.042 60.06C127.092 61.11 128.478 61.698 129.99 61.698C131.502 61.698 132.888 61.11 133.938 60.06C134.988 59.01 135.576 57.624 135.576 56.112C135.576 54.6 134.988 53.214 133.938 52.164C126.21 44.436 115.92 40.152 105 40.152C94.08 40.152 83.79 44.394 76.062 52.122C73.878 54.306 73.878 57.834 76.062 60.018C78.246 62.202 81.774 62.202 83.958 60.018C89.586 54.39 97.062 51.324 105 51.324Z" fill="#231F20"/>
<path d="M118.944 95.8861C116.34 95.8861 113.862 94.878 112.056 93.03C110.166 91.14 107.688 90.1321 105 90.1321C102.312 90.1321 99.834 91.182 97.944 93.03C94.122 96.852 87.948 96.852 84.126 93.03C80.304 89.208 80.304 83.0341 84.126 79.2121C89.67 73.6681 97.104 70.6021 105 70.6021C112.896 70.6021 120.288 73.6681 125.874 79.2121C127.722 81.0601 128.73 83.496 128.73 86.1C128.73 88.704 127.722 91.182 125.874 92.988C124.026 94.878 121.548 95.8861 118.944 95.8861ZM105 85.9321C108.78 85.9321 112.35 87.402 114.996 90.09C116.046 91.14 117.432 91.728 118.944 91.728C120.456 91.728 121.842 91.14 122.892 90.09C123.942 89.04 124.53 87.6541 124.53 86.1421C124.53 84.6301 123.942 83.244 122.892 82.194C118.104 77.406 111.762 74.8021 105 74.8021C98.238 74.8021 91.896 77.448 87.108 82.194C84.924 84.378 84.924 87.906 87.108 90.09C89.292 92.274 92.82 92.274 95.004 90.09C97.65 87.402 101.22 85.9321 105 85.9321Z" fill="#231F20"/>
</g>
<defs>
<clipPath id="clip0_33_1120">
<rect width="210" height="210" fill="white"/>
</clipPath>
</defs>
</svg>
