<svg width="25" height="24" viewBox="0 0 25 24" fill="none" xmlns="http://www.w3.org/2000/svg">
<path fill-rule="evenodd" clip-rule="evenodd" d="M11.4481 1.25H13.5521C14.4501 1.25 15.2001 1.25 15.7941 1.33C16.4221 1.414 16.9891 1.6 17.4441 2.055C17.9001 2.511 18.0861 3.078 18.1701 3.705C18.2501 4.3 18.2501 5.05 18.2501 5.948V7.281L19.0901 7.739C19.6814 8.06163 20.1749 8.53759 20.5188 9.11687C20.8626 9.69616 21.0441 10.3574 21.0441 11.031V15.969C21.044 16.6427 20.8624 17.304 20.5183 17.8833C20.1743 18.4626 19.6806 18.9385 19.0891 19.261L14.2951 21.875C13.7444 22.1752 13.1272 22.3325 12.5001 22.3325C11.8729 22.3325 11.2557 22.1752 10.7051 21.875L5.91005 19.261C5.3187 18.9384 4.82517 18.4624 4.48133 17.8831C4.13749 17.3038 3.95604 16.6426 3.95605 15.969V11.03C3.9564 10.3567 4.13802 9.69591 4.48184 9.11701C4.82566 8.53812 5.319 8.06247 5.91005 7.74L6.75005 7.282V5.948C6.75005 5.05 6.75005 4.3 6.83005 3.706C6.91405 3.078 7.10005 2.511 7.55505 2.056C8.01105 1.6 8.57805 1.414 9.20505 1.33C9.80005 1.25 10.5491 1.25 11.4481 1.25ZM8.25005 6.463L10.7051 5.125C11.2557 4.82479 11.8729 4.66749 12.5001 4.66749C13.1272 4.66749 13.7444 4.82479 14.2951 5.125L16.7501 6.463V6C16.7501 5.036 16.7481 4.388 16.6831 3.905C16.6211 3.444 16.5141 3.246 16.3831 3.116C16.2531 2.986 16.0561 2.879 15.5941 2.816C15.1111 2.752 14.4641 2.75 13.5001 2.75H11.5001C10.5361 2.75 9.88805 2.752 9.40505 2.817C8.94405 2.879 8.74605 2.986 8.61505 3.117C8.48505 3.247 8.37805 3.444 8.31605 3.905C8.25105 4.388 8.25005 5.036 8.25005 6V6.463ZM13.5771 6.442C13.2467 6.26187 12.8764 6.16749 12.5001 6.16749C12.1237 6.16749 11.7535 6.26187 11.4231 6.442L6.62805 9.056C6.27335 9.24961 5.97733 9.53518 5.7711 9.88271C5.56487 10.2302 5.45604 10.6269 5.45605 11.031V15.969C5.45605 16.792 5.90605 17.55 6.62805 17.944L11.4231 20.558C11.7535 20.7381 12.1237 20.8325 12.5001 20.8325C12.8764 20.8325 13.2467 20.7381 13.5771 20.558L18.3711 17.944C18.726 17.7505 19.0222 17.465 19.2286 17.1175C19.435 16.7699 19.544 16.3732 19.5441 15.969V11.03C19.544 10.6258 19.435 10.2291 19.2286 9.88153C19.0222 9.534 18.726 9.24848 18.3711 9.055L13.5771 6.442ZM12.5001 11.535C12.4421 11.635 12.3771 11.751 12.3001 11.888L12.2021 12.064C12.1961 12.077 12.1881 12.09 12.1801 12.104C12.1021 12.248 11.9721 12.486 11.7551 12.651C11.5331 12.819 11.2671 12.877 11.1111 12.911L11.0681 12.921L10.8781 12.963C10.7021 13.003 10.5591 13.035 10.4381 13.066C10.5171 13.164 10.6201 13.285 10.7541 13.442L10.8841 13.594C10.8941 13.604 10.9041 13.616 10.9141 13.629C11.0221 13.753 11.1961 13.954 11.2771 14.213C11.3571 14.469 11.3291 14.733 11.3121 14.899C11.3103 14.9147 11.3086 14.9303 11.3071 14.946L11.2871 15.149C11.2721 15.3022 11.2581 15.4556 11.2451 15.609C11.3501 15.564 11.4681 15.509 11.6091 15.444L11.7881 15.362L11.8281 15.343C11.9711 15.275 12.2211 15.158 12.5001 15.158C12.7781 15.158 13.0281 15.275 13.1721 15.343L13.2121 15.362L13.3911 15.444C13.5311 15.509 13.6511 15.564 13.7541 15.609C13.7441 15.487 13.7311 15.337 13.7131 15.149L13.6931 14.946C13.6915 14.9303 13.6898 14.9147 13.6881 14.899C13.6711 14.733 13.6431 14.469 13.7231 14.213C13.8031 13.953 13.9781 13.753 14.0861 13.629L14.1161 13.594L14.2461 13.442C14.3801 13.285 14.4831 13.164 14.5621 13.066C14.4401 13.036 14.2981 13.003 14.1221 12.963L13.9321 12.92C13.9174 12.9166 13.9027 12.9132 13.8881 12.91C13.7331 12.877 13.4661 12.819 13.2451 12.65C13.0281 12.486 12.8981 12.248 12.8191 12.105C12.8117 12.0917 12.8044 12.0783 12.7971 12.065L12.6991 11.888C12.6339 11.7695 12.5672 11.6518 12.4991 11.535H12.5001ZM11.5131 10.3C11.6851 10.075 11.9981 9.75 12.5001 9.75C13.0021 9.75 13.3141 10.075 13.4861 10.3C13.6511 10.514 13.8161 10.811 13.9861 11.116L14.0091 11.158L14.1071 11.334L14.1641 11.434L14.2621 11.457L14.4531 11.5L14.5001 11.51C14.8281 11.585 15.1541 11.659 15.4041 11.757C15.6801 11.866 16.0541 12.077 16.1991 12.542C16.3411 12.998 16.1621 13.383 16.0051 13.632C15.8611 13.862 15.6411 14.118 15.4161 14.381L15.3861 14.417L15.2561 14.569L15.1731 14.666L15.1861 14.801L15.2061 15.004L15.2101 15.05C15.2441 15.402 15.2771 15.743 15.2651 16.015C15.2521 16.3 15.1841 16.732 14.7971 17.025C14.3971 17.329 13.9571 17.263 13.6771 17.183C13.4191 17.109 13.1141 16.968 12.8071 16.827C12.7924 16.8203 12.7777 16.8136 12.7631 16.807L12.5851 16.725L12.5001 16.685L12.4151 16.725L12.2361 16.807L12.1921 16.827C11.8851 16.968 11.5811 17.109 11.3231 17.183C11.0431 17.263 10.6031 17.329 10.2031 17.026C9.81605 16.732 9.74705 16.3 9.73505 16.015C9.72205 15.743 9.75505 15.402 9.79005 15.051L9.79405 15.004L9.81405 14.801C9.81906 14.745 9.82406 14.702 9.82606 14.666C9.79893 14.6335 9.7716 14.6012 9.74406 14.569L9.61406 14.417L9.58405 14.381C9.35805 14.118 9.13906 13.861 8.99406 13.631C8.83806 13.383 8.65905 12.998 8.80105 12.541C8.94505 12.078 9.31905 11.866 9.59605 11.757C9.84605 11.659 10.1711 11.585 10.4991 11.511L10.5461 11.501L10.7371 11.457L10.8361 11.434L10.8921 11.334L10.9911 11.158L11.0141 11.116C11.1841 10.811 11.3491 10.514 11.5141 10.3H11.5131Z" fill="#FDA568"/>
</svg>
