<svg width="210" height="210" viewBox="0 0 210 210" fill="none" xmlns="http://www.w3.org/2000/svg">
<path d="M39.6112 133.042H15.2734C11.2818 133.042 8.04562 129.806 8.04562 125.815V84.1854C8.04562 80.1938 11.2818 76.9576 15.2734 76.9576H39.6112V133.042Z" fill="white"/>
<path d="M39.6112 133.042L110.301 176.871V33.1292L39.6112 76.9576V133.042Z" fill="#F49C9C"/>
<path d="M122.367 187.622H117.528C113.536 187.622 110.3 184.386 110.3 180.394V29.6059C110.3 25.6143 113.536 22.3782 117.528 22.3782H122.367C126.358 22.3782 129.595 25.6143 129.595 29.6059V180.395C129.595 184.386 126.359 187.622 122.367 187.622Z" fill="white"/>
<path d="M182.923 105L199.94 87.9826C202.622 85.301 202.622 80.9542 199.94 78.2726L199.936 78.2677C197.254 75.5861 192.907 75.5861 190.226 78.2677L173.208 95.285L156.191 78.2677C153.509 75.5861 149.162 75.5861 146.481 78.2677L146.476 78.2726C143.794 80.9542 143.794 85.301 146.476 87.9826L163.494 105L146.477 122.017C143.795 124.699 143.795 129.046 146.477 131.727L146.482 131.732C149.163 134.414 153.51 134.414 156.192 131.732L173.209 114.715L190.226 131.732C192.908 134.414 197.255 134.414 199.936 131.732L199.941 131.727C202.623 129.046 202.623 124.699 199.941 122.017L182.923 105Z" fill="#F49C9C"/>
<path d="M129.591 162.906C130.724 162.906 131.642 161.988 131.642 160.855C131.642 159.722 130.724 158.804 129.591 158.804C128.459 158.804 127.541 159.722 127.541 160.855C127.541 161.988 128.459 162.906 129.591 162.906Z" fill="#0D2D30"/>
<path d="M62.58 65.1329C63.5398 64.534 63.8351 63.2708 63.2445 62.3028C62.6432 61.3356 61.3725 61.0477 60.4144 61.6465L39.0239 74.9069H15.2734C10.1571 74.9069 5.99484 79.0692 5.99484 84.1854V125.815C5.99484 130.931 10.1571 135.093 15.2734 135.093H39.028L108.251 178.013V180.395C108.251 185.511 112.413 189.674 117.529 189.674H122.368C127.483 189.674 131.646 185.511 131.646 180.395C131.646 180.384 131.643 180.374 131.643 180.363V169.058C131.643 167.926 130.724 167.007 129.592 167.007C128.46 167.007 127.541 167.926 127.541 169.058V180.395C127.541 180.402 127.544 180.409 127.544 180.416C127.532 183.261 125.215 185.572 122.368 185.572H117.53C114.676 185.572 112.353 183.25 112.353 180.395C112.353 177.813 112.353 38.6261 112.353 29.6068C112.353 26.7521 114.676 24.4298 117.53 24.4298H122.368C125.216 24.4298 127.532 26.7406 127.544 29.5854C127.544 29.5928 127.541 29.5994 127.541 29.6059V152.653C127.541 153.785 128.46 154.704 129.592 154.704C130.724 154.704 131.643 153.785 131.643 152.653V29.6379C131.643 29.6273 131.646 29.6166 131.646 29.6059C131.646 24.4897 127.484 20.3274 122.368 20.3274H117.529C112.414 20.3274 108.251 24.4897 108.251 29.6059V31.9881L74.3597 53.0004C73.3999 53.5911 73.1046 54.8626 73.6952 55.8223C74.2834 56.769 75.5278 57.084 76.5253 56.4868L108.25 36.8132V173.187L41.662 131.901V78.1004L62.58 65.1329ZM10.0964 125.815V84.1854C10.0964 81.3316 12.4187 79.0085 15.2734 79.0085H37.5605V130.991H15.2734C12.4195 130.992 10.0964 128.669 10.0964 125.815Z" fill="#0D2D30"/>
<path d="M69.5526 60.8099C70.4845 60.2266 70.829 58.9527 70.2089 57.988C69.5994 56.9946 68.332 56.7329 67.387 57.3235C66.4273 57.9142 66.1319 59.1856 66.7226 60.1454C67.3107 61.092 68.5551 61.407 69.5526 60.8099Z" fill="#0D2D30"/>
<path d="M201.385 76.8182C197.909 73.3426 192.253 73.3426 188.775 76.8182L173.208 92.3853L157.64 76.8182C154.165 73.3409 148.506 73.3418 145.026 76.8232C141.549 80.2996 141.549 85.9565 145.026 89.433L160.594 105L145.026 120.567C141.55 124.044 141.55 129.701 145.031 133.182C148.507 136.658 154.164 136.659 157.641 133.182L173.207 117.616L175.816 120.225C176.614 121.023 177.918 121.026 178.72 120.225C179.506 119.438 179.531 118.15 178.72 117.321L174.672 113.282C173.849 112.435 172.494 112.474 171.723 113.301L154.741 130.282C152.864 132.16 149.809 132.16 147.926 130.277C146.049 128.399 146.049 125.345 147.926 123.467L164.944 106.45C165.744 105.649 165.744 104.35 164.944 103.55L147.926 86.5324C146.049 84.6547 146.049 81.5998 147.931 79.7172C149.809 77.8395 152.864 77.8403 154.741 79.7172L171.759 96.7346C172.528 97.5041 173.89 97.5041 174.658 96.7346L191.675 79.718C193.551 77.8403 196.608 77.8395 198.49 79.723C200.372 81.6031 200.374 84.6506 198.49 86.5324L181.474 103.55C180.672 104.35 180.672 105.649 181.474 106.45L198.49 123.467C200.365 125.34 200.383 128.386 198.485 130.281C196.706 132.06 193.718 132.262 191.66 130.268L190.319 128.928C189.548 128.148 188.194 128.148 187.423 128.928C186.62 129.723 186.62 131.028 187.415 131.823C187.645 132.053 188.57 132.98 188.803 133.207C192.283 136.656 197.918 136.649 201.39 133.177C204.876 129.692 204.876 124.052 201.39 120.566L185.824 105L201.391 89.433C204.872 85.9516 204.881 80.3128 201.385 76.8182Z" fill="#0D2D30"/>
<path d="M184.519 126.025C185.316 125.229 185.316 123.925 184.519 123.129C183.741 122.35 182.395 122.35 181.616 123.129C180.81 123.935 180.826 125.235 181.616 126.025C182.459 126.849 183.746 126.797 184.519 126.025Z" fill="#0D2D30"/>
<path d="M101.02 163.874L98.928 162.578C97.9601 161.979 97.6648 160.716 98.2636 159.756C98.8837 158.758 100.162 158.522 101.085 159.091L103.177 160.388C104.137 160.986 104.432 162.25 103.842 163.209C103.226 164.214 101.93 164.457 101.02 163.874ZM91.9554 158.255L46.7316 130.216C45.7931 129.64 45.4592 128.37 46.0753 127.395C46.6495 126.468 47.962 126.156 48.8972 126.73L94.1128 154.768C95.0652 155.365 95.3843 156.603 94.7773 157.59C94.1448 158.607 92.8553 158.831 91.9554 158.255Z" fill="white"/>
</svg>
