<svg width="61" height="60" viewBox="0 0 61 60" fill="none" xmlns="http://www.w3.org/2000/svg">
<rect x="0.5" width="60" height="60" rx="30" fill="#FDA568"/>
<path d="M26.7991 21.2824C27.1893 21.2824 27.5635 21.4374 27.8394 21.7133C28.1153 21.9892 28.2703 22.3634 28.2703 22.7536C28.2703 23.1437 28.4253 23.5179 28.7012 23.7938C28.9771 24.0697 29.3513 24.2247 29.7415 24.2247C30.1316 24.2247 30.5058 24.0697 30.7817 23.7938C31.0576 23.5179 31.2126 23.1437 31.2126 22.7536C31.2126 22.0189 31.0292 21.2958 30.679 20.65C30.3287 20.0041 29.8229 19.4559 29.2072 19.0551C28.5915 18.6542 27.8854 18.4134 27.1531 18.3545C26.4208 18.2956 25.6853 18.4204 25.0135 18.7176C24.3416 19.0149 23.7546 19.4751 23.3056 20.0567C22.8566 20.6382 22.5599 21.3226 22.4424 22.0478C22.3249 22.7731 22.3903 23.5162 22.6326 24.2097C22.875 24.9033 23.2866 25.5254 23.8303 26.0196C23.845 26.0343 24.0686 26.2697 24.1157 26.3374C24.2821 26.5796 24.3712 26.8666 24.3712 27.1605C24.3712 27.4544 24.2821 27.7414 24.1157 27.9836C23.9966 28.1424 23.9109 28.3236 23.8637 28.5163C23.8165 28.7091 23.8088 28.9094 23.841 29.1052C23.8732 29.301 23.9447 29.4883 24.0512 29.6558C24.1577 29.8232 24.297 29.9674 24.4607 30.0796C24.6244 30.1918 24.809 30.2698 25.0036 30.3088C25.1982 30.3478 25.3987 30.347 25.5929 30.3065C25.7872 30.266 25.9713 30.1866 26.1341 30.0731C26.2969 29.9596 26.435 29.8143 26.5402 29.646C27.0447 28.9125 27.3141 28.0429 27.3128 27.1527C27.3115 26.2625 27.0395 25.3937 26.5328 24.6617C26.3069 24.3762 26.0663 24.1027 25.812 23.8422C25.7236 23.7628 25.6446 23.6734 25.5766 23.576C25.4272 23.3544 25.341 23.0964 25.3272 22.8296C25.3134 22.5628 25.3725 22.2973 25.4982 22.0615C25.6238 21.8258 25.8113 21.6287 26.0405 21.4914C26.2697 21.3542 26.532 21.2819 26.7991 21.2824ZM26.7991 12.4553C25.2194 12.4552 23.6608 12.8185 22.2439 13.5171C20.8271 14.2157 19.5899 15.2309 18.6282 16.4842C17.6665 17.7375 17.006 19.1952 16.6979 20.7446C16.3897 22.2939 16.4421 23.8935 16.851 25.4193C16.9521 25.7963 17.1987 26.1176 17.5367 26.3126C17.8747 26.5077 18.2763 26.5605 18.6532 26.4595C19.0301 26.3584 19.3514 26.1118 19.5465 25.7738C19.7416 25.4358 19.7944 25.0342 19.6933 24.6573C19.4227 23.646 19.371 22.5885 19.5417 21.5556C19.7125 20.5227 20.1018 19.5382 20.6835 18.6678C21.2653 17.7974 22.0261 17.0613 22.9152 16.5085C23.8043 15.9557 24.8011 15.5991 25.8391 15.4625C26.877 15.3259 27.9322 15.4124 28.934 15.7162C29.9359 16.0201 30.8613 16.5342 31.6485 17.2244C32.4357 17.9146 33.0665 18.7649 33.4987 19.7184C33.931 20.6719 34.1547 21.7067 34.155 22.7536C34.1487 24.0819 33.7909 25.3849 33.1178 26.5301L27.8731 37.4653C27.6145 37.9117 27.2434 38.2824 26.7968 38.5406C26.3502 38.7987 25.8438 38.9352 25.3279 38.9365C24.5508 38.9262 23.8083 38.6129 23.2587 38.0633C22.7092 37.5138 22.3959 36.7713 22.3856 35.9942C22.3858 35.478 22.5223 34.971 22.7813 34.5245C22.9768 34.1864 23.03 33.7845 22.9291 33.4072C22.8283 33.0299 22.5817 32.7081 22.2436 32.5126C21.9055 32.3171 21.5036 32.264 21.1263 32.3648C20.749 32.4657 20.4273 32.7122 20.2318 33.0503C19.8413 33.7235 19.5882 34.4675 19.4872 35.2391C19.3863 36.0108 19.4394 36.7948 19.6436 37.5458C19.8477 38.2967 20.1988 38.9997 20.6766 39.6141C21.1543 40.2284 21.7492 40.7418 22.4268 41.1247C23.1043 41.5075 23.8511 41.7521 24.6239 41.8442C25.3966 41.9364 26.18 41.8744 26.9286 41.6617C27.6772 41.449 28.3762 41.0899 28.985 40.6052C29.5939 40.1205 30.1005 39.5198 30.4756 38.8379L35.7174 27.9027C36.6212 26.3372 37.0971 24.5613 37.0971 22.7536C37.0971 20.9459 36.6213 19.1701 35.7175 17.6046C34.8136 16.039 33.5136 14.739 31.9481 13.8351C30.3826 12.9312 28.6068 12.4554 26.7991 12.4553Z" fill="#0D2D30"/>
<path opacity="0.9" d="M38.4357 39.3338V36.9504H36.0837V35.1629H38.4357V32.7796H40.2859V35.1629H42.6379V36.9504H40.2859V39.3338H38.4357Z" fill="#0D2D30"/>
</svg>
