<svg width="24" height="24" viewBox="0 0 24 24" fill="none" xmlns="http://www.w3.org/2000/svg">
<circle cx="12" cy="12" r="12" fill="white"/>
<path d="M15.3333 8.00001H18.6666V9.33334H17.3333V18C17.3333 18.1768 17.263 18.3464 17.138 18.4714C17.013 18.5964 16.8434 18.6667 16.6666 18.6667H7.33325C7.15644 18.6667 6.98687 18.5964 6.86185 18.4714C6.73682 18.3464 6.66659 18.1768 6.66659 18V9.33334H5.33325V8.00001H8.66658V6.00001C8.66658 5.8232 8.73682 5.65363 8.86185 5.52861C8.98687 5.40358 9.15644 5.33334 9.33325 5.33334H14.6666C14.8434 5.33334 15.013 5.40358 15.138 5.52861C15.263 5.65363 15.3333 5.8232 15.3333 6.00001V8.00001ZM15.9999 9.33334H7.99992V17.3333H15.9999V9.33334ZM9.99992 11.3333H11.3333V15.3333H9.99992V11.3333ZM12.6666 11.3333H13.9999V15.3333H12.6666V11.3333ZM9.99992 6.66668V8.00001H13.9999V6.66668H9.99992Z" fill="#F13C3C"/>
</svg>
