<svg width="25" height="24" viewBox="0 0 25 24" fill="none" xmlns="http://www.w3.org/2000/svg">
<mask id="mask0_7_1776" style="mask-type:alpha" maskUnits="userSpaceOnUse" x="0" y="0" width="25" height="24">
<rect x="0.666626" width="24" height="24" fill="#F67925"/>
</mask>
<g mask="url(#mask0_7_1776)">
<path d="M12.6666 23C10.1729 23 8.04944 22.0719 6.29631 20.2158C4.54319 18.3596 3.66663 16.1 3.66663 13.4368C3.66663 12.1658 3.89631 10.9502 4.35569 9.79013C4.81506 8.63004 5.46663 7.60614 6.31038 6.71842L12.6666 0L19.0229 6.71842C19.8666 7.60614 20.5182 8.63004 20.9776 9.79013C21.4369 10.9502 21.6666 12.1658 21.6666 13.4368C21.6666 16.1 20.7901 18.3596 19.0369 20.2158C17.2838 22.0719 15.1604 23 12.6666 23ZM5.91663 13.4368H19.4166C19.4166 12.4886 19.2479 11.5857 18.9104 10.7283C18.5729 9.87083 18.0854 9.1193 17.4479 8.47368L12.6666 3.38947L7.88538 8.47368C7.24788 9.1193 6.76038 9.87083 6.42288 10.7283C6.08538 11.5857 5.91663 12.4886 5.91663 13.4368Z" fill="#FDA568"/>
</g>
</svg>
