<svg width="26" height="26" viewBox="0 0 26 26" fill="none" xmlns="http://www.w3.org/2000/svg">
<mask id="mask0_7_1788" style="mask-type:alpha" maskUnits="userSpaceOnUse" x="0" y="0" width="26" height="26">
<rect width="26" height="26" fill="#F67925"/>
</mask>
<g mask="url(#mask0_7_1788)">
<path d="M7.9896 22.7771C7.3396 22.759 6.7212 22.592 6.1344 22.276C5.54759 21.9601 4.99238 21.4951 4.46877 20.8813C3.74655 20.0146 3.18231 18.9809 2.77606 17.7802C2.36981 16.5795 2.16669 15.3472 2.16669 14.0833C2.16669 12.5847 2.45106 11.1764 3.01981 9.85833C3.58856 8.54028 4.36044 7.39375 5.33544 6.41875C6.31044 5.44375 7.45696 4.67188 8.77502 4.10313C10.0931 3.53438 11.5014 3.25 13 3.25C14.4986 3.25 15.907 3.53889 17.225 4.11667C18.5431 4.69444 19.6896 5.47986 20.6646 6.47292C21.6396 7.46597 22.4115 8.63056 22.9802 9.96667C23.549 11.3028 23.8334 12.7382 23.8334 14.2729C23.8334 15.6632 23.6077 16.9632 23.1563 18.1729C22.7049 19.3826 22.0639 20.4028 21.2334 21.2333C20.7278 21.7389 20.1952 22.1226 19.6354 22.3844C19.0757 22.6462 18.507 22.7771 17.9292 22.7771C17.6042 22.7771 17.2792 22.7365 16.9542 22.6552C16.6292 22.574 16.3042 22.4521 15.9792 22.2896L14.4625 21.5313C14.2459 21.4229 14.0156 21.3417 13.7719 21.2875C13.5281 21.2333 13.2709 21.2063 13 21.2063C12.7292 21.2063 12.4719 21.2333 12.2281 21.2875C11.9844 21.3417 11.7542 21.4229 11.5375 21.5313L10.0209 22.2896C9.6778 22.4701 9.33926 22.601 9.00523 22.6823C8.6712 22.7635 8.33266 22.7951 7.9896 22.7771ZM8.04377 20.6104C8.20627 20.6104 8.37328 20.5924 8.54481 20.5563C8.71634 20.5201 8.88335 20.4569 9.04585 20.3667L10.5625 19.6083C10.9417 19.4097 11.3344 19.2653 11.7406 19.175C12.1469 19.0847 12.5577 19.0396 12.9729 19.0396C13.3882 19.0396 13.8035 19.0847 14.2188 19.175C14.634 19.2653 15.0313 19.4097 15.4104 19.6083L16.9542 20.3667C17.1167 20.4569 17.2792 20.5201 17.4417 20.5563C17.6042 20.5924 17.7667 20.6104 17.9292 20.6104C18.2722 20.6104 18.5972 20.5201 18.9042 20.3396C19.2111 20.159 19.5181 19.8882 19.825 19.5271C20.4028 18.841 20.8542 18.0194 21.1792 17.0625C21.5042 16.1056 21.6667 15.1215 21.6667 14.1104C21.6667 11.691 20.8271 9.63715 19.1479 7.94896C17.4688 6.26076 15.4195 5.41667 13 5.41667C10.5806 5.41667 8.53127 6.26528 6.8521 7.9625C5.17294 9.65972 4.33335 11.7181 4.33335 14.1375C4.33335 15.1667 4.50037 16.1688 4.8344 17.1438C5.16842 18.1188 5.63335 18.9403 6.22919 19.6083C6.53613 19.9694 6.83405 20.2267 7.12294 20.3802C7.41183 20.5337 7.71877 20.6104 8.04377 20.6104ZM13 16.25C13.5959 16.25 14.1059 16.0378 14.5302 15.6135C14.9545 15.1892 15.1667 14.6792 15.1667 14.0833C15.1667 13.9389 15.1531 13.7944 15.1261 13.65C15.099 13.5056 15.0584 13.3611 15.0042 13.2167L16.3584 11.4021C16.5389 11.6368 16.6969 11.8851 16.8323 12.1469C16.9677 12.4087 17.0806 12.6931 17.1709 13H19.3917C19.1209 11.4111 18.3851 10.1111 17.1844 9.1C15.9837 8.08889 14.5889 7.58333 13 7.58333C11.4111 7.58333 10.0118 8.0934 8.8021 9.11354C7.59238 10.1337 6.86113 11.4292 6.60835 13H8.82919C9.08196 12.025 9.59655 11.2396 10.3729 10.6438C11.1493 10.0479 12.025 9.75 13 9.75C13.307 9.75 13.5959 9.77708 13.8667 9.83125C14.1375 9.88542 14.3993 9.96667 14.6521 10.075L13.2709 11.9438C13.2347 11.9438 13.1896 11.9392 13.1354 11.9302C13.0813 11.9212 13.0361 11.9167 13 11.9167C12.4042 11.9167 11.8941 12.1288 11.4698 12.5531C11.0455 12.9774 10.8334 13.4875 10.8334 14.0833C10.8334 14.6792 11.0455 15.1892 11.4698 15.6135C11.8941 16.0378 12.4042 16.25 13 16.25Z" fill="#FDA568"/>
</g>
</svg>
