<svg width="30" height="29" viewBox="0 0 30 29" fill="none" xmlns="http://www.w3.org/2000/svg">
<mask id="mask0_7_1782" style="mask-type:alpha" maskUnits="userSpaceOnUse" x="0" y="0" width="30" height="29">
<rect x="0.833313" width="29" height="29" fill="#F67925"/>
</mask>
<g mask="url(#mask0_7_1782)">
<path d="M15.3333 26.5834C13.6618 26.5834 12.2369 25.9944 11.0588 24.8162C9.88069 23.6381 9.29163 22.2133 9.29163 20.5417C9.29163 19.5751 9.50308 18.6739 9.926 17.8381C10.3489 17.0023 10.943 16.2924 11.7083 15.7084V6.04175C11.7083 5.0348 12.0607 4.1789 12.7656 3.47404C13.4704 2.76918 14.3263 2.41675 15.3333 2.41675C16.3402 2.41675 17.1961 2.76918 17.901 3.47404C18.6059 4.1789 18.9583 5.0348 18.9583 6.04175V15.7084C19.7236 16.2924 20.3177 17.0023 20.7406 17.8381C21.1635 18.6739 21.375 19.5751 21.375 20.5417C21.375 22.2133 20.7859 23.6381 19.6078 24.8162C18.4296 25.9944 17.0048 26.5834 15.3333 26.5834ZM14.125 13.2917H16.5416V12.0834H15.3333V10.8751H16.5416V8.45841H15.3333V7.25008H16.5416V6.04175C16.5416 5.69939 16.4258 5.41241 16.1942 5.18081C15.9626 4.94921 15.6757 4.83341 15.3333 4.83341C14.9909 4.83341 14.704 4.94921 14.4724 5.18081C14.2408 5.41241 14.125 5.69939 14.125 6.04175V13.2917Z" fill="#FDA568"/>
</g>
</svg>
