<svg width="146" height="146" viewBox="0 0 146 146" fill="none" xmlns="http://www.w3.org/2000/svg">
<g clip-path="url(#clip0_464_3516)">
<path d="M72.8365 135.185C100.014 135.185 122.045 113.153 122.045 85.9763C122.045 58.7992 100.014 36.7679 72.8365 36.7679C45.6595 36.7679 23.6282 58.7992 23.6282 85.9763C23.6282 113.153 45.6595 135.185 72.8365 135.185Z" fill="#B4EEB2"/>
<path d="M120.88 85.9763H99.4074C99.4074 85.9763 98.883 102.175 95.2703 112.314C95.2703 112.314 105.555 117.937 107.332 121.054C107.332 121.054 121.113 109.313 122.016 86.9377L120.88 85.9763Z" fill="#84E7EE"/>
<path d="M46.2658 85.9763H72.8366V106.895C72.8366 106.895 62.7851 106.05 50.3738 112.314C50.3738 112.314 45.6248 100.893 46.2658 85.9763Z" fill="#84E7EE"/>
<path d="M72.8364 106.895C80.9358 106.895 88.5691 108.847 95.2992 112.314C90.5794 126.066 82.276 135.185 72.8364 135.185V106.895Z" fill="#84E7EE"/>
<path d="M72.8365 136.641C44.8964 136.641 22.1714 113.916 22.1714 85.9762C22.1714 58.0361 44.8964 35.3111 72.8365 35.3111C100.777 35.3111 123.502 58.0361 123.502 85.9762C123.502 113.916 100.777 136.641 72.8365 136.641ZM72.8365 38.1955C46.4988 38.1955 25.0848 59.6094 25.0848 85.9471C25.0848 112.314 46.4988 133.728 72.8365 133.728C99.1742 133.728 120.588 112.314 120.588 85.9762C120.588 59.6385 99.1742 38.1955 72.8365 38.1955Z" fill="#0D2D30"/>
<path d="M39.5066 59.6677C39.1862 59.6677 38.8365 59.5512 38.5743 59.3181C37.9625 58.7937 37.8751 57.8905 38.3995 57.2787C41.3713 53.6951 44.8965 50.636 48.8006 48.1304C49.4707 47.6934 50.3738 47.8973 50.8109 48.5674C51.2479 49.2375 51.0439 50.1407 50.3738 50.5777C46.7029 52.9085 43.4398 55.7928 40.6429 59.1433C40.3515 59.4929 39.9437 59.6677 39.5066 59.6677Z" fill="#0D2D30"/>
<path d="M35.5733 65.2033C35.3111 65.2033 35.0489 65.145 34.8158 64.9993C34.1166 64.5915 33.9127 63.6883 34.3205 62.989C34.4953 62.6977 34.6993 62.3772 34.8741 62.0859C35.3111 61.4158 36.2143 61.2118 36.8844 61.6197C37.5545 62.0567 37.7584 62.9599 37.3505 63.63C37.1757 63.9214 37.0009 64.1836 36.8261 64.4749C36.5639 64.9411 36.0686 65.2033 35.5733 65.2033Z" fill="#0D2D30"/>
<path d="M38.3119 113.683C37.8749 113.683 37.4379 113.479 37.1466 113.101C31.1448 105.234 27.9983 95.8529 27.9983 85.9763C27.9983 79.8289 29.2219 73.8563 31.6401 68.2624C31.9606 67.534 32.8055 67.1844 33.563 67.5049C34.2914 67.8254 34.641 68.6703 34.3205 69.4278C32.048 74.672 30.9118 80.2367 30.9118 86.0054C30.9118 95.2411 33.8835 104.011 39.4773 111.382C39.9726 112.023 39.8561 112.926 39.2151 113.421C38.9238 113.567 38.6324 113.683 38.3119 113.683Z" fill="#0D2D30"/>
<path d="M106.167 59.6677C105.759 59.6677 105.322 59.4929 105.06 59.1433C102.263 55.7928 98.9996 52.9085 95.3286 50.5777C94.6585 50.1407 94.4546 49.2375 94.8916 48.5674C95.3286 47.8973 96.2318 47.6934 96.9019 48.1304C100.835 50.636 104.331 53.6951 107.303 57.2787C107.827 57.8905 107.74 58.8228 107.128 59.3181C106.808 59.5512 106.487 59.6677 106.167 59.6677Z" fill="#0D2D30"/>
<path d="M110.1 65.2032C109.605 65.2032 109.109 64.941 108.847 64.504C108.672 64.2126 108.497 63.9504 108.323 63.6591C107.886 62.989 108.09 62.0858 108.789 61.6488C109.459 61.2118 110.362 61.4157 110.799 62.115C110.974 62.4063 111.178 62.7268 111.353 63.0181C111.761 63.7174 111.527 64.5914 110.857 65.0284C110.595 65.145 110.362 65.2032 110.1 65.2032Z" fill="#0D2D30"/>
<path d="M107.361 113.683C107.041 113.683 106.749 113.596 106.487 113.392C105.846 112.897 105.729 111.993 106.225 111.353C111.819 104.011 114.79 95.2411 114.79 85.9763C114.79 80.2368 113.654 74.6429 111.382 69.3987C111.061 68.6703 111.411 67.7963 112.139 67.4758C112.867 67.1553 113.741 67.5049 114.062 68.2333C116.48 73.8563 117.704 79.7997 117.704 85.9471C117.704 95.8238 114.528 105.205 108.556 113.071C108.235 113.479 107.798 113.683 107.361 113.683Z" fill="#0D2D30"/>
<path d="M107.361 113.683C107.041 113.683 106.749 113.596 106.487 113.392C105.846 112.897 105.729 111.993 106.225 111.353C111.819 104.011 114.79 95.2411 114.79 85.9763C114.79 85.1605 115.431 84.5195 116.247 84.5195C117.063 84.5195 117.704 85.1605 117.704 85.9763C117.704 95.8529 114.528 105.234 108.556 113.101C108.235 113.479 107.798 113.683 107.361 113.683Z" fill="#C0E7F9"/>
<path d="M47.3147 35.0489C46.7612 35.0489 46.2659 34.7576 46.0037 34.2332C45.654 33.5048 45.9454 32.6307 46.6738 32.2811C47.1108 32.0772 47.5769 31.8441 48.0139 31.6402C48.7423 31.2906 49.6164 31.6402 49.9368 32.3685C50.2573 33.0969 49.9368 33.9709 49.2085 34.2914C48.7714 34.4954 48.3636 34.6993 47.9265 34.9032C47.7517 34.9907 47.5478 35.0489 47.3147 35.0489Z" fill="#0D2D30"/>
<path d="M18.4422 66.4852C18.2674 66.4852 18.0926 66.4561 17.9177 66.3978C17.1602 66.1065 16.7815 65.2616 17.0728 64.5041C21.5304 52.9085 29.7464 42.7696 40.1766 35.9521C40.8467 35.5151 41.7499 35.6899 42.1869 36.36C42.6239 37.0301 42.4491 37.9333 41.779 38.3703C31.8732 44.8965 24.0651 54.54 19.8115 65.5529C19.6076 66.1356 19.054 66.4852 18.4422 66.4852Z" fill="#0D2D30"/>
<path d="M16.2862 73.4192C16.1697 73.4192 16.0532 73.4192 15.9366 73.3901C15.15 73.1861 14.6838 72.3995 14.8586 71.6128C14.9752 71.0884 15.1208 70.564 15.2665 70.0687C15.4705 69.2821 16.2862 68.8451 17.0437 69.049C17.8304 69.2529 18.2674 70.0687 18.0634 70.8262C17.9178 71.3215 17.8012 71.8168 17.6847 72.3121C17.539 72.9822 16.9272 73.4192 16.2862 73.4192Z" fill="#0D2D30"/>
<path d="M72.8365 145.673C39.9144 145.673 13.1396 118.898 13.1396 85.9762C13.1396 85.0148 13.1688 84.0242 13.1979 83.0336C13.2271 82.2179 13.9263 81.606 14.7129 81.6352C15.5287 81.6643 16.1405 82.3635 16.1114 83.1502C16.0531 84.0825 16.0531 85.0148 16.0531 85.9471C16.0531 117.267 41.5168 142.76 72.8365 142.76C93.4055 142.76 112.43 131.572 122.482 113.596C122.861 112.897 123.764 112.634 124.463 113.042C125.162 113.421 125.424 114.324 125.017 115.023C114.47 133.932 94.4835 145.673 72.8365 145.673Z" fill="#0D2D30"/>
<path d="M126.648 109.779C126.473 109.779 126.269 109.75 126.095 109.663C125.366 109.342 124.987 108.497 125.308 107.769C125.803 106.604 126.24 105.409 126.648 104.185C126.91 103.428 127.726 103.02 128.484 103.282C129.241 103.544 129.649 104.36 129.387 105.118C128.95 106.37 128.484 107.652 127.959 108.876C127.755 109.43 127.231 109.779 126.648 109.779Z" fill="#0D2D30"/>
<path d="M129.591 100.602C129.474 100.602 129.358 100.602 129.27 100.573C128.484 100.398 127.988 99.6112 128.192 98.8246C128.338 98.1836 128.484 97.5427 128.6 96.9017C129.299 93.3181 129.649 89.6472 129.649 85.9762C129.649 61.8819 114.383 40.3514 91.6575 32.3685C90.9 32.1063 90.4921 31.2614 90.7543 30.5039C91.0166 29.7464 91.8615 29.3385 92.619 29.6007C116.509 37.9915 132.563 60.6291 132.563 85.9471C132.563 89.7929 132.184 93.6678 131.455 97.4261C131.339 98.0962 131.193 98.7663 131.018 99.4364C130.844 100.136 130.261 100.602 129.591 100.602Z" fill="#0D2D30"/>
<path d="M72.8365 136.641C59.4637 136.641 46.8193 131.455 37.2922 122.074C37.0009 121.812 36.8552 121.433 36.8552 121.025C36.8552 120.646 37.0009 120.268 37.2922 119.976C46.8193 110.595 59.4637 105.409 72.8365 105.409C86.2093 105.409 98.8537 110.595 108.381 119.976C108.672 120.239 108.818 120.617 108.818 121.025C108.818 121.404 108.672 121.783 108.381 122.074C98.8537 131.455 86.2093 136.641 72.8365 136.641ZM40.4096 121.025C49.2666 129.241 60.7165 133.728 72.8365 133.728C84.9565 133.728 96.4064 129.241 105.263 121.025C96.4064 112.838 84.9565 108.323 72.8365 108.323C60.7165 108.323 49.2666 112.838 40.4096 121.025Z" fill="#0D2D30"/>
<path d="M68.3789 36.7388C68.3789 36.7388 57.2786 39.39 50.3737 59.6094C50.3737 59.6094 39.1569 54.0739 38.312 50.8691C38.312 50.8982 48.2178 39.2735 68.3789 36.7388Z" fill="#84E7EE"/>
<path d="M72.8364 48.1887V65.0285C80.9358 65.0285 88.5691 63.0765 95.2992 59.6094C90.5794 45.8579 82.276 36.7388 72.8364 36.7388" fill="#84E7EE"/>
<path d="M42.7114 56.2007C42.3327 56.2007 41.9539 56.055 41.6626 55.7637C41.109 55.181 41.109 54.2487 41.6917 53.6951C43.8477 51.5974 46.2367 49.7328 48.7714 48.1013C49.4415 47.6642 50.3447 47.8682 50.7817 48.5383C51.2187 49.2084 51.0148 50.1115 50.3447 50.5486C47.9848 52.0636 45.7414 53.8116 43.702 55.7637C43.4398 56.0841 43.0902 56.2007 42.7114 56.2007Z" fill="#C0E7F9"/>
<path d="M72.8365 66.4852C59.4637 66.4852 46.8193 61.2992 37.2922 51.9179C37.0009 51.6557 36.8552 51.2769 36.8552 50.8691C36.8552 50.4903 37.0009 50.1116 37.2922 49.8202C46.8193 40.4389 59.4637 35.2529 72.8365 35.2529C86.2093 35.2529 98.8537 40.4389 108.381 49.8202C108.672 50.0824 108.818 50.4612 108.818 50.8691C108.818 51.2478 108.672 51.6266 108.381 51.9179C98.8537 61.3284 86.2093 66.4852 72.8365 66.4852ZM40.4096 50.8982C49.2666 59.085 60.7165 63.6009 72.8365 63.6009C84.9565 63.6009 96.4064 59.1141 105.263 50.8982C96.4064 42.7114 84.9565 38.1955 72.8365 38.1955C60.7165 38.1955 49.2666 42.7114 40.4096 50.8982Z" fill="#0D2D30"/>
<path d="M72.8366 136.641C65.1742 136.641 58.0362 131.251 52.7628 121.462C47.6351 111.964 44.8091 99.349 44.8091 85.9762C44.8091 72.6035 47.6351 59.9882 52.7628 50.4903C58.0362 40.701 65.1742 35.3111 72.8366 35.3111C80.499 35.3111 87.637 40.701 92.9103 50.4903C98.038 59.9882 100.864 72.6035 100.864 85.9762C100.864 99.349 98.038 111.964 92.9103 121.462C87.637 131.251 80.499 136.641 72.8366 136.641ZM72.8366 38.1955C66.3104 38.1955 60.0756 43.0318 55.3267 51.8596C50.4321 60.9496 47.7225 73.0696 47.7225 85.9762C47.7225 98.8829 50.4321 111.003 55.3267 120.093C60.0756 128.892 66.3104 133.757 72.8366 133.757C79.3627 133.757 85.5975 128.921 90.3465 120.093C95.2411 111.003 97.9506 98.8829 97.9506 85.9762C97.9506 73.0696 95.2702 60.9496 90.3465 51.8596C85.5975 43.0609 79.3627 38.1955 72.8366 38.1955Z" fill="#0D2D30"/>
<path d="M72.8366 136.641C72.0208 136.641 71.3799 136 71.3799 135.185V59.8133C71.3799 58.9976 72.0208 58.3566 72.8366 58.3566C73.6524 58.3566 74.2933 58.9976 74.2933 59.8133V135.185C74.2933 136 73.6524 136.641 72.8366 136.641Z" fill="#0D2D30"/>
<path d="M122.045 87.433H23.6281C22.8123 87.433 22.1714 86.792 22.1714 85.9763C22.1714 85.1605 22.8123 84.5195 23.6281 84.5195H122.074C122.89 84.5195 123.531 85.1605 123.531 85.9763C123.531 86.792 122.861 87.433 122.045 87.433Z" fill="#0D2D30"/>
<path d="M108.73 21.647H69.6025V4.22453C69.6025 2.6804 70.8553 1.45674 72.3703 1.45674H108.73C109.779 1.45674 110.158 2.82607 109.255 3.35049L95.8528 11.5373L109.255 19.7241C110.158 20.3068 109.779 21.647 108.73 21.647Z" fill="#FDA568"/>
<path d="M108.73 23.1038H69.6025C68.7867 23.1038 68.1458 22.4628 68.1458 21.647V4.22452C68.1458 1.89375 70.0395 0 72.3703 0H108.73C109.867 0 110.828 0.728365 111.119 1.80635C111.411 2.88433 110.974 4.02058 110.012 4.60327L98.6497 11.5664L110.012 18.5296C110.974 19.1123 111.411 20.2486 111.119 21.3265C110.828 22.4045 109.867 23.1038 108.73 23.1038ZM71.0592 20.1903H107.215L95.1244 12.7901C94.6874 12.5279 94.4252 12.0617 94.4252 11.5373C94.4252 11.0129 94.6874 10.5467 95.1244 10.2845L107.215 2.91346H72.3994C71.671 2.91346 71.0883 3.49615 71.0883 4.22452V20.1903H71.0592Z" fill="#0D2D30"/>
<path d="M75.4294 9.20652C74.6136 9.20652 73.9727 8.56556 73.9727 7.74979V7.28363C73.9727 6.46787 74.6136 5.8269 75.4294 5.8269C76.2452 5.8269 76.8861 6.46787 76.8861 7.28363V7.74979C76.8861 8.53642 76.2452 9.20652 75.4294 9.20652Z" fill="#FFEDCC"/>
<path d="M75.4294 17.2768C74.6136 17.2768 73.9727 16.6358 73.9727 15.8201V12.6153C73.9727 11.7995 74.6136 11.1585 75.4294 11.1585C76.2452 11.1585 76.8861 11.7995 76.8861 12.6153V15.8492C76.8861 16.6358 76.2452 17.2768 75.4294 17.2768Z" fill="#FFEDCC"/>
<path d="M76.0413 21.647H69.6025V42.6239H76.0413V21.647Z" fill="#C9C9C9"/>
<path d="M76.0705 44.0807H69.6318C68.816 44.0807 68.175 43.4397 68.175 42.6239V21.647C68.175 20.8312 68.816 20.1903 69.6318 20.1903H76.0705C76.8863 20.1903 77.5273 20.8312 77.5273 21.647V42.6239C77.5273 43.4397 76.8572 44.0807 76.0705 44.0807ZM71.0594 41.1672H74.5847V23.1037H71.0594V41.1672Z" fill="#0D2D30"/>
<path d="M65.3489 49.9367C65.3489 45.7996 68.6994 42.4491 72.8365 42.4491C76.9736 42.4491 80.3241 45.7996 80.3241 49.9367H65.3489Z" fill="#C9C9C9"/>
<path d="M80.3243 51.3934H65.3491C64.5333 51.3934 63.8923 50.7525 63.8923 49.9367C63.8923 45.0129 67.9129 40.9924 72.8367 40.9924C77.7604 40.9924 81.781 45.0129 81.781 49.9367C81.781 50.7233 81.14 51.3934 80.3243 51.3934ZM66.9806 48.48H78.6927C78.0518 45.8579 75.6627 43.9058 72.8367 43.9058C70.0106 43.9058 67.6216 45.8579 66.9806 48.48Z" fill="#0D2D30"/>
<path d="M72.8366 56.2007C72.0208 56.2007 71.3799 55.5597 71.3799 54.7439V54.2487C71.3799 53.4329 72.0208 52.7919 72.8366 52.7919C73.6524 52.7919 74.2933 53.4329 74.2933 54.2487V54.7439C74.2933 55.5597 73.6524 56.2007 72.8366 56.2007Z" fill="#0D2D30"/>
<path d="M96.086 13.1397H90.3173C89.5016 13.1397 88.8606 12.4988 88.8606 11.683C88.8606 10.8672 89.5016 10.2263 90.3173 10.2263H96.086C96.9017 10.2263 97.5427 10.8672 97.5427 11.683C97.5427 12.4988 96.9017 13.1397 96.086 13.1397Z" fill="#0D2D30"/>
<path d="M84.4903 13.1397H83.6745C82.8587 13.1397 82.2178 12.4988 82.2178 11.683C82.2178 10.8672 82.8587 10.2263 83.6745 10.2263H84.4903C85.306 10.2263 85.947 10.8672 85.947 11.683C85.947 12.4988 85.306 13.1397 84.4903 13.1397Z" fill="#0D2D30"/>
</g>
<defs>
<clipPath id="clip0_464_3516">
<rect width="145.673" height="145.673" fill="white"/>
</clipPath>
</defs>
</svg>
