<svg width="256" height="136" viewBox="0 0 256 136" fill="none" xmlns="http://www.w3.org/2000/svg">
<g clip-path="url(#clip0_419_2122)">
<path d="M25.8191 66.5156C22.3916 66.5156 19.4914 65.7246 17.1185 64.1427C14.7833 62.5608 13.3709 60.0561 12.8813 56.6286L17.1185 55.6682C17.4199 57.4761 17.9848 58.9073 18.8135 59.9619C19.6421 60.9789 20.659 61.7133 21.8643 62.1653C23.1072 62.5796 24.4255 62.7868 25.8191 62.7868C27.8906 62.7868 29.529 62.3725 30.7343 61.5438C31.9396 60.7152 32.5422 59.6041 32.5422 58.2105C32.5422 56.7793 31.9584 55.7812 30.7908 55.2162C29.6609 54.6136 28.0978 54.1239 26.1016 53.7473L23.7852 53.3518C22.0149 53.0505 20.3954 52.5797 18.9264 51.9394C17.4575 51.2991 16.2899 50.4328 15.4236 49.3405C14.5574 48.2482 14.1242 46.8735 14.1242 45.2162C14.1242 42.7304 15.0847 40.7907 17.0056 39.3971C18.9264 38.0035 21.4688 37.3067 24.6326 37.3067C27.7588 37.3067 30.2823 38.0223 32.2032 39.4536C34.1618 40.8471 35.4235 42.8245 35.9885 45.3857L31.8077 46.4592C31.4688 44.463 30.659 43.0694 29.3784 42.2784C28.0978 41.4498 26.5159 41.0355 24.6326 41.0355C22.7494 41.0355 21.2616 41.3933 20.1694 42.1089C19.0771 42.7869 18.531 43.8038 18.531 45.1597C18.531 46.478 19.0394 47.4573 20.0564 48.0976C21.111 48.7002 22.5046 49.1522 24.2372 49.4535L26.5535 49.849C28.5121 50.188 30.2635 50.6588 31.8077 51.2614C33.3896 51.8264 34.6326 52.655 35.5365 53.7473C36.4781 54.8395 36.949 56.2708 36.949 58.041C36.949 60.7529 35.932 62.8433 33.8981 64.3122C31.9019 65.7811 29.2089 66.5156 25.8191 66.5156ZM57.2507 66.5156C54.4636 66.5156 51.9965 65.9318 49.8497 64.7642C47.7404 63.5966 46.0832 61.9582 44.8779 59.8489C43.7103 57.7021 43.1265 55.1785 43.1265 52.2784V51.5439C43.1265 48.6814 43.7103 46.1767 44.8779 44.0298C46.0832 41.8829 47.7404 40.2257 49.8497 39.0581C51.9965 37.8905 54.4636 37.3067 57.2507 37.3067C60.0379 37.3067 62.4861 37.8905 64.5953 39.0581C66.7422 40.2257 68.3995 41.8829 69.5671 44.0298C70.7723 46.1767 71.375 48.6814 71.375 51.5439V52.2784C71.375 55.1785 70.7723 57.7021 69.5671 59.8489C68.3995 61.9582 66.7422 63.5966 64.5953 64.7642C62.4861 65.9318 60.0379 66.5156 57.2507 66.5156ZM57.2507 62.5043C60.1886 62.5043 62.5238 61.5815 64.2564 59.7359C66.0266 57.8527 66.9117 55.3292 66.9117 52.1654V51.6569C66.9117 48.4931 66.0266 45.9884 64.2564 44.1428C62.5238 42.2596 60.1886 41.318 57.2507 41.318C54.3506 41.318 52.0154 42.2596 50.2451 44.1428C48.4749 45.9884 47.5898 48.4931 47.5898 51.6569V52.1654C47.5898 55.3292 48.4749 57.8527 50.2451 59.7359C52.0154 61.5815 54.3506 62.5043 57.2507 62.5043ZM89.9717 66.2331C87.9755 66.2331 86.1299 65.7999 84.435 64.9337C82.7778 64.0674 81.4595 62.7868 80.4802 61.0919C79.5386 59.3593 79.0678 57.2689 79.0678 54.8207V38.0976H83.5311V54.4817C83.5311 57.2312 84.209 59.2275 85.565 60.4704C86.9585 61.7133 88.8229 62.3348 91.1581 62.3348C93.7947 62.3348 95.9604 61.4685 97.6553 59.7359C99.3502 58.0034 100.198 55.4233 100.198 51.9959V38.0976H104.661V65.7246H100.311V61.0354H99.5197C98.917 62.3536 97.8813 63.5589 96.4124 64.6512C94.9434 65.7058 92.7966 66.2331 89.9717 66.2331ZM114 65.7246V38.0976H118.35V42.7869H119.141C119.744 41.4686 120.761 40.2822 122.192 39.2276C123.661 38.1353 125.808 37.5892 128.633 37.5892C130.704 37.5892 132.55 38.0223 134.169 38.8886C135.827 39.7549 137.145 41.0355 138.124 42.7304C139.104 44.4253 139.593 46.5157 139.593 49.0015V65.7246H135.13V49.3405C135.13 46.591 134.433 44.5948 133.04 43.3518C131.684 42.1089 129.838 41.4874 127.503 41.4874C124.829 41.4874 122.644 42.3537 120.949 44.0863C119.292 45.8189 118.463 48.3989 118.463 51.8264V65.7246H114ZM160.343 66.5156C157.971 66.5156 155.786 65.9506 153.79 64.8207C151.794 63.6907 150.212 62.0523 149.044 59.9054C147.876 57.7585 147.293 55.2162 147.293 52.2784V51.5439C147.293 48.6061 147.876 46.0825 149.044 43.9733C150.212 41.8264 151.775 40.188 153.733 39.0581C155.73 37.8905 157.933 37.3067 160.343 37.3067C162.264 37.3067 163.884 37.5703 165.202 38.0976C166.558 38.5873 167.65 39.2276 168.479 40.0185C169.308 40.7718 169.948 41.5816 170.4 42.4479H171.191V26.1768H175.654V65.7246H171.304V61.1484H170.513C169.76 62.542 168.592 63.7849 167.01 64.8772C165.428 65.9694 163.206 66.5156 160.343 66.5156ZM161.53 62.5608C164.392 62.5608 166.709 61.6568 168.479 59.8489C170.287 58.0034 171.191 55.4422 171.191 52.1654V51.6569C171.191 48.3801 170.287 45.8377 168.479 44.0298C166.709 42.1842 164.392 41.2615 161.53 41.2615C158.705 41.2615 156.37 42.1842 154.524 44.0298C152.716 45.8377 151.812 48.3801 151.812 51.6569V52.1654C151.812 55.4422 152.716 58.0034 154.524 59.8489C156.37 61.6568 158.705 62.5608 161.53 62.5608Z" fill="white"/>
<path d="M27.1184 110.827C24.4066 110.827 21.9396 110.262 19.7173 109.132C17.5328 108.002 15.8002 106.364 14.5196 104.217C13.239 102.07 12.5987 99.471 12.5987 96.4201V95.6292C12.5987 92.5784 13.239 89.9795 14.5196 87.8326C15.8002 85.6857 17.5328 84.0473 19.7173 82.9174C21.9396 81.7874 24.4066 81.2225 27.1184 81.2225C29.7926 81.2225 32.0902 81.6933 34.0111 82.6349C35.9319 83.5765 37.4762 84.8759 38.6438 86.5332C39.8491 88.1528 40.64 89.9983 41.0167 92.0699L34.124 93.5388C33.9734 92.4089 33.6344 91.3919 33.1071 90.488C32.5798 89.584 31.8265 88.8684 30.8472 88.3411C29.9056 87.8138 28.7192 87.5501 27.2879 87.5501C25.8567 87.5501 24.5572 87.8703 23.3896 88.5106C22.2597 89.1132 21.3558 90.036 20.6778 91.2789C20.0375 92.4842 19.7173 93.9719 19.7173 95.7422V96.3071C19.7173 98.0774 20.0375 99.584 20.6778 100.827C21.3558 102.032 22.2597 102.955 23.3896 103.595C24.5572 104.198 25.8567 104.499 27.2879 104.499C29.4348 104.499 31.0544 103.953 32.1467 102.861C33.2766 101.731 33.9922 100.262 34.2935 98.454L41.1862 100.092C40.6965 102.089 39.8491 103.915 38.6438 105.573C37.4762 107.192 35.9319 108.473 34.0111 109.414C32.0902 110.356 29.7926 110.827 27.1184 110.827ZM60.3916 110.827C57.6044 110.827 55.0997 110.262 52.8775 109.132C50.6553 108.002 48.9039 106.364 47.6233 104.217C46.3427 102.07 45.7024 99.4898 45.7024 96.4766V95.5727C45.7024 92.5595 46.3427 89.9795 47.6233 87.8326C48.9039 85.6857 50.6553 84.0473 52.8775 82.9174C55.0997 81.7874 57.6044 81.2225 60.3916 81.2225C63.1787 81.2225 65.6834 81.7874 67.9056 82.9174C70.1279 84.0473 71.8793 85.6857 73.1599 87.8326C74.4405 89.9795 75.0807 92.5595 75.0807 95.5727V96.4766C75.0807 99.4898 74.4405 102.07 73.1599 104.217C71.8793 106.364 70.1279 108.002 67.9056 109.132C65.6834 110.262 63.1787 110.827 60.3916 110.827ZM60.3916 104.499C62.5761 104.499 64.384 103.802 65.8153 102.409C67.2465 100.978 67.9621 98.9437 67.9621 96.3071V95.7422C67.9621 93.1057 67.2465 91.0906 65.8153 89.697C64.4217 88.2658 62.6138 87.5501 60.3916 87.5501C58.207 87.5501 56.3991 88.2658 54.9679 89.697C53.5366 91.0906 52.821 93.1057 52.821 95.7422V96.3071C52.821 98.9437 53.5366 100.978 54.9679 102.409C56.3991 103.802 58.207 104.499 60.3916 104.499ZM81.6516 110.036V70.4881H88.7702V110.036H81.6516ZM96.6586 110.036V70.4881H103.777V110.036H96.6586ZM124.434 110.827C121.647 110.827 119.18 110.243 117.033 109.075C114.924 107.87 113.266 106.194 112.061 104.047C110.893 101.863 110.31 99.3015 110.31 96.3636V95.6857C110.31 92.7478 110.893 90.2055 112.061 88.0586C113.229 85.8741 114.867 84.198 116.976 83.0304C119.085 81.8251 121.534 81.2225 124.321 81.2225C127.07 81.2225 129.462 81.8439 131.496 83.0869C133.53 84.2921 135.112 85.9871 136.242 88.1716C137.372 90.3185 137.937 92.8232 137.937 95.6857V98.115H117.541C117.617 100.036 118.332 101.599 119.688 102.804C121.044 104.01 122.701 104.612 124.66 104.612C126.656 104.612 128.125 104.179 129.067 103.313C130.008 102.446 130.724 101.486 131.213 100.431L137.033 103.482C136.505 104.462 135.733 105.535 134.716 106.703C133.737 107.833 132.419 108.812 130.762 109.64C129.104 110.431 126.995 110.827 124.434 110.827ZM117.598 92.8043H130.705C130.554 91.1848 129.895 89.8853 128.728 88.9061C127.598 87.9268 126.11 87.4371 124.264 87.4371C122.343 87.4371 120.818 87.9268 119.688 88.9061C118.558 89.8853 117.861 91.1848 117.598 92.8043ZM157.436 110.827C154.725 110.827 152.258 110.262 150.035 109.132C147.851 108.002 146.118 106.364 144.838 104.217C143.557 102.07 142.917 99.471 142.917 96.4201V95.6292C142.917 92.5784 143.557 89.9795 144.838 87.8326C146.118 85.6857 147.851 84.0473 150.035 82.9174C152.258 81.7874 154.725 81.2225 157.436 81.2225C160.111 81.2225 162.408 81.6933 164.329 82.6349C166.25 83.5765 167.794 84.8759 168.962 86.5332C170.167 88.1528 170.958 89.9983 171.335 92.0699L164.442 93.5388C164.291 92.4089 163.952 91.3919 163.425 90.488C162.898 89.584 162.144 88.8684 161.165 88.3411C160.224 87.8138 159.037 87.5501 157.606 87.5501C156.175 87.5501 154.875 87.8703 153.708 88.5106C152.578 89.1132 151.674 90.036 150.996 91.2789C150.355 92.4842 150.035 93.9719 150.035 95.7422V96.3071C150.035 98.0774 150.355 99.584 150.996 100.827C151.674 102.032 152.578 102.955 153.708 103.595C154.875 104.198 156.175 104.499 157.606 104.499C159.753 104.499 161.372 103.953 162.465 102.861C163.595 101.731 164.31 100.262 164.612 98.454L171.504 100.092C171.015 102.089 170.167 103.915 168.962 105.573C167.794 107.192 166.25 108.473 164.329 109.414C162.408 110.356 160.111 110.827 157.436 110.827ZM187.173 110.036C185.327 110.036 183.821 109.471 182.653 108.341C181.523 107.173 180.958 105.629 180.958 103.708V87.8891H173.952V82.0134H180.958V73.3129H188.077V82.0134H195.76V87.8891H188.077V102.465C188.077 103.595 188.604 104.16 189.659 104.16H195.082V110.036H187.173Z" fill="white"/>
<rect x="189.461" y="30.074" width="36.8945" height="36.8945" rx="10.0621" fill="white"/>
<path fill-rule="evenodd" clip-rule="evenodd" d="M217.844 21.7346C217.727 20.8658 218.337 20.0583 219.213 20.0266C221.871 19.9304 224.522 20.4896 226.926 21.6659C229.807 23.0754 232.206 25.3077 233.818 28.0803C235.164 30.3941 235.912 32.9975 236.006 35.6561C236.037 36.5323 235.276 37.1985 234.401 37.144L231.94 36.9904C231.065 36.9359 230.412 36.1791 230.335 35.3058C230.199 33.7644 229.726 32.2648 228.942 30.9161C227.89 29.1078 226.326 27.652 224.447 26.7328C223.046 26.0471 221.516 25.6829 219.969 25.6581C219.092 25.644 218.291 25.0473 218.174 24.1785L217.844 21.7346Z" fill="white"/>
<path fill-rule="evenodd" clip-rule="evenodd" d="M224.491 14.2044C224.373 13.3355 224.983 12.528 225.86 12.4963C228.518 12.4001 231.168 12.9593 233.573 14.1356C236.454 15.5451 238.852 17.7774 240.465 20.55C241.81 22.8638 242.558 25.4672 242.653 28.1259C242.684 29.002 241.922 29.6683 241.047 29.6137L238.586 29.4602C237.711 29.4056 237.059 28.6489 236.982 27.7756C236.846 26.2342 236.373 24.7346 235.589 23.3858C234.537 21.5776 232.973 20.1218 231.094 19.2025C229.692 18.5168 228.163 18.1526 226.616 18.1278C225.739 18.1138 224.937 17.5171 224.82 16.6482L224.491 14.2044Z" fill="white"/>
</g>
<defs>
<clipPath id="clip0_419_2122">
<rect width="256" height="136" fill="white"/>
</clipPath>
</defs>
</svg>
