<svg width="210" height="146" viewBox="0 0 210 146" fill="none" xmlns="http://www.w3.org/2000/svg">
<path d="M14.0463 49.4404C11.0029 49.4404 8.42776 48.738 6.32082 47.3334C4.24732 45.9288 2.99319 43.7048 2.55843 40.6614L6.32082 39.8086C6.58836 41.4139 7.09002 42.6848 7.82577 43.6212C8.56153 44.5242 9.4645 45.1763 10.5347 45.5776C11.6383 45.9455 12.8089 46.1294 14.0463 46.1294C15.8857 46.1294 17.3404 45.7616 18.4106 45.0258C19.4808 44.2901 20.0159 43.3035 20.0159 42.0661C20.0159 40.7952 19.4975 39.909 18.4608 39.4073C17.4575 38.8722 16.0696 38.4374 14.2971 38.103L12.2403 37.7519C10.6685 37.4843 9.2304 37.0663 7.9261 36.4977C6.62181 35.9292 5.58506 35.16 4.81586 34.1901C4.04666 33.2203 3.66206 31.9996 3.66206 30.5281C3.66206 28.3208 4.51487 26.5985 6.22049 25.361C7.9261 24.1236 10.1835 23.5049 12.9928 23.5049C15.7686 23.5049 18.0093 24.1404 19.7149 25.4112C21.454 26.6486 22.5743 28.4044 23.076 30.6786L19.3638 31.6317C19.0628 29.8592 18.3437 28.6218 17.2067 27.9195C16.0696 27.1837 14.665 26.8158 12.9928 26.8158C11.3206 26.8158 9.9996 27.1336 9.02974 27.769C8.05988 28.371 7.57495 29.2739 7.57495 30.4779C7.57495 31.6484 8.02643 32.518 8.92941 33.0865C9.86583 33.6216 11.1032 34.0229 12.6416 34.2905L14.6984 34.6416C16.4375 34.9426 17.9926 35.3606 19.3638 35.8957C20.7684 36.3974 21.872 37.1332 22.6747 38.103C23.5108 39.0729 23.9288 40.3437 23.9288 41.9156C23.9288 44.3235 23.0258 46.1796 21.2199 47.4839C19.4474 48.7882 17.0562 49.4404 14.0463 49.4404ZM41.9554 49.4404C39.4805 49.4404 37.29 48.922 35.3837 47.8852C33.5109 46.8485 32.0394 45.3937 30.9692 43.5209C29.9324 41.6146 29.4141 39.3739 29.4141 36.7987V36.1466C29.4141 33.6049 29.9324 31.3809 30.9692 29.4746C32.0394 27.5683 33.5109 26.0968 35.3837 25.0601C37.29 24.0233 39.4805 23.5049 41.9554 23.5049C44.4302 23.5049 46.604 24.0233 48.4768 25.0601C50.3831 26.0968 51.8546 27.5683 52.8914 29.4746C53.9616 31.3809 54.4967 33.6049 54.4967 36.1466V36.7987C54.4967 39.3739 53.9616 41.6146 52.8914 43.5209C51.8546 45.3937 50.3831 46.8485 48.4768 47.8852C46.604 48.922 44.4302 49.4404 41.9554 49.4404ZM41.9554 45.8786C44.564 45.8786 46.6374 45.0593 48.1758 43.4205C49.7477 41.7484 50.5336 39.5076 50.5336 36.6984V36.2469C50.5336 33.4376 49.7477 31.2137 48.1758 29.5749C46.6374 27.9028 44.564 27.0667 41.9554 27.0667C39.3802 27.0667 37.3067 27.9028 35.7349 29.5749C34.163 31.2137 33.3771 33.4376 33.3771 36.2469V36.6984C33.3771 39.5076 34.163 41.7484 35.7349 43.4205C37.3067 45.0593 39.3802 45.8786 41.9554 45.8786ZM71.0092 49.1895C69.2367 49.1895 67.598 48.8049 66.0931 48.0357C64.6215 47.2665 63.451 46.1294 62.5815 44.6245C61.7454 43.0861 61.3274 41.23 61.3274 39.0562V24.2072H65.2904V38.7552C65.2904 41.1965 65.8924 42.969 67.0964 44.0727C68.3338 45.1763 69.9892 45.7281 72.0627 45.7281C74.4038 45.7281 76.3268 44.9589 77.8317 43.4205C79.3367 41.8821 80.0891 39.5912 80.0891 36.5479V24.2072H84.0522V48.738H80.1895V44.5743H79.4872C78.9521 45.7448 78.0324 46.815 76.7281 47.7849C75.4238 48.7213 73.5175 49.1895 71.0092 49.1895ZM92.3447 48.738V24.2072H96.2075V28.371H96.9098C97.4449 27.2004 98.3478 26.147 99.6187 25.2106C100.923 24.2407 102.829 23.7558 105.338 23.7558C107.177 23.7558 108.816 24.1404 110.254 24.9096C111.725 25.6788 112.896 26.8158 113.765 28.3208C114.635 29.8258 115.07 31.6819 115.07 33.8891V48.738H111.107V34.1901C111.107 31.7488 110.488 29.9762 109.25 28.8726C108.046 27.769 106.408 27.2172 104.334 27.2172C101.96 27.2172 100.02 27.9864 98.5151 29.5248C97.0436 31.0632 96.3078 33.354 96.3078 36.3974V48.738H92.3447ZM133.494 49.4404C131.387 49.4404 129.448 48.9387 127.675 47.9354C125.903 46.9321 124.498 45.4773 123.461 43.571C122.425 41.6647 121.906 39.4073 121.906 36.7987V36.1466C121.906 33.538 122.425 31.2973 123.461 29.4244C124.498 27.5182 125.886 26.0634 127.625 25.0601C129.398 24.0233 131.354 23.5049 133.494 23.5049C135.2 23.5049 136.638 23.739 137.809 24.2072C139.013 24.642 139.982 25.2106 140.718 25.9129C141.454 26.5817 142.022 27.3008 142.424 28.07H143.126V13.6224H147.089V48.738H143.226V44.6747H142.524C141.855 45.9121 140.818 47.0157 139.414 47.9856C138.009 48.9554 136.036 49.4404 133.494 49.4404ZM134.548 45.9288C137.09 45.9288 139.146 45.1261 140.718 43.5209C142.323 41.8821 143.126 39.608 143.126 36.6984V36.2469C143.126 33.3373 142.323 31.0799 140.718 29.4746C139.146 27.8359 137.09 27.0165 134.548 27.0165C132.04 27.0165 129.966 27.8359 128.327 29.4746C126.722 31.0799 125.919 33.3373 125.919 36.2469V36.6984C125.919 39.608 126.722 41.8821 128.327 43.5209C129.966 45.1261 132.04 45.9288 134.548 45.9288Z" fill="#231F20"/>
<path d="M15.2001 88.7857C12.7921 88.7857 10.6016 88.284 8.62842 87.2807C6.6887 86.2774 5.1503 84.8226 4.01322 82.9164C2.87614 81.0101 2.3076 78.7025 2.3076 75.9936V75.2912C2.3076 72.5823 2.87614 70.2747 4.01322 68.3684C5.1503 66.4622 6.6887 65.0074 8.62842 64.0041C10.6016 63.0008 12.7921 62.4991 15.2001 62.4991C17.5745 62.4991 19.6146 62.9172 21.3202 63.7532C23.0258 64.5893 24.397 65.7431 25.4338 67.2146C26.504 68.6527 27.2063 70.2914 27.5407 72.1308L21.4205 73.4351C21.2868 72.4318 20.9858 71.5289 20.5176 70.7262C20.0494 69.9236 19.3805 69.2881 18.511 68.8199C17.6749 68.3517 16.6214 68.1176 15.3506 68.1176C14.0797 68.1176 12.9259 68.4019 11.8892 68.9704C10.8859 69.5055 10.0832 70.3249 9.48123 71.4285C8.91269 72.4987 8.62842 73.8197 8.62842 75.3916V75.8932C8.62842 77.4651 8.91269 78.8028 9.48123 79.9064C10.0832 80.9766 10.8859 81.796 11.8892 82.3645C12.9259 82.8996 14.0797 83.1672 15.3506 83.1672C17.2568 83.1672 18.6949 82.6823 19.6648 81.7124C20.6681 80.7091 21.3035 79.4048 21.571 77.7995L27.6912 79.2543C27.2564 81.0268 26.504 82.6488 25.4338 84.1203C24.397 85.5584 23.0258 86.6955 21.3202 87.5316C19.6146 88.3676 17.5745 88.7857 15.2001 88.7857ZM44.7442 88.7857C42.2694 88.7857 40.0454 88.284 38.0723 87.2807C36.0991 86.2774 34.544 84.8226 33.4069 82.9164C32.2698 81.0101 31.7013 78.7192 31.7013 76.0437V75.2411C31.7013 72.5656 32.2698 70.2747 33.4069 68.3684C34.544 66.4622 36.0991 65.0074 38.0723 64.0041C40.0454 63.0008 42.2694 62.4991 44.7442 62.4991C47.2191 62.4991 49.443 63.0008 51.4162 64.0041C53.3894 65.0074 54.9445 66.4622 56.0816 68.3684C57.2187 70.2747 57.7872 72.5656 57.7872 75.2411V76.0437C57.7872 78.7192 57.2187 81.0101 56.0816 82.9164C54.9445 84.8226 53.3894 86.2774 51.4162 87.2807C49.443 88.284 47.2191 88.7857 44.7442 88.7857ZM44.7442 83.1672C46.684 83.1672 48.2892 82.5485 49.5601 81.3111C50.8309 80.0402 51.4664 78.2343 51.4664 75.8932V75.3916C51.4664 73.0505 50.8309 71.2613 49.5601 70.0239C48.3227 68.753 46.7174 68.1176 44.7442 68.1176C42.8045 68.1176 41.1992 68.753 39.9284 70.0239C38.6575 71.2613 38.0221 73.0505 38.0221 75.3916V75.8932C38.0221 78.2343 38.6575 80.0402 39.9284 81.3111C41.1992 82.5485 42.8045 83.1672 44.7442 83.1672ZM63.6216 88.0834V52.9677H69.9425V88.0834H63.6216ZM76.9468 88.0834V52.9677H83.2676V88.0834H76.9468ZM101.609 88.7857C99.1344 88.7857 96.9439 88.2673 95.0376 87.2306C93.1648 86.1604 91.6933 84.6721 90.6231 82.7659C89.5863 80.8261 89.0679 78.552 89.0679 75.9434V75.3414C89.0679 72.7328 89.5863 70.4754 90.6231 68.5691C91.6598 66.6294 93.1146 65.1411 94.9874 64.1044C96.8603 63.0342 99.0341 62.4991 101.509 62.4991C103.95 62.4991 106.074 63.0509 107.88 64.1546C109.686 65.2248 111.09 66.7297 112.094 68.6694C113.097 70.5757 113.599 72.7997 113.599 75.3414V77.4985H95.4891C95.556 79.2041 96.1914 80.592 97.3954 81.6622C98.5993 82.7324 100.071 83.2675 101.81 83.2675C103.582 83.2675 104.887 82.8829 105.723 82.1137C106.559 81.3445 107.194 80.4917 107.629 79.5553L112.796 82.2642C112.328 83.1337 111.642 84.0869 110.739 85.1236C109.87 86.1269 108.699 86.9965 107.228 87.7322C105.756 88.4345 103.883 88.7857 101.609 88.7857ZM95.5393 72.783H107.178C107.044 71.3449 106.459 70.1911 105.422 69.3216C104.419 68.4521 103.097 68.0173 101.459 68.0173C99.7531 68.0173 98.3987 68.4521 97.3954 69.3216C96.3921 70.1911 95.7734 71.3449 95.5393 72.783ZM130.913 88.7857C128.505 88.7857 126.315 88.284 124.342 87.2807C122.402 86.2774 120.863 84.8226 119.726 82.9164C118.589 81.0101 118.021 78.7025 118.021 75.9936V75.2912C118.021 72.5823 118.589 70.2747 119.726 68.3684C120.863 66.4622 122.402 65.0074 124.342 64.0041C126.315 63.0008 128.505 62.4991 130.913 62.4991C133.288 62.4991 135.328 62.9172 137.033 63.7532C138.739 64.5893 140.11 65.7431 141.147 67.2146C142.217 68.6527 142.919 70.2914 143.254 72.1308L137.134 73.4351C137 72.4318 136.699 71.5289 136.231 70.7262C135.762 69.9236 135.094 69.2881 134.224 68.8199C133.388 68.3517 132.335 68.1176 131.064 68.1176C129.793 68.1176 128.639 68.4019 127.602 68.9704C126.599 69.5055 125.796 70.3249 125.194 71.4285C124.626 72.4987 124.342 73.8197 124.342 75.3916V75.8932C124.342 77.4651 124.626 78.8028 125.194 79.9064C125.796 80.9766 126.599 81.796 127.602 82.3645C128.639 82.8996 129.793 83.1672 131.064 83.1672C132.97 83.1672 134.408 82.6823 135.378 81.7124C136.381 80.7091 137.017 79.4048 137.284 77.7995L143.404 79.2543C142.97 81.0268 142.217 82.6488 141.147 84.1203C140.11 85.5584 138.739 86.6955 137.033 87.5316C135.328 88.3676 133.288 88.7857 130.913 88.7857ZM157.317 88.0834C155.678 88.0834 154.34 87.5817 153.304 86.5784C152.3 85.5417 151.799 84.1705 151.799 82.4649V68.4186H145.578V63.2014H151.799V55.476H158.12V63.2014H164.942V68.4186H158.12V81.3612C158.12 82.3645 158.588 82.8662 159.524 82.8662H164.34V88.0834H157.317Z" fill="#231F20"/>
<path d="M7.2474 118.283C6.08278 118.283 5.0598 118.039 4.17847 117.551C3.29713 117.047 2.61253 116.347 2.12464 115.45C1.63676 114.553 1.39282 113.514 1.39282 112.334V112.051C1.39282 110.855 1.63676 109.808 2.12464 108.911C2.61253 108.014 3.28926 107.321 4.15486 106.833C5.02046 106.33 6.01196 106.078 7.12936 106.078C8.21529 106.078 9.17532 106.314 10.0094 106.786C10.8436 107.243 11.4967 107.904 11.9688 108.769C12.441 109.635 12.677 110.65 12.677 111.815V112.664H3.25779C3.305 113.908 3.70632 114.883 4.46175 115.592C5.21718 116.284 6.16147 116.63 7.29461 116.63C8.28611 116.63 9.04941 116.402 9.58451 115.946C10.1196 115.489 10.5288 114.946 10.8121 114.317L12.4174 115.096C12.1813 115.584 11.8508 116.072 11.4259 116.56C11.0167 117.047 10.4737 117.457 9.79697 117.787C9.13597 118.118 8.28611 118.283 7.2474 118.283ZM3.2814 111.13H10.7885C10.7255 110.06 10.3557 109.226 9.67893 108.628C9.01793 108.03 8.16808 107.73 7.12936 107.73C6.07491 107.73 5.20931 108.03 4.53257 108.628C3.85584 109.226 3.43878 110.06 3.2814 111.13ZM15.93 117.952V101.427H17.795V117.952H15.93ZM32.3359 118.283C30.8093 118.283 29.5581 117.952 28.5824 117.291C27.6066 116.63 27.0164 115.686 26.8118 114.459L29.5503 113.75C29.6604 114.301 29.8414 114.734 30.0932 115.049C30.3608 115.363 30.6834 115.592 31.0611 115.733C31.4546 115.859 31.8795 115.922 32.3359 115.922C33.0284 115.922 33.5399 115.804 33.8704 115.568C34.2009 115.316 34.3661 115.009 34.3661 114.647C34.3661 114.285 34.2087 114.01 33.894 113.821C33.5792 113.617 33.0756 113.451 32.3831 113.325L31.7221 113.207C30.9037 113.05 30.1562 112.838 29.4794 112.57C28.8027 112.287 28.2597 111.901 27.8505 111.413C27.4414 110.925 27.2368 110.296 27.2368 109.525C27.2368 108.36 27.6617 107.471 28.5115 106.857C29.3614 106.228 30.4788 105.913 31.8638 105.913C33.17 105.913 34.256 106.204 35.1215 106.786C35.9871 107.369 36.5537 108.132 36.8213 109.076L34.0592 109.926C33.9333 109.328 33.6736 108.903 33.2802 108.651C32.9025 108.399 32.4303 108.273 31.8638 108.273C31.2972 108.273 30.8644 108.376 30.5654 108.58C30.2663 108.769 30.1168 109.037 30.1168 109.383C30.1168 109.761 30.2742 110.044 30.589 110.233C30.9037 110.406 31.3287 110.54 31.8638 110.634L32.5248 110.752C33.4061 110.91 34.2009 111.122 34.9091 111.39C35.633 111.641 36.1996 112.011 36.6088 112.499C37.0337 112.971 37.2462 113.617 37.2462 114.435C37.2462 115.662 36.7977 116.615 35.9006 117.291C35.0193 117.952 33.831 118.283 32.3359 118.283ZM45.424 118.283C44.2594 118.283 43.2128 118.047 42.2843 117.575C41.3557 117.103 40.6239 116.418 40.0888 115.521C39.5537 114.624 39.2862 113.546 39.2862 112.287V111.909C39.2862 110.65 39.5537 109.572 40.0888 108.675C40.6239 107.778 41.3557 107.093 42.2843 106.621C43.2128 106.149 44.2594 105.913 45.424 105.913C46.5887 105.913 47.6352 106.149 48.5638 106.621C49.4923 107.093 50.2242 107.778 50.7593 108.675C51.2944 109.572 51.5619 110.65 51.5619 111.909V112.287C51.5619 113.546 51.2944 114.624 50.7593 115.521C50.2242 116.418 49.4923 117.103 48.5638 117.575C47.6352 118.047 46.5887 118.283 45.424 118.283ZM45.424 115.639C46.3369 115.639 47.0923 115.348 47.6903 114.765C48.2884 114.167 48.5874 113.318 48.5874 112.216V111.98C48.5874 110.878 48.2884 110.036 47.6903 109.454C47.108 108.856 46.3526 108.557 45.424 108.557C44.5112 108.557 43.7558 108.856 43.1578 109.454C42.5597 110.036 42.2607 110.878 42.2607 111.98V112.216C42.2607 113.318 42.5597 114.167 43.1578 114.765C43.7558 115.348 44.5112 115.639 45.424 115.639ZM54.3075 117.952V106.243H57.2348V107.778H57.6597C57.8486 107.369 58.2027 106.983 58.7221 106.621C59.2414 106.243 60.0283 106.054 61.0828 106.054C61.9956 106.054 62.7904 106.267 63.4671 106.692C64.1596 107.101 64.6947 107.675 65.0724 108.415C65.4501 109.139 65.639 109.989 65.639 110.965V117.952H62.6645V111.201C62.6645 110.319 62.4441 109.658 62.0035 109.218C61.5785 108.777 60.9647 108.557 60.1621 108.557C59.2493 108.557 58.5411 108.864 58.0375 109.477C57.5338 110.075 57.282 110.917 57.282 112.003V117.952H54.3075ZM68.8545 117.952V106.243H71.829V117.952H68.8545ZM70.3418 104.874C69.8067 104.874 69.3503 104.701 68.9725 104.355C68.6106 104.008 68.4296 103.552 68.4296 102.985C68.4296 102.419 68.6106 101.962 68.9725 101.616C69.3503 101.27 69.8067 101.097 70.3418 101.097C70.8926 101.097 71.349 101.27 71.711 101.616C72.073 101.962 72.2539 102.419 72.2539 102.985C72.2539 103.552 72.073 104.008 71.711 104.355C71.349 104.701 70.8926 104.874 70.3418 104.874ZM79.8466 118.283C78.918 118.283 78.0446 118.055 77.2262 117.598C76.4236 117.126 75.7783 116.442 75.2904 115.544C74.8025 114.647 74.5586 113.561 74.5586 112.287V111.909C74.5586 110.634 74.8025 109.548 75.2904 108.651C75.7783 107.754 76.4236 107.077 77.2262 106.621C78.0288 106.149 78.9023 105.913 79.8466 105.913C80.5548 105.913 81.145 105.999 81.6171 106.172C82.105 106.33 82.4985 106.534 82.7975 106.786C83.0965 107.038 83.3247 107.306 83.4821 107.589H83.907V101.427H86.8815V117.952H83.9542V116.536H83.5293C83.2618 116.977 82.8447 117.378 82.2781 117.74C81.7273 118.102 80.9168 118.283 79.8466 118.283ZM80.7437 115.686C81.6565 115.686 82.4198 115.395 83.0336 114.813C83.6473 114.215 83.9542 113.349 83.9542 112.216V111.98C83.9542 110.847 83.6473 109.989 83.0336 109.407C82.4355 108.809 81.6722 108.51 80.7437 108.51C79.8309 108.51 79.0676 108.809 78.4538 109.407C77.84 109.989 77.5331 110.847 77.5331 111.98V112.216C77.5331 113.349 77.84 114.215 78.4538 114.813C79.0676 115.395 79.8309 115.686 80.7437 115.686ZM95.7506 118.283C94.586 118.283 93.5394 118.047 92.6109 117.575C91.6823 117.103 90.9505 116.418 90.4154 115.521C89.8803 114.624 89.6128 113.546 89.6128 112.287V111.909C89.6128 110.65 89.8803 109.572 90.4154 108.675C90.9505 107.778 91.6823 107.093 92.6109 106.621C93.5394 106.149 94.586 105.913 95.7506 105.913C96.9153 105.913 97.9618 106.149 98.8904 106.621C99.8189 107.093 100.551 107.778 101.086 108.675C101.621 109.572 101.888 110.65 101.888 111.909V112.287C101.888 113.546 101.621 114.624 101.086 115.521C100.551 116.418 99.8189 117.103 98.8904 117.575C97.9618 118.047 96.9153 118.283 95.7506 118.283ZM95.7506 115.639C96.6634 115.639 97.4189 115.348 98.0169 114.765C98.615 114.167 98.914 113.318 98.914 112.216V111.98C98.914 110.878 98.615 110.036 98.0169 109.454C97.4346 108.856 96.6792 108.557 95.7506 108.557C94.8378 108.557 94.0824 108.856 93.4843 109.454C92.8863 110.036 92.5873 110.878 92.5873 111.98V112.216C92.5873 113.318 92.8863 114.167 93.4843 114.765C94.0824 115.348 94.8378 115.639 95.7506 115.639ZM115.891 118.283C114.899 118.283 113.987 118.047 113.152 117.575C112.318 117.103 111.657 116.418 111.169 115.521C110.682 114.624 110.438 113.561 110.438 112.334V112.027C110.438 110.799 110.682 109.745 111.169 108.864C111.657 107.967 112.31 107.282 113.129 106.81C113.963 106.322 114.884 106.078 115.891 106.078C116.693 106.078 117.37 106.188 117.921 106.408C118.488 106.613 118.944 106.881 119.29 107.211C119.637 107.526 119.904 107.864 120.093 108.226H120.423V101.427H122.288V117.952H120.471V116.04H120.14C119.825 116.623 119.337 117.142 118.676 117.598C118.015 118.055 117.087 118.283 115.891 118.283ZM116.387 116.63C117.583 116.63 118.551 116.253 119.29 115.497C120.046 114.726 120.423 113.656 120.423 112.287V112.074C120.423 110.705 120.046 109.643 119.29 108.887C118.551 108.116 117.583 107.73 116.387 107.73C115.206 107.73 114.23 108.116 113.459 108.887C112.704 109.643 112.326 110.705 112.326 112.074V112.287C112.326 113.656 112.704 114.726 113.459 115.497C114.23 116.253 115.206 116.63 116.387 116.63ZM131.485 118.283C130.32 118.283 129.297 118.039 128.416 117.551C127.534 117.047 126.85 116.347 126.362 115.45C125.874 114.553 125.63 113.514 125.63 112.334V112.051C125.63 110.855 125.874 109.808 126.362 108.911C126.85 108.014 127.527 107.321 128.392 106.833C129.258 106.33 130.249 106.078 131.367 106.078C132.453 106.078 133.413 106.314 134.247 106.786C135.081 107.243 135.734 107.904 136.206 108.769C136.678 109.635 136.914 110.65 136.914 111.815V112.664H127.495C127.542 113.908 127.944 114.883 128.699 115.592C129.454 116.284 130.399 116.63 131.532 116.63C132.523 116.63 133.287 116.402 133.822 115.946C134.357 115.489 134.766 114.946 135.049 114.317L136.655 115.096C136.419 115.584 136.088 116.072 135.663 116.56C135.254 117.047 134.711 117.457 134.034 117.787C133.373 118.118 132.523 118.283 131.485 118.283ZM127.519 111.13H135.026C134.963 110.06 134.593 109.226 133.916 108.628C133.255 108.03 132.405 107.73 131.367 107.73C130.312 107.73 129.447 108.03 128.77 108.628C128.093 109.226 127.676 110.06 127.519 111.13ZM146.23 117.952V101.427H148.095V117.952H146.23ZM155.558 118.283C154.755 118.283 154.024 118.141 153.363 117.858C152.702 117.575 152.182 117.165 151.805 116.63C151.427 116.095 151.238 115.442 151.238 114.671C151.238 113.884 151.427 113.239 151.805 112.735C152.182 112.216 152.702 111.83 153.363 111.578C154.024 111.311 154.763 111.177 155.582 111.177H159.477V110.327C159.477 109.509 159.233 108.864 158.745 108.391C158.273 107.919 157.565 107.683 156.62 107.683C155.692 107.683 154.968 107.911 154.449 108.368C153.929 108.809 153.575 109.407 153.386 110.162L151.639 109.595C151.828 108.95 152.127 108.368 152.536 107.849C152.946 107.313 153.489 106.889 154.165 106.574C154.858 106.243 155.684 106.078 156.644 106.078C158.123 106.078 159.272 106.464 160.091 107.235C160.909 107.99 161.318 109.06 161.318 110.445V115.662C161.318 116.135 161.539 116.371 161.979 116.371H163.042V117.952H161.413C160.893 117.952 160.476 117.811 160.161 117.527C159.847 117.228 159.689 116.835 159.689 116.347V116.229H159.406C159.233 116.528 158.997 116.843 158.698 117.173C158.415 117.488 158.021 117.748 157.517 117.952C157.014 118.173 156.361 118.283 155.558 118.283ZM155.771 116.678C156.872 116.678 157.761 116.355 158.438 115.71C159.131 115.049 159.477 114.128 159.477 112.948V112.688H155.652C154.913 112.688 154.299 112.853 153.811 113.184C153.339 113.499 153.103 113.979 153.103 114.624C153.103 115.269 153.347 115.773 153.835 116.135C154.338 116.497 154.984 116.678 155.771 116.678Z" fill="#231F20"/>
<path d="M7.15297 138.939C6.01983 138.939 4.98898 138.703 4.06043 138.231C3.14762 137.759 2.42367 137.074 1.88857 136.177C1.35348 135.28 1.08593 134.194 1.08593 132.919V132.589C1.08593 131.314 1.35348 130.228 1.88857 129.331C2.42367 128.434 3.14762 127.749 4.06043 127.277C4.98898 126.805 6.01983 126.569 7.15297 126.569C8.27037 126.569 9.2304 126.766 10.033 127.159C10.8357 127.553 11.4809 128.096 11.9688 128.788C12.4724 129.465 12.8029 130.236 12.9603 131.102L10.0803 131.715C10.0173 131.243 9.87566 130.818 9.65533 130.441C9.43499 130.063 9.12023 129.764 8.71104 129.544C8.31759 129.323 7.82184 129.213 7.22379 129.213C6.62574 129.213 6.08278 129.347 5.5949 129.614C5.12275 129.866 4.74504 130.252 4.46175 130.771C4.19421 131.275 4.06043 131.896 4.06043 132.636V132.872C4.06043 133.612 4.19421 134.241 4.46175 134.761C4.74504 135.264 5.12275 135.65 5.5949 135.918C6.08278 136.169 6.62574 136.295 7.22379 136.295C8.12086 136.295 8.7976 136.067 9.25401 135.611C9.72615 135.139 10.0252 134.525 10.1511 133.769L13.0312 134.454C12.8266 135.288 12.4724 136.051 11.9688 136.744C11.4809 137.421 10.8357 137.956 10.033 138.349C9.2304 138.743 8.27037 138.939 7.15297 138.939ZM21.0561 138.939C19.8915 138.939 18.8449 138.703 17.9164 138.231C16.9878 137.759 16.256 137.074 15.7209 136.177C15.1858 135.28 14.9182 134.202 14.9182 132.943V132.565C14.9182 131.306 15.1858 130.228 15.7209 129.331C16.256 128.434 16.9878 127.749 17.9164 127.277C18.8449 126.805 19.8915 126.569 21.0561 126.569C22.2207 126.569 23.2673 126.805 24.1959 127.277C25.1244 127.749 25.8562 128.434 26.3913 129.331C26.9264 130.228 27.194 131.306 27.194 132.565V132.943C27.194 134.202 26.9264 135.28 26.3913 136.177C25.8562 137.074 25.1244 137.759 24.1959 138.231C23.2673 138.703 22.2207 138.939 21.0561 138.939ZM21.0561 136.295C21.9689 136.295 22.7243 136.004 23.3224 135.422C23.9204 134.824 24.2195 133.974 24.2195 132.872V132.636C24.2195 131.534 23.9204 130.692 23.3224 130.11C22.7401 129.512 21.9847 129.213 21.0561 129.213C20.1433 129.213 19.3879 129.512 18.7898 130.11C18.1918 130.692 17.8927 131.534 17.8927 132.636V132.872C17.8927 133.974 18.1918 134.824 18.7898 135.422C19.3879 136.004 20.1433 136.295 21.0561 136.295ZM29.9396 138.609V126.9H32.8669V128.174H33.2918C33.4964 127.781 33.8348 127.443 34.3069 127.159C34.7791 126.86 35.4007 126.711 36.1719 126.711C37.006 126.711 37.6749 126.876 38.1785 127.207C38.6821 127.521 39.0677 127.938 39.3352 128.458H39.7602C40.0277 127.954 40.4054 127.537 40.8933 127.207C41.3812 126.876 42.0737 126.711 42.9707 126.711C43.6947 126.711 44.3478 126.868 44.9301 127.183C45.5282 127.482 46.0003 127.946 46.3466 128.576C46.7085 129.19 46.8895 129.969 46.8895 130.913V138.609H43.915V131.125C43.915 130.48 43.7498 130 43.4193 129.685C43.0888 129.355 42.6245 129.19 42.0265 129.19C41.3497 129.19 40.8225 129.41 40.4448 129.851C40.0828 130.275 39.9018 130.889 39.9018 131.692V138.609H36.9273V131.125C36.9273 130.48 36.7621 130 36.4316 129.685C36.1011 129.355 35.6368 129.19 35.0387 129.19C34.362 129.19 33.8348 129.41 33.4571 129.851C33.0951 130.275 32.9141 130.889 32.9141 131.692V138.609H29.9396ZM54.366 138.798C53.4532 138.798 52.6505 138.593 51.9581 138.184C51.2813 137.759 50.7541 137.177 50.3764 136.437C49.9987 135.697 49.8098 134.847 49.8098 133.887V126.9H52.7843V133.651C52.7843 134.533 52.9968 135.194 53.4217 135.634C53.8624 136.075 54.484 136.295 55.2867 136.295C56.1995 136.295 56.9077 135.996 57.4113 135.398C57.9149 134.784 58.1667 133.935 58.1667 132.849V126.9H61.1412V138.609H58.214V137.074H57.789C57.6002 137.468 57.2461 137.853 56.7267 138.231C56.2073 138.609 55.4204 138.798 54.366 138.798ZM64.4512 138.609V126.9H67.3785V128.434H67.8034C67.9923 128.025 68.3464 127.639 68.8658 127.277C69.3851 126.9 70.172 126.711 71.2265 126.711C72.1393 126.711 72.9341 126.923 73.6108 127.348C74.3033 127.757 74.8384 128.332 75.2161 129.071C75.5938 129.795 75.7827 130.645 75.7827 131.621V138.609H72.8082V131.857C72.8082 130.976 72.5878 130.315 72.1472 129.874C71.7222 129.433 71.1084 129.213 70.3058 129.213C69.393 129.213 68.6848 129.52 68.1812 130.134C67.6775 130.732 67.4257 131.574 67.4257 132.66V138.609H64.4512ZM78.9982 138.609V126.9H81.9727V138.609H78.9982ZM80.4855 125.53C79.9504 125.53 79.494 125.357 79.1162 125.011C78.7543 124.665 78.5733 124.208 78.5733 123.642C78.5733 123.075 78.7543 122.619 79.1162 122.273C79.494 121.926 79.9504 121.753 80.4855 121.753C81.0363 121.753 81.4927 121.926 81.8547 122.273C82.2167 122.619 82.3976 123.075 82.3976 123.642C82.3976 124.208 82.2167 124.665 81.8547 125.011C81.4927 125.357 81.0363 125.53 80.4855 125.53ZM89.9903 138.939C89.0617 138.939 88.1883 138.711 87.3699 138.255C86.5673 137.783 85.922 137.098 85.4341 136.201C84.9462 135.304 84.7023 134.218 84.7023 132.943V132.565C84.7023 131.291 84.9462 130.205 85.4341 129.308C85.922 128.41 86.5673 127.734 87.3699 127.277C88.1725 126.805 89.046 126.569 89.9903 126.569C90.6985 126.569 91.2887 126.656 91.7608 126.829C92.2487 126.986 92.6422 127.191 92.9412 127.443C93.2402 127.694 93.4684 127.962 93.6258 128.245H94.0507V122.084H97.0252V138.609H94.0979V137.192H93.673C93.4055 137.633 92.9884 138.034 92.4218 138.396C91.871 138.758 91.0605 138.939 89.9903 138.939ZM90.8874 136.342C91.8002 136.342 92.5635 136.051 93.1773 135.469C93.791 134.871 94.0979 134.005 94.0979 132.872V132.636C94.0979 131.503 93.791 130.645 93.1773 130.063C92.5792 129.465 91.8159 129.166 90.8874 129.166C89.9746 129.166 89.2113 129.465 88.5975 130.063C87.9837 130.645 87.6768 131.503 87.6768 132.636V132.872C87.6768 134.005 87.9837 134.871 88.5975 135.469C89.2113 136.051 89.9746 136.342 90.8874 136.342ZM103.959 138.939C103.124 138.939 102.377 138.798 101.716 138.514C101.055 138.215 100.528 137.79 100.134 137.24C99.7565 136.673 99.5676 135.988 99.5676 135.186C99.5676 134.383 99.7565 133.714 100.134 133.179C100.528 132.628 101.063 132.219 101.739 131.952C102.432 131.668 103.219 131.527 104.1 131.527H107.311V130.866C107.311 130.315 107.138 129.866 106.791 129.52C106.445 129.158 105.894 128.977 105.139 128.977C104.399 128.977 103.848 129.15 103.486 129.496C103.124 129.827 102.888 130.26 102.778 130.795L100.04 129.874C100.229 129.276 100.528 128.733 100.937 128.245C101.362 127.742 101.92 127.34 102.613 127.041C103.321 126.726 104.179 126.569 105.186 126.569C106.728 126.569 107.948 126.955 108.845 127.726C109.742 128.497 110.191 129.614 110.191 131.078V135.445C110.191 135.918 110.411 136.154 110.852 136.154H111.796V138.609H109.813C109.231 138.609 108.751 138.467 108.373 138.184C107.995 137.901 107.807 137.523 107.807 137.051V137.027H107.358C107.295 137.216 107.153 137.468 106.933 137.783C106.713 138.082 106.366 138.349 105.894 138.585C105.422 138.821 104.777 138.939 103.959 138.939ZM104.478 136.531C105.312 136.531 105.989 136.303 106.508 135.847C107.043 135.375 107.311 134.753 107.311 133.982V133.746H104.313C103.762 133.746 103.329 133.864 103.014 134.1C102.699 134.336 102.542 134.666 102.542 135.091C102.542 135.516 102.707 135.862 103.038 136.13C103.368 136.398 103.848 136.531 104.478 136.531ZM118.462 138.939C117.533 138.939 116.66 138.711 115.841 138.255C115.039 137.783 114.394 137.098 113.906 136.201C113.418 135.304 113.174 134.218 113.174 132.943V132.565C113.174 131.291 113.418 130.205 113.906 129.308C114.394 128.41 115.039 127.734 115.841 127.277C116.644 126.805 117.518 126.569 118.462 126.569C119.17 126.569 119.76 126.656 120.232 126.829C120.72 126.986 121.114 127.191 121.413 127.443C121.712 127.694 121.94 127.962 122.097 128.245H122.522V122.084H125.497V138.609H122.569V137.192H122.145C121.877 137.633 121.46 138.034 120.893 138.396C120.343 138.758 119.532 138.939 118.462 138.939ZM119.359 136.342C120.272 136.342 121.035 136.051 121.649 135.469C122.263 134.871 122.569 134.005 122.569 132.872V132.636C122.569 131.503 122.263 130.645 121.649 130.063C121.051 129.465 120.287 129.166 119.359 129.166C118.446 129.166 117.683 129.465 117.069 130.063C116.455 130.645 116.148 131.503 116.148 132.636V132.872C116.148 134.005 116.455 134.871 117.069 135.469C117.683 136.051 118.446 136.342 119.359 136.342Z" fill="#231F20"/>
<rect x="159.348" y="16.9364" width="32.7597" height="32.7597" rx="8.93447" fill="#FF9146"/>
<path fill-rule="evenodd" clip-rule="evenodd" d="M184.551 9.53164C184.447 8.76019 184.988 8.04317 185.766 8.01502C188.127 7.92959 190.48 8.42616 192.615 9.47059C195.173 10.7222 197.303 12.7042 198.735 15.1662C199.929 17.2206 200.593 19.5322 200.677 21.8929C200.705 22.6709 200.029 23.2625 199.252 23.214L197.066 23.0777C196.29 23.0293 195.71 22.3573 195.642 21.5819C195.521 20.2133 195.101 18.8817 194.405 17.6841C193.471 16.0785 192.082 14.7859 190.414 13.9696C189.169 13.3608 187.811 13.0374 186.437 13.0154C185.659 13.0029 184.947 12.4731 184.843 11.7016L184.551 9.53164Z" fill="#FF9146"/>
<path fill-rule="evenodd" clip-rule="evenodd" d="M190.452 2.84524C190.348 2.07379 190.89 1.35677 191.668 1.32862C194.029 1.24319 196.382 1.73976 198.517 2.78418C201.075 4.03576 203.205 6.01783 204.636 8.47976C205.831 10.5342 206.495 12.8458 206.579 15.2065C206.607 15.9845 205.931 16.5761 205.154 16.5276L202.968 16.3913C202.191 16.3429 201.612 15.6709 201.544 14.8955C201.423 13.5269 201.003 12.1953 200.307 10.9977C199.373 9.39213 197.984 8.09947 196.316 7.28323C195.071 6.67442 193.713 6.35104 192.339 6.32901C191.561 6.31652 190.849 5.78668 190.745 5.01523L190.452 2.84524Z" fill="#FF9146"/>
</svg>
