<svg width="131" height="48" viewBox="0 0 131 48" fill="none" xmlns="http://www.w3.org/2000/svg">
<g clip-path="url(#clip0_26_716)">
<path d="M56.1362 47.5002H49.0552C49.0552 42.5818 49.0584 37.6815 49.0552 32.7829C49.0503 27.8958 49.0372 23.0087 49.0275 18.0821H45.7166C45.6221 17.7632 45.5993 12.8859 45.6856 12.3221H49.034C49.034 12.1232 49.034 11.9769 49.034 11.8306C49.0405 10.7506 49.034 9.67221 49.0568 8.59221C49.0796 7.52208 49.2522 6.47002 49.5649 5.44756C50.3433 2.90126 52.0582 1.3166 54.5744 0.591666C56.7159 -0.0214848 58.8999 -0.118471 61.1017 0.118241C61.7059 0.183995 62.3068 0.292488 62.9029 0.381255C62.9859 0.668926 63.0201 5.12043 62.9436 5.91769C62.7807 5.91769 62.6114 5.91769 62.442 5.91769C61.2222 5.91769 60.004 5.90454 58.7842 5.9292C58.1344 5.94235 57.5302 6.14126 57.0172 6.56701C56.4456 7.04043 56.2127 7.68317 56.1443 8.39824C56.1231 8.61523 56.1248 8.8355 56.1248 9.05413C56.1264 19.3971 56.1297 29.7402 56.1313 40.0832C56.1313 42.447 56.1345 44.8108 56.1345 47.1747C56.1345 47.2684 56.1345 47.3621 56.1345 47.5018L56.1362 47.5002Z" fill="white"/>
<path d="M86.7302 47.9985V42.2714C86.7644 42.2467 86.7937 42.2122 86.8295 42.2024C87.9532 41.9081 88.4842 41.1092 88.5916 40.0078C88.6633 39.2615 88.6568 38.5087 88.66 37.7574C88.6633 37.1574 88.6568 36.5558 88.6096 35.9574C88.52 34.8067 87.8767 34.0769 86.81 33.7218C86.0266 33.4604 85.2352 33.2171 84.4404 32.9903C83.0561 32.5941 81.6995 32.1322 80.4162 31.4648C79.3821 30.9256 78.4652 30.2451 77.703 29.3459C76.848 28.3366 76.4034 27.1514 76.1526 25.8758C75.9946 25.0703 75.9262 24.255 75.9409 23.4314C75.9588 22.3793 75.9409 21.3273 75.9767 20.2752C76.0158 19.0966 76.2112 17.9393 76.5646 16.8133C76.8838 15.7958 77.3985 14.89 78.1199 14.1059C78.8886 13.2692 79.8576 12.7711 80.9146 12.4226C81.9129 12.0939 82.9421 11.9328 83.9844 11.8489C84.1017 11.8391 84.2206 11.8489 84.3655 11.8489V17.6089C84.3476 17.6237 84.3313 17.65 84.3085 17.6582C83.377 17.9755 82.9552 18.6873 82.9096 19.6193C82.846 20.9426 82.8249 22.2676 82.8216 23.5925C82.8216 23.9952 82.9144 24.4062 83.0138 24.8024C83.2043 25.5536 83.6766 26.0911 84.3932 26.3591C85.0006 26.5859 85.6325 26.7503 86.2563 26.9295C87.4402 27.2714 88.6503 27.5262 89.7968 27.9914C90.7804 28.3908 91.7201 28.861 92.5426 29.558C93.7151 30.5508 94.4757 31.7854 94.8486 33.2796C95.0522 34.0917 95.1662 34.9152 95.1743 35.7503C95.1841 36.9256 95.1988 38.101 95.176 39.2747C95.1483 40.7311 94.9154 42.153 94.4138 43.5273C93.7314 45.398 92.4302 46.6193 90.5866 47.2785C89.4304 47.6928 88.235 47.9229 87.0119 48.0002C86.9321 48.0051 86.8507 48.0002 86.7237 48.0002L86.7302 47.9985Z" fill="white"/>
<path d="M64.9526 12.3334H71.9311C71.9473 12.3532 71.9571 12.363 71.9653 12.3729C71.9734 12.3827 71.9881 12.3926 71.9897 12.4041C71.9978 12.4715 72.0092 12.5389 72.0092 12.6063C72.0092 24.22 72.0092 35.8353 72.0092 47.4425C71.7096 47.5329 65.5862 47.5641 64.9526 47.4803V12.3334Z" fill="white"/>
<path d="M99.2827 12.3334H106.261C106.277 12.3515 106.286 12.3614 106.295 12.3712C106.303 12.3811 106.318 12.391 106.32 12.4025C106.328 12.4567 106.339 12.511 106.339 12.5636C106.339 24.1921 106.339 35.8206 106.339 47.4425C106.041 47.5345 99.939 47.5658 99.2827 47.4819V12.3334Z" fill="white"/>
<path d="M122.378 17.7681V11.8174C122.815 11.8585 123.231 11.8717 123.637 11.944C124.236 12.0509 124.831 12.1906 125.422 12.3353C126.358 12.5637 127.197 12.9977 127.953 13.5961C128.741 14.2207 129.275 15.0361 129.661 15.9533C130.172 17.1698 130.457 18.4503 130.568 19.7605C130.651 20.7533 130.69 21.7511 130.692 22.7473C130.7 27.0098 130.689 31.2722 130.681 35.5347C130.674 39.4142 130.663 43.2953 130.653 47.1747C130.653 47.2684 130.653 47.3621 130.653 47.4476C130.335 47.5298 124.262 47.5544 123.645 47.4755V46.9659C123.645 38.127 123.645 29.2865 123.64 20.4476C123.64 20.0416 123.588 19.6306 123.518 19.2295C123.415 18.6311 123.087 18.1774 122.552 17.8832C122.494 17.8503 122.44 17.8092 122.376 17.7665L122.378 17.7681Z" fill="white"/>
<path d="M120.978 26.742V31.6965C120.609 31.9086 120.259 32.1108 119.905 32.3113C118.597 33.056 117.817 34.1787 117.531 35.6615C117.238 37.1787 117.19 38.7009 117.48 40.2182C117.56 40.6341 117.757 41.0516 117.988 41.4099C118.606 42.3732 119.545 42.6083 120.617 42.4686C120.71 42.4571 120.804 42.4423 120.897 42.4308C120.91 42.4308 120.923 42.4341 120.978 42.4439C120.987 42.5656 121.001 42.6987 121.001 42.8302C121.001 43.9645 120.993 45.0971 121.001 46.2313C121.003 46.4762 120.918 46.639 120.741 46.7919C120.018 47.4132 119.172 47.7683 118.244 47.8916C116.883 48.0724 115.539 47.9639 114.243 47.479C112.749 46.9184 111.787 45.8286 111.23 44.3491C110.863 43.3743 110.648 42.3617 110.495 41.3343C110.235 39.5804 110.21 37.8247 110.481 36.0708C110.643 35.0154 110.906 33.9864 111.411 33.0346C112.103 31.7278 113.098 30.7036 114.304 29.8784C115.953 28.7524 117.767 27.9634 119.612 27.2401C120.05 27.0691 120.495 26.9162 120.975 26.7404L120.978 26.742Z" fill="white"/>
<path d="M111.298 25.5056C111.28 24.7921 111.253 24.1527 111.253 23.5116C111.253 22.5286 111.244 21.5439 111.287 20.5609C111.347 19.162 111.593 17.796 112.078 16.4776C112.897 14.2535 114.458 12.8858 116.726 12.299C117.583 12.0771 118.448 11.9291 119.327 11.8552C119.446 11.8453 119.566 11.8552 119.715 11.8552V17.5527C119.698 17.5691 119.68 17.5954 119.658 17.6053C118.834 17.9209 118.443 18.5702 118.301 19.402C118.251 19.6979 118.21 19.9987 118.208 20.2962C118.198 21.8941 118.2 23.4919 118.198 25.0913C118.198 25.1998 118.198 25.3083 118.198 25.4743C117.433 25.5401 116.681 25.4957 115.93 25.5039C115.158 25.5121 114.384 25.5056 113.612 25.5056H111.298Z" fill="white"/>
<path d="M94.8494 25.481H88.4328C88.4328 25.3265 88.4328 25.1967 88.4328 25.0651C88.4328 23.5643 88.4328 22.0619 88.4263 20.561C88.4246 20.2487 88.4002 19.9331 88.3562 19.624C88.2374 18.7742 87.9361 18.0377 87.0566 17.6958V11.829C87.3563 11.8569 87.6348 11.8701 87.9084 11.9112C88.8074 12.0443 89.6917 12.2301 90.5418 12.5703C92.0678 13.1835 93.1263 14.2832 93.8185 15.761C94.3038 16.795 94.5334 17.9046 94.6979 19.0273C94.9764 20.926 94.9536 22.8377 94.9129 24.7495C94.908 24.9797 94.8738 25.2098 94.851 25.4827L94.8494 25.481Z" fill="white"/>
<path d="M76.1772 34.264H82.382C82.382 34.4333 82.3836 34.5779 82.382 34.7226C82.3641 36.0196 82.3315 37.3166 82.3364 38.6136C82.3364 39.1429 82.382 39.6788 82.4683 40.2015C82.6165 41.0925 83.0856 41.7615 83.9324 42.1264C83.9552 42.1363 83.9731 42.161 84.0171 42.1988V47.9769C83.921 47.9851 83.8184 48.0097 83.7174 48.0015C82.3397 47.8881 81.0156 47.5544 79.7926 46.8985C78.3692 46.1358 77.4784 44.9095 76.9572 43.3988C76.4589 41.9571 76.2 40.4645 76.156 38.944C76.1169 37.5796 76.1413 36.2136 76.1413 34.8475C76.1413 34.6601 76.1641 34.4727 76.1772 34.2623V34.264Z" fill="white"/>
<path d="M64.686 6.68386V0.66578C64.9694 0.577013 71.3355 0.539204 72.1921 0.619752C72.2866 0.938656 72.3191 6.09537 72.2263 6.68386H64.686Z" fill="white"/>
<path d="M99.0234 0.611572H106.567V6.6839H99.0234V0.611572Z" fill="white"/>
<path d="M58.7134 18.0458V12.34H61.6806C61.7653 12.6408 61.7865 17.528 61.7051 18.0458H58.7134Z" fill="white"/>
<path d="M24.3791 1.97462C25.5385 1.94257 26.6809 2.2603 27.6604 2.88718C28.6399 3.51406 29.4119 4.42159 29.8777 5.49371C30.3434 6.56583 30.4817 7.75381 30.275 8.90572C30.0682 10.0576 29.5258 11.1211 28.717 11.9602C27.9082 12.7992 26.8698 13.3757 25.7347 13.6158C24.5996 13.856 23.4193 13.749 22.3448 13.3084C21.2703 12.8678 20.3503 12.1138 19.7027 11.1426C19.055 10.1715 18.7091 9.02746 18.7091 7.8568C18.6985 7.09472 18.8368 6.33801 19.1161 5.62991C19.3954 4.92181 19.8101 4.27618 20.3367 3.72993C20.8632 3.18368 21.4913 2.7475 22.1849 2.44631C22.8785 2.14513 23.6241 1.98485 24.3791 1.97462Z" fill="#A0DF87"/>
<path d="M5.40576 34.565V29.359H11.8297C11.8549 28.0519 11.8675 26.7447 11.8675 25.4376C11.8675 24.1304 11.8612 22.9674 11.8486 21.9486C11.8374 20.9297 11.8192 20.2076 11.794 19.7822C11.8033 18.8377 11.5501 17.9095 11.0632 17.1029C10.5848 16.4519 9.8873 15.9996 9.1018 15.8311V10.0507C11.845 10.0498 14.4874 11.0946 16.5002 12.9758C18.1895 15.1221 19.0877 17.794 19.0412 20.5347C19.065 21.1155 19.0832 22.1909 19.0958 23.7609C19.1084 25.3309 19.1084 27.0902 19.0958 29.039C19.0832 30.9877 19.0398 32.8297 18.9656 34.565H5.40576Z" fill="#A0DF87"/>
<path d="M36.1857 19.0021V24.206H29.7639C29.7387 25.5132 29.7261 26.8203 29.7261 28.1275C29.7261 29.4346 29.7324 30.5976 29.745 31.6165C29.7562 32.6354 29.7744 33.3575 29.7996 33.7828C29.7903 34.7273 30.0435 35.6555 30.5304 36.4621C31.0088 37.1132 31.7063 37.5654 32.4918 37.7339V43.5038C29.7493 43.5041 27.1078 42.4594 25.0955 40.5786C23.4075 38.4363 22.5079 35.7694 22.5503 33.0324C22.5265 32.4531 22.5055 31.3798 22.4873 29.8126C22.4691 28.2455 22.4691 26.4861 22.4873 24.5346C22.5055 22.583 22.5524 20.7389 22.628 19.0021H36.1857Z" fill="#A0DF87"/>
</g>
<defs>
<clipPath id="clip0_26_716">
<rect width="130.286" height="48" fill="white" transform="translate(0.357422)"/>
</clipPath>
</defs>
</svg>
