<svg width="68" height="69" viewBox="0 0 68 69" fill="none" xmlns="http://www.w3.org/2000/svg">
<g clip-path="url(#clip0_463_4698)">
<path d="M48.0465 40.494C48.114 40.305 48.141 40.1025 48.141 39.8865C48.141 38.793 47.25 37.902 46.17 37.902C45.0765 37.902 44.199 38.793 44.199 39.8865C44.199 40.1025 44.226 40.305 44.2935 40.494C43.416 40.6965 42.7545 41.4795 42.7545 42.4245C42.7545 43.518 43.6455 44.409 44.7255 44.409C45.2925 44.409 45.819 44.166 46.17 43.7745C46.5345 44.166 47.0475 44.409 47.6145 44.409C48.708 44.409 49.5855 43.518 49.5855 42.4245C49.599 41.4795 48.9375 40.683 48.0465 40.494Z" fill="#B4EEB2"/>
<path d="M47.6145 45.0705C47.1015 45.0705 46.5885 44.922 46.17 44.6385C45.738 44.922 45.2385 45.0705 44.7255 45.0705C43.2675 45.0705 42.0795 43.8825 42.0795 42.411C42.0795 41.3985 42.66 40.494 43.5375 40.0485C43.5375 39.9945 43.5375 39.9405 43.5375 39.873C43.5375 38.415 44.7255 37.2135 46.1835 37.2135C47.6415 37.2135 48.8295 38.4015 48.8295 39.873C48.8295 39.927 48.8295 39.981 48.8295 40.0485C49.707 40.494 50.2875 41.412 50.2875 42.411C50.274 43.8825 49.086 45.0705 47.6145 45.0705ZM46.17 43.086C46.359 43.086 46.5345 43.167 46.6695 43.302C46.9125 43.572 47.2635 43.7205 47.628 43.7205C48.3435 43.7205 48.924 43.14 48.924 42.411C48.924 41.8035 48.492 41.277 47.9115 41.142C47.7225 41.1015 47.5605 40.98 47.466 40.818C47.3715 40.656 47.3445 40.4535 47.412 40.278C47.4525 40.143 47.4795 40.008 47.4795 39.873C47.4795 39.1575 46.899 38.5635 46.1835 38.5635C45.468 38.5635 44.8875 39.144 44.8875 39.873C44.8875 40.008 44.9145 40.143 44.955 40.278C45.009 40.4535 44.9955 40.656 44.901 40.818C44.8065 40.98 44.6445 41.1015 44.4555 41.142C43.8615 41.277 43.443 41.8035 43.443 42.411C43.443 43.1265 44.0235 43.7205 44.739 43.7205C45.1035 43.7205 45.441 43.572 45.6975 43.302C45.8055 43.167 45.981 43.086 46.17 43.086Z" fill="#0D2D30"/>
<path d="M46.17 50.214C45.792 50.214 45.495 49.917 45.495 49.539V43.761C45.495 43.383 45.792 43.086 46.17 43.086C46.548 43.086 46.845 43.383 46.845 43.761V49.539C46.845 49.917 46.548 50.214 46.17 50.214Z" fill="#0D2D30"/>
<path d="M23.2066 40.494C23.2741 40.305 23.3011 40.1025 23.3011 39.8865C23.3011 38.793 22.4101 37.902 21.3301 37.902C20.2366 37.902 19.3591 38.793 19.3591 39.8865C19.3591 40.1025 19.3861 40.305 19.4536 40.494C18.5761 40.6965 17.9146 41.4795 17.9146 42.4245C17.9146 43.518 18.8056 44.409 19.8856 44.409C20.4526 44.409 20.9791 44.166 21.3301 43.7745C21.6946 44.166 22.2076 44.409 22.7746 44.409C23.8681 44.409 24.7456 43.518 24.7456 42.4245C24.7591 41.4795 24.0976 40.683 23.2066 40.494Z" fill="#B4EEB2"/>
<path d="M22.7745 45.0705C22.2615 45.0705 21.7485 44.922 21.33 44.6385C20.898 44.922 20.3985 45.0705 19.8855 45.0705C18.4275 45.0705 17.2395 43.8825 17.2395 42.411C17.2395 41.3985 17.82 40.494 18.6975 40.0485C18.6975 39.9945 18.6975 39.9405 18.6975 39.873C18.6975 38.415 19.8855 37.2135 21.3435 37.2135C22.8015 37.2135 23.9895 38.4015 23.9895 39.873C23.9895 39.927 23.9895 39.981 23.9895 40.0485C24.867 40.494 25.4475 41.412 25.4475 42.411C25.434 43.8825 24.246 45.0705 22.7745 45.0705ZM21.33 43.086C21.519 43.086 21.6945 43.167 21.8295 43.302C22.0725 43.572 22.4235 43.7205 22.788 43.7205C23.5035 43.7205 24.084 43.14 24.084 42.411C24.084 41.8035 23.652 41.277 23.0715 41.142C22.8825 41.1015 22.7205 40.98 22.626 40.818C22.5315 40.656 22.5045 40.4535 22.572 40.278C22.6125 40.143 22.6395 40.008 22.6395 39.873C22.6395 39.1575 22.059 38.5635 21.3435 38.5635C20.628 38.5635 20.0475 39.144 20.0475 39.873C20.0475 40.008 20.0745 40.143 20.115 40.278C20.169 40.4535 20.1555 40.656 20.061 40.818C19.9665 40.98 19.8045 41.1015 19.6155 41.142C19.0215 41.277 18.603 41.8035 18.603 42.411C18.603 43.1265 19.1835 43.7205 19.899 43.7205C20.2635 43.7205 20.601 43.572 20.8575 43.302C20.9655 43.167 21.141 43.086 21.33 43.086Z" fill="#0D2D30"/>
<path d="M21.33 50.214C20.952 50.214 20.655 49.917 20.655 49.539V43.761C20.655 43.383 20.952 43.086 21.33 43.086C21.708 43.086 22.005 43.383 22.005 43.761V49.539C22.005 49.917 21.708 50.214 21.33 50.214Z" fill="#0D2D30"/>
<path d="M50.76 12.495H46.6695C46.2915 12.495 45.9945 12.198 45.9945 11.82C45.9945 11.442 46.2915 11.145 46.6695 11.145H50.76C51.138 11.145 51.435 11.442 51.435 11.82C51.435 12.198 51.1245 12.495 50.76 12.495Z" fill="#0D2D30"/>
<path d="M44.442 12.495H44.2125C43.8345 12.495 43.5375 12.198 43.5375 11.82C43.5375 11.442 43.8345 11.145 44.2125 11.145H44.442C44.82 11.145 45.117 11.442 45.117 11.82C45.117 12.198 44.8065 12.495 44.442 12.495Z" fill="#0D2D30"/>
<path d="M50.76 5.44802C49.005 5.44802 47.574 6.87902 47.574 8.63402C47.574 10.389 48.9915 11.82 50.76 11.82L63.639 11.82C65.394 11.82 66.825 10.389 66.825 8.63402C66.825 6.87902 65.394 5.44802 63.639 5.44802H63.5715C63.5715 4.16552 62.532 3.13952 61.263 3.13952C59.9805 3.13952 58.9545 4.17902 58.9545 5.44802C58.9545 3.22052 57.159 1.42502 54.9315 1.42502C52.704 1.42502 50.9085 3.22052 50.9085 5.44802H50.76Z" fill="#B2EAEE"/>
<path d="M63.639 12.495L50.76 12.495C48.627 12.495 46.899 10.767 46.899 8.634C46.899 6.663 48.3705 5.043 50.274 4.8C50.5845 2.5185 52.5555 0.75 54.9315 0.75C56.7675 0.75 58.3605 1.8165 59.13 3.3555C59.67 2.802 60.426 2.4645 61.263 2.4645C62.694 2.4645 63.882 3.477 64.179 4.8135C66.0555 5.07 67.5 6.69 67.5 8.634C67.5 10.767 65.772 12.495 63.639 12.495ZM50.76 6.123C49.3695 6.123 48.249 7.2435 48.249 8.634C48.249 10.0245 49.3695 11.145 50.76 11.145L63.639 11.145C65.0295 11.145 66.15 10.0245 66.15 8.634C66.15 7.2435 65.0295 6.123 63.639 6.123H63.5715C63.1935 6.123 62.8965 5.826 62.8965 5.448C62.8965 4.5435 62.1675 3.8145 61.263 3.8145C60.3585 3.8145 59.6296 4.5435 59.6296 5.448C59.6296 5.826 59.3326 6.123 58.9546 6.123C58.5766 6.123 58.2796 5.826 58.2796 5.448C58.2796 3.5985 56.781 2.1 54.9315 2.1C53.082 2.1 51.5835 3.5985 51.5835 5.448C51.5835 5.826 51.2865 6.123 50.9085 6.123H50.76Z" fill="#0D2D30"/>
<path d="M52.326 8.59351H50.76C50.382 8.59351 50.085 8.29651 50.085 7.91851C50.085 7.54051 50.382 7.24351 50.76 7.24351H52.326C52.542 7.24351 52.7175 7.06801 52.7175 6.85201V5.48851C52.7175 4.32751 53.595 3.34201 54.729 3.23401C55.35 3.18001 55.971 3.38251 56.43 3.80101C56.889 4.21951 57.159 4.81351 57.159 5.44801C57.159 5.82601 56.862 6.12301 56.484 6.12301C56.106 6.12301 55.809 5.82601 55.809 5.44801C55.809 5.20501 55.701 4.97551 55.5255 4.80001C55.3365 4.63801 55.107 4.55701 54.8505 4.58401C54.405 4.62451 54.0675 5.02951 54.0675 5.48851V6.86551C54.054 7.82401 53.271 8.59351 52.326 8.59351Z" fill="white"/>
<path d="M7.22246 27.9525H3.14546C2.76746 27.9525 2.47046 27.6555 2.47046 27.2775C2.47046 26.8995 2.76746 26.6025 3.14546 26.6025H7.23596C7.61396 26.6025 7.91096 26.8995 7.91096 27.2775C7.91096 27.6555 7.60046 27.9525 7.22246 27.9525Z" fill="#0D2D30"/>
<path d="M0.9045 27.9525H0.675C0.297 27.9525 0 27.6555 0 27.2775C0 26.8995 0.297 26.6025 0.675 26.6025H0.9045C1.2825 26.6025 1.5795 26.8995 1.5795 27.2775C1.5795 27.6555 1.2825 27.9525 0.9045 27.9525Z" fill="#0D2D30"/>
<path d="M7.2225 20.9055C5.4675 20.9055 4.0365 22.3365 4.0365 24.0915C4.0365 25.8465 5.4675 27.2775 7.2225 27.2775H20.115C21.87 27.2775 23.301 25.8465 23.301 24.0915C23.301 22.3365 21.87 20.9055 20.115 20.9055H20.0475C20.0475 19.623 19.008 18.597 17.739 18.597C16.47 18.597 15.4305 19.6365 15.4305 20.9055C15.4305 18.678 13.635 16.8825 11.4075 16.8825C9.18 16.8825 7.3845 18.678 7.3845 20.9055H7.2225Z" fill="#B2EAEE"/>
<path d="M20.1149 27.9525L7.22245 27.9525C5.08945 27.9525 3.36145 26.2245 3.36145 24.0915C3.36145 22.1205 4.83295 20.5005 6.73645 20.2575C7.04695 17.976 9.01795 16.2075 11.3939 16.2075C13.2299 16.2075 14.8229 17.274 15.5924 18.813C16.1324 18.2595 16.8884 17.922 17.7254 17.922C19.1564 17.922 20.3444 18.9345 20.6414 20.271C22.5179 20.5275 23.9625 22.1475 23.9625 24.0915C23.976 26.211 22.2479 27.9525 20.1149 27.9525ZM7.22245 21.5805C5.83195 21.5805 4.71145 22.701 4.71145 24.0915C4.71145 25.482 5.83195 26.6025 7.22245 26.6025L20.1149 26.6025C21.5054 26.6025 22.6259 25.482 22.6259 24.0915C22.6259 22.701 21.5054 21.5805 20.1149 21.5805H20.0474C19.6694 21.5805 19.3724 21.2835 19.3724 20.9055C19.3724 20.001 18.6434 19.272 17.7389 19.272C16.8344 19.272 16.1054 20.001 16.1054 20.9055C16.1054 21.2835 15.8084 21.5805 15.4304 21.5805C15.0524 21.5805 14.7554 21.2835 14.7554 20.9055C14.7554 19.056 13.2569 17.5575 11.4074 17.5575C9.55795 17.5575 8.05945 19.056 8.05945 20.9055C8.05945 21.2835 7.76245 21.5805 7.38445 21.5805H7.22245Z" fill="#0D2D30"/>
<path d="M8.78849 24.051H7.22249C6.84449 24.051 6.54749 23.754 6.54749 23.376C6.54749 22.998 6.84449 22.701 7.22249 22.701H8.78849C9.00449 22.701 9.17999 22.5255 9.17999 22.3095V20.9325C9.17999 19.7715 10.0575 18.786 11.1915 18.678C11.8125 18.624 12.4335 18.8265 12.8925 19.245C13.3515 19.6635 13.6215 20.2575 13.6215 20.892C13.6215 21.27 13.3245 21.567 12.9465 21.567C12.5685 21.567 12.2715 21.27 12.2715 20.892C12.2715 20.649 12.1635 20.4195 11.988 20.244C11.799 20.082 11.5695 20.001 11.313 20.028C10.8675 20.0685 10.53 20.4735 10.53 20.9325V22.3095C10.53 23.2815 9.74699 24.051 8.78849 24.051Z" fill="white"/>
<path d="M51.5026 60.4605C51.5026 64.389 43.5511 67.575 33.7501 67.575C23.9491 67.575 15.9976 64.389 15.9976 60.4605L15.9976 54.6285L51.4891 54.6285V60.4605H51.5026Z" fill="#AAAAAA"/>
<path d="M33.7501 68.25C28.9306 68.25 24.3811 67.494 20.9521 66.117C17.3206 64.659 15.3361 62.6475 15.3361 60.4605L15.3361 54.6285C15.3361 54.2505 15.6331 53.9535 16.0111 53.9535L51.5026 53.9535C51.8806 53.9535 52.1776 54.2505 52.1776 54.6285V60.4605C52.1776 62.661 50.1796 64.659 46.5616 66.117C43.1191 67.494 38.5696 68.25 33.7501 68.25ZM16.6726 55.3035V60.4605C16.6726 63.5655 23.5306 66.9 33.7501 66.9C43.9696 66.9 50.8276 63.5655 50.8276 60.4605V55.3035L16.6726 55.3035Z" fill="#0D2D30"/>
<path d="M33.7501 61.743C43.5545 61.743 51.5026 58.5577 51.5026 54.6285C51.5026 50.6992 43.5545 47.514 33.7501 47.514C23.9456 47.514 15.9976 50.6992 15.9976 54.6285C15.9976 58.5577 23.9456 61.743 33.7501 61.743Z" fill="#E7E7E7"/>
<path d="M25.5149 51.7665C25.2044 51.7665 24.9344 51.5505 24.8534 51.24C24.7724 50.8755 25.0019 50.511 25.3664 50.43C25.4744 50.403 25.5959 50.376 25.7039 50.349C26.0684 50.268 26.4329 50.4975 26.5004 50.862C26.5814 51.2265 26.3519 51.591 25.9874 51.6585C25.8794 51.6855 25.7714 51.7125 25.6634 51.726C25.6229 51.753 25.5689 51.7665 25.5149 51.7665Z" fill="#0D2D30"/>
<path d="M18.6975 55.3035C18.3195 55.3035 18.0225 55.0065 18.0225 54.6285C18.0225 53.8455 19.2375 52.563 21.951 51.4695C22.329 51.321 22.7205 51.1725 23.139 51.0375C23.49 50.916 23.868 51.1185 23.9895 51.4695C24.111 51.8205 23.9085 52.1985 23.5575 52.32C23.1795 52.4415 22.8015 52.5765 22.4505 52.725C20.25 53.6025 19.4805 54.48 19.359 54.7095C19.332 55.047 19.0485 55.3035 18.6975 55.3035Z" fill="#0D2D30"/>
<path d="M33.7501 62.418C28.9306 62.418 24.3811 61.662 20.9521 60.285C17.3206 58.827 15.3361 56.8155 15.3361 54.6285C15.3361 52.4415 17.3341 50.43 20.9521 48.972C24.3811 47.595 28.9306 46.839 33.7501 46.839C38.5696 46.839 43.1191 47.595 46.5481 48.972C50.1796 50.43 52.1641 52.4415 52.1641 54.6285C52.1641 56.8155 50.1661 58.827 46.5481 60.285C43.1191 61.662 38.5696 62.418 33.7501 62.418ZM33.7501 48.189C23.5306 48.189 16.6726 51.5235 16.6726 54.6285C16.6726 57.7335 23.5306 61.068 33.7501 61.068C43.9696 61.068 50.8276 57.7335 50.8276 54.6285C50.8276 51.5235 43.9696 48.189 33.7501 48.189Z" fill="#0D2D30"/>
<path d="M41.094 28.56C41.094 26.1435 39.231 24.159 36.855 23.9835C38.34 22.9845 39.3255 21.2835 39.3255 19.353V18.516C39.3255 15.438 36.828 12.9405 33.75 12.9405C30.672 12.9405 28.1745 15.438 28.1745 18.516V19.353C28.1745 21.2835 29.16 22.9845 30.645 23.9835C28.269 24.159 26.406 26.1435 26.406 28.56V38.172C26.406 39.009 27.0945 39.6975 27.9315 39.6975H29.4435L29.4435 53.67C29.4435 54.291 29.9565 54.804 30.5775 54.804H36.936C37.557 54.804 38.07 54.291 38.07 53.67L38.07 39.6975H39.582C40.419 39.6975 41.1075 39.009 41.1075 38.172V28.56H41.094Z" fill="#FDA568"/>
<path d="M36.936 55.4655H30.5775C29.5785 55.4655 28.7685 54.6555 28.7685 53.6565L28.7685 40.359H27.9315C26.7165 40.359 25.731 39.3735 25.731 38.1585V28.56C25.731 26.319 27.162 24.3615 29.1735 23.619C28.107 22.4715 27.486 20.946 27.486 19.353V18.516C27.486 15.06 30.294 12.2655 33.7365 12.2655C37.1925 12.2655 39.987 15.0735 39.987 18.516V19.353C39.987 20.9595 39.3795 22.4715 38.2995 23.619C40.311 24.3615 41.742 26.319 41.742 28.56V38.172C41.742 39.387 40.7565 40.3725 39.5415 40.3725H38.7045V53.67C38.7315 54.6555 37.9215 55.4655 36.936 55.4655ZM33.75 13.602C31.05 13.602 28.8495 15.8025 28.8495 18.5025V19.3395C28.8495 20.973 29.6595 22.4985 31.023 23.4165C31.266 23.5785 31.374 23.8755 31.293 24.1455C31.2255 24.429 30.9825 24.618 30.6855 24.645C28.6605 24.7935 27.0675 26.508 27.0675 28.5465V38.1585C27.0675 38.631 27.4455 39.009 27.918 39.009H29.43C29.808 39.009 30.105 39.306 30.105 39.684L30.105 53.67C30.105 53.9265 30.3075 54.129 30.564 54.129H36.9225C37.179 54.129 37.3815 53.9265 37.3815 53.67L37.3815 39.6975C37.3815 39.3195 37.6785 39.0225 38.0565 39.0225H39.5685C40.041 39.0225 40.419 38.6445 40.419 38.172V28.56C40.419 26.5215 38.826 24.807 36.801 24.6585C36.5175 24.6315 36.2745 24.429 36.1935 24.159C36.126 23.8755 36.234 23.592 36.4635 23.43C37.827 22.512 38.637 20.9865 38.637 19.353V18.516C38.6505 15.8025 36.45 13.602 33.75 13.602Z" fill="#0D2D30"/>
<path d="M32.1435 22.4175C32.0085 22.4175 31.887 22.377 31.7655 22.296C30.78 21.6345 30.186 20.5275 30.186 19.3395V18.5025C30.186 17.6925 30.4695 16.896 30.969 16.275C31.1985 15.9915 31.6305 15.9375 31.914 16.1805C32.1975 16.41 32.2515 16.842 32.0085 17.1255C31.6845 17.517 31.5225 18.003 31.5225 18.516V19.353C31.5225 20.0955 31.887 20.7705 32.508 21.189C32.8185 21.3915 32.8995 21.81 32.697 22.1205C32.5755 22.3095 32.3595 22.4175 32.1435 22.4175ZM33.3315 16.329C33.0075 16.329 32.7105 16.086 32.67 15.7485C32.616 15.384 32.8725 15.033 33.237 14.979C33.399 14.952 33.5745 14.9385 33.75 14.9385C34.128 14.9385 34.425 15.2355 34.425 15.6135C34.425 15.9915 34.128 16.2885 33.75 16.2885C33.642 16.2885 33.534 16.302 33.4395 16.3155C33.399 16.329 33.372 16.329 33.3315 16.329Z" fill="white"/>
<path d="M29.43 40.3725C29.052 40.3725 28.755 40.0755 28.755 39.6975V30.963C28.755 30.585 29.052 30.288 29.43 30.288C29.808 30.288 30.105 30.585 30.105 30.963V39.6975C30.105 40.0755 29.808 40.3725 29.43 40.3725Z" fill="#0D2D30"/>
<path d="M29.43 29.073C29.052 29.073 28.755 28.776 28.755 28.398V27.804C28.755 27.426 29.052 27.129 29.43 27.129C29.808 27.129 30.105 27.426 30.105 27.804V28.398C30.105 28.776 29.808 29.073 29.43 29.073Z" fill="#0D2D30"/>
<path d="M38.0565 40.3725C37.6785 40.3725 37.3815 40.0755 37.3815 39.6975V30.963C37.3815 30.585 37.6785 30.288 38.0565 30.288C38.4345 30.288 38.7315 30.585 38.7315 30.963V39.6975C38.7315 40.0755 38.4345 40.3725 38.0565 40.3725Z" fill="#0D2D30"/>
<path d="M38.0565 29.073C37.6785 29.073 37.3815 28.776 37.3815 28.398V27.804C37.3815 27.426 37.6785 27.129 38.0565 27.129C38.4345 27.129 38.7315 27.426 38.7315 27.804V28.398C38.7315 28.776 38.4345 29.073 38.0565 29.073Z" fill="#0D2D30"/>
<path d="M33.75 55.3575C33.372 55.3575 33.075 55.0605 33.075 54.6825V41.223C33.075 40.845 33.372 40.548 33.75 40.548C34.128 40.548 34.425 40.845 34.425 41.223V54.6825C34.425 55.047 34.128 55.3575 33.75 55.3575Z" fill="#0D2D30"/>
</g>
<defs>
<clipPath id="clip0_463_4698">
<rect width="67.5" height="67.5" fill="white" transform="translate(0 0.75)"/>
</clipPath>
</defs>
</svg>
