<svg width="146" height="146" viewBox="0 0 146 146" fill="none" xmlns="http://www.w3.org/2000/svg">
<g clip-path="url(#clip0_464_3394)">
<path d="M144.216 90.5212H1.45679V144.216H144.216V90.5212Z" fill="#E7E7E7"/>
<path d="M42.5658 98.3876H13.3146C12.4989 98.3876 11.8579 97.7467 11.8579 96.9309C11.8579 96.1151 12.4989 95.4742 13.3146 95.4742H42.5658C43.3816 95.4742 44.0225 96.1151 44.0225 96.9309C44.0225 97.7467 43.3524 98.3876 42.5658 98.3876Z" fill="#C9C9C9"/>
<path d="M144.216 91.978H1.45673C0.640962 91.978 0 91.3371 0 90.5213C0 89.7055 0.640962 89.0646 1.45673 89.0646H144.216C145.032 89.0646 145.673 89.7055 145.673 90.5213C145.673 91.3371 145.032 91.978 144.216 91.978Z" fill="#0D2D30"/>
<path d="M144.216 145.673H1.45673C0.640962 145.673 0 145.032 0 144.216C0 143.401 0.640962 142.76 1.45673 142.76H144.216C145.032 142.76 145.673 143.401 145.673 144.216C145.673 145.032 145.032 145.673 144.216 145.673Z" fill="#0D2D30"/>
<path d="M144.216 145.673H1.45673C0.640962 145.673 0 145.032 0 144.216C0 143.401 0.640962 142.76 1.45673 142.76H144.216C145.032 142.76 145.673 143.401 145.673 144.216C145.673 145.032 145.032 145.673 144.216 145.673Z" fill="#0D2D30"/>
<path d="M12.9067 70.9719C13.0524 70.564 13.1106 70.127 13.1106 69.6609C13.1106 67.301 11.1877 65.3781 8.85698 65.3781C6.49708 65.3781 4.60333 67.301 4.60333 69.6609C4.60333 70.127 4.66159 70.564 4.80727 70.9719C2.88438 71.409 1.45679 73.1279 1.45679 75.1382C1.45679 77.4981 3.37967 79.421 5.71044 79.421C6.93409 79.421 8.07034 78.8965 8.82784 78.0516C9.61448 78.8965 10.7216 79.421 11.9452 79.421C14.3052 79.421 16.1989 77.4981 16.1989 75.1382C16.2572 73.1279 14.8296 71.409 12.9067 70.9719Z" fill="#B4EEB2"/>
<path d="M11.9743 80.8777C10.8672 80.8777 9.7601 80.5572 8.85692 79.9454C7.92461 80.5572 6.84663 80.8777 5.73952 80.8777C2.56385 80.8777 0 78.3138 0 75.1673C0 72.9822 1.25279 71.0302 3.14654 70.0687C3.14654 69.9522 3.14654 69.8357 3.14654 69.69C3.14654 66.5434 5.71038 63.9505 8.85692 63.9505C12.0035 63.9505 14.5673 66.5143 14.5673 69.6609C14.5673 69.7774 14.5673 69.8939 14.5673 70.0396C16.4611 71.001 17.7138 72.9822 17.7138 75.1382C17.7138 78.3138 15.1209 80.8777 11.9743 80.8777ZM8.85692 76.5949C9.26481 76.5949 9.64356 76.7697 9.9349 77.061C10.4593 77.6437 11.2168 77.9642 12.0035 77.9642C13.5476 77.9642 14.8004 76.7114 14.8004 75.1382C14.8004 73.8271 13.8681 72.6909 12.6153 72.3995C12.2074 72.3121 11.8578 72.0499 11.6538 71.7003C11.4499 71.3507 11.3916 70.9136 11.5373 70.5349C11.6247 70.2435 11.683 69.9522 11.683 69.6609C11.683 68.1167 10.4302 66.8348 8.88606 66.8348C7.34192 66.8348 6.08913 68.0876 6.08913 69.6609C6.08913 69.9522 6.1474 70.2435 6.23481 70.5349C6.35135 70.9136 6.32221 71.3507 6.11827 71.7003C5.91433 72.0499 5.56471 72.3121 5.15683 72.3995C3.8749 72.6909 2.97173 73.8271 2.97173 75.1382C2.97173 76.6823 4.22452 77.9642 5.76865 77.9642C6.55529 77.9642 7.28365 77.6437 7.83721 77.061C8.07029 76.7697 8.44904 76.5949 8.85692 76.5949Z" fill="#0D2D30"/>
<path d="M8.85688 91.9779C8.04111 91.9779 7.40015 91.337 7.40015 90.5212V78.0516C7.40015 77.2358 8.04111 76.5949 8.85688 76.5949C9.67265 76.5949 10.3136 77.2358 10.3136 78.0516V90.5212C10.3136 91.3079 9.64351 91.9779 8.85688 91.9779Z" fill="#0D2D30"/>
<path d="M27.7069 70.9719C27.8526 70.564 27.9108 70.127 27.9108 69.6609C27.9108 67.301 25.988 65.3781 23.6572 65.3781C21.2973 65.3781 19.4035 67.301 19.4035 69.6609C19.4035 70.127 19.4618 70.564 19.6075 70.9719C17.7137 71.409 16.2861 73.0988 16.2861 75.1382C16.2861 77.4981 18.209 79.421 20.5398 79.421C21.7634 79.421 22.8997 78.8965 23.6572 78.0516C24.4438 78.8965 25.5509 79.421 26.7746 79.421C29.1345 79.421 31.0282 77.4981 31.0282 75.1382C31.0282 73.1279 29.6007 71.409 27.7069 70.9719Z" fill="#B4EEB2"/>
<path d="M26.7748 80.8777C25.6677 80.8777 24.5605 80.5572 23.6574 79.9454C22.7251 80.5572 21.6471 80.8777 20.54 80.8777C17.3934 80.8777 14.8296 78.3138 14.8296 75.1382C14.8296 72.9531 16.0824 71.0011 17.9761 70.0396C17.9761 69.9231 17.9761 69.8065 17.9761 69.6609C17.9761 66.5143 20.54 63.9213 23.6865 63.9213C26.8331 63.9213 29.3969 66.4852 29.3969 69.6609C29.3969 69.7774 29.3969 69.8939 29.3969 70.0396C31.2906 71.0011 32.5434 72.9822 32.5434 75.1382C32.4852 78.3138 29.9213 80.8777 26.7748 80.8777ZM23.6282 76.5949C24.0361 76.5949 24.4149 76.7697 24.7062 77.0611C25.2306 77.6437 25.9881 77.9642 26.7748 77.9642C28.3189 77.9642 29.5717 76.7114 29.5717 75.1382C29.5717 73.8271 28.6394 72.6909 27.3866 72.3995C26.9787 72.3121 26.6291 72.0499 26.4252 71.7003C26.2212 71.3507 26.163 70.9137 26.3086 70.5349C26.396 70.2436 26.4543 69.9522 26.4543 69.6609C26.4543 68.1167 25.2015 66.8348 23.6574 66.8348C22.1132 66.8348 20.8605 68.0876 20.8605 69.6609C20.8605 69.9522 20.9187 70.2436 21.0061 70.5349C21.1227 70.9137 21.0935 71.3507 20.8896 71.7003C20.6856 72.0499 20.336 72.3121 19.9281 72.3995C18.6462 72.6909 17.7431 73.8271 17.7431 75.1382C17.7431 76.6823 18.9958 77.9642 20.54 77.9642C21.3266 77.9642 22.055 77.6437 22.6085 77.0611C22.8416 76.7697 23.2204 76.5949 23.6282 76.5949Z" fill="#0D2D30"/>
<path d="M23.6281 91.9779C22.8123 91.9779 22.1714 91.337 22.1714 90.5212V78.0516C22.1714 77.2358 22.8123 76.5949 23.6281 76.5949C24.4439 76.5949 25.0848 77.2358 25.0848 78.0516V90.5212C25.0848 91.3079 24.4439 91.9779 23.6281 91.9779Z" fill="#0D2D30"/>
<path d="M126.095 70.9719C126.24 70.564 126.299 70.127 126.299 69.6609C126.299 67.301 124.376 65.3781 122.045 65.3781C119.685 65.3781 117.791 67.301 117.791 69.6609C117.791 70.127 117.849 70.564 117.995 70.9719C116.101 71.409 114.674 73.0988 114.674 75.1382C114.674 77.4981 116.597 79.421 118.927 79.421C120.151 79.421 121.287 78.8965 122.045 78.0516C122.832 78.8965 123.939 79.421 125.162 79.421C127.522 79.421 129.416 77.4981 129.416 75.1382C129.445 73.1279 128.017 71.409 126.095 70.9719Z" fill="#B4EEB2"/>
<path d="M125.162 80.8777C124.055 80.8777 122.948 80.5572 122.045 79.9454C121.113 80.5572 120.035 80.8777 118.928 80.8777C115.781 80.8777 113.217 78.3138 113.217 75.1382C113.217 72.9531 114.47 71.0011 116.364 70.0396C116.364 69.9231 116.364 69.8065 116.364 69.6609C116.364 66.5143 118.928 63.9213 122.074 63.9213C125.221 63.9213 127.785 66.4852 127.785 69.6609C127.785 69.7774 127.785 69.8939 127.785 70.0396C129.678 71.0011 130.931 72.9822 130.931 75.1382C130.902 78.3138 128.309 80.8777 125.162 80.8777ZM122.045 76.5949C122.453 76.5949 122.832 76.7697 123.123 77.0611C123.647 77.6437 124.405 77.9642 125.192 77.9642C126.736 77.9642 127.989 76.7114 127.989 75.1382C127.989 73.8271 127.056 72.6909 125.803 72.3995C125.396 72.3121 125.046 72.0499 124.842 71.7003C124.638 71.3507 124.58 70.9137 124.725 70.5349C124.813 70.2436 124.871 69.9522 124.871 69.6609C124.871 68.1167 123.618 66.8348 122.074 66.8348C120.53 66.8348 119.277 68.0876 119.277 69.6609C119.277 69.9522 119.336 70.2436 119.423 70.5349C119.539 70.9137 119.51 71.3507 119.306 71.7003C119.102 72.0499 118.753 72.3121 118.345 72.3995C117.063 72.6909 116.16 73.8271 116.16 75.1382C116.16 76.6823 117.413 77.9642 118.957 77.9642C119.743 77.9642 120.472 77.6437 121.025 77.0611C121.258 76.7697 121.637 76.5949 122.045 76.5949Z" fill="#0D2D30"/>
<path d="M122.045 91.9779C121.229 91.9779 120.588 91.337 120.588 90.5212V78.0516C120.588 77.2358 121.229 76.5949 122.045 76.5949C122.861 76.5949 123.502 77.2358 123.502 78.0516V90.5212C123.502 91.3079 122.832 91.9779 122.045 91.9779Z" fill="#0D2D30"/>
<path d="M140.895 70.9719C141.041 70.564 141.099 70.127 141.099 69.6609C141.099 67.301 139.176 65.3781 136.845 65.3781C134.514 65.3781 132.592 67.301 132.592 69.6609C132.592 70.127 132.65 70.564 132.795 70.9719C130.902 71.409 129.474 73.0988 129.474 75.1382C129.474 77.4981 131.397 79.421 133.728 79.421C134.951 79.421 136.088 78.8965 136.845 78.0516C137.632 78.8965 138.739 79.421 139.963 79.421C142.322 79.421 144.216 77.4981 144.216 75.1382C144.216 73.1279 142.789 71.409 140.895 70.9719Z" fill="#B4EEB2"/>
<path d="M139.963 80.8777C138.856 80.8777 137.749 80.5572 136.845 79.9454C135.913 80.5572 134.835 80.8777 133.728 80.8777C130.581 80.8777 128.018 78.3138 128.018 75.1382C128.018 72.9531 129.27 71.0011 131.164 70.0396C131.164 69.9231 131.164 69.8065 131.164 69.6609C131.164 66.5143 133.728 63.9213 136.874 63.9213C140.021 63.9213 142.585 66.4852 142.585 69.6609C142.585 69.7774 142.585 69.8939 142.585 70.0396C144.479 71.0011 145.731 72.9822 145.731 75.1382C145.673 78.3138 143.109 80.8777 139.963 80.8777ZM136.816 76.5949C137.224 76.5949 137.603 76.7697 137.894 77.0611C138.419 77.6437 139.176 77.9642 139.963 77.9642C141.507 77.9642 142.76 76.7114 142.76 75.1382C142.76 73.8271 141.827 72.6909 140.575 72.3995C140.167 72.3121 139.817 72.0499 139.613 71.7003C139.409 71.3507 139.351 70.9137 139.497 70.5349C139.584 70.2436 139.642 69.9522 139.642 69.6609C139.642 68.1167 138.39 66.8348 136.845 66.8348C135.301 66.8348 134.048 68.0876 134.048 69.6609C134.048 69.9522 134.107 70.2436 134.194 70.5349C134.311 70.9137 134.282 71.3507 134.078 71.7003C133.874 72.0499 133.524 72.3121 133.116 72.3995C131.834 72.6909 130.931 73.8271 130.931 75.1382C130.931 76.6823 132.184 77.9642 133.728 77.9642C134.515 77.9642 135.243 77.6437 135.797 77.0611C136.03 76.7697 136.408 76.5949 136.816 76.5949Z" fill="#0D2D30"/>
<path d="M136.816 91.9779C136 91.9779 135.359 91.337 135.359 90.5212V78.0516C135.359 77.2358 136 76.5949 136.816 76.5949C137.632 76.5949 138.273 77.2358 138.273 78.0516V90.5212C138.273 91.3079 137.632 91.9779 136.816 91.9779Z" fill="#0D2D30"/>
<path d="M74.3223 1.48588C73.827 1.45674 73.3318 1.45674 72.8365 1.45674C72.3412 1.45674 71.8459 1.45674 71.3506 1.48588C60.4834 1.77722 50.9272 5.33165 43.2066 11.0129C22.4044 26.3377 14.946 57.1621 31.611 81.1691L65.6111 130.086C69.1072 135.126 76.5948 135.126 80.091 130.086L114.091 81.1691C136.933 48.2178 114.412 2.50559 74.3223 1.48588ZM72.8365 88.4236C52.4714 88.4236 35.9812 71.9334 35.9812 51.5683C35.9812 31.2032 52.4714 14.713 72.8365 14.713C93.2016 14.713 109.692 31.2032 109.692 51.5683C109.692 71.9334 93.2016 88.4236 72.8365 88.4236Z" fill="#FDA568"/>
<path d="M72.8367 135.33C69.4862 135.33 66.3105 133.67 64.3876 130.931L30.4167 81.9848C22.1424 70.0979 19.1998 55.8219 22.055 41.7499C22.2298 40.9633 22.9873 40.4388 23.774 40.6136C24.5606 40.7885 25.085 41.546 24.9102 42.3326C22.2007 55.618 24.9976 69.1073 32.8057 80.3241L66.8058 129.241C68.2043 131.251 70.3894 132.388 72.8367 132.388C75.284 132.388 77.4982 131.222 78.8675 129.241L112.868 80.3241C123.414 65.145 124.696 46.1784 116.306 29.6299C108.09 13.3728 92.3569 3.40874 74.2934 2.94259C73.332 2.91346 72.3414 2.91346 71.3799 2.94259C60.8915 3.2048 51.0731 6.70095 42.9737 12.994C42.3327 13.4893 41.4295 13.3728 40.9343 12.7318C40.439 12.0909 40.5555 11.1877 41.1965 10.6924C49.762 3.99144 60.1922 0.320476 71.3217 0.0291294C72.3122 -5.21028e-06 73.3611 -5.21028e-06 74.3808 0.0291294C93.5514 0.524418 110.216 11.1003 118.928 28.3188C123.094 36.5639 125.075 45.7122 124.609 54.8313C124.143 64.504 120.909 73.8854 115.257 82.0139L81.2857 130.931C79.3628 133.67 76.1871 135.33 72.8367 135.33Z" fill="#0D2D30"/>
<path d="M25.9881 35.049C25.8133 35.049 25.6385 35.0198 25.4637 34.9616C24.7062 34.6702 24.3566 33.8253 24.6479 33.0678C26.6582 27.9401 29.3968 23.1912 32.8347 18.9375C33.33 18.3257 34.2623 18.2092 34.8741 18.7336C35.486 19.2289 35.6025 20.1612 35.0781 20.773C31.815 24.7936 29.222 29.2803 27.3283 34.1458C27.1243 34.6993 26.5708 35.049 25.9881 35.049Z" fill="#0D2D30"/>
<path d="M37.6129 17.2477C37.2341 17.2477 36.8554 17.102 36.5931 16.8107C36.0396 16.228 36.0396 15.3248 36.5931 14.7421C36.7097 14.6256 36.8262 14.509 36.9428 14.3925C37.5255 13.839 38.4286 13.8389 39.0113 14.4216C39.5649 15.0043 39.5649 15.9075 38.9822 16.4902C38.8656 16.6067 38.7491 16.7233 38.6326 16.8398C38.3704 17.102 37.9916 17.2477 37.6129 17.2477Z" fill="#0D2D30"/>
<path d="M64.3584 9.58526C63.6592 9.58526 63.0473 9.08998 62.9308 8.39074C62.7851 7.60411 63.3095 6.84661 64.0962 6.70094C64.3293 6.6718 64.5623 6.61353 64.7954 6.5844C65.582 6.43873 66.3395 6.99228 66.4852 7.77892C66.6309 8.56555 66.0773 9.32305 65.2907 9.46873C65.0868 9.49786 64.8537 9.55613 64.6497 9.58526C64.5332 9.55613 64.4458 9.58526 64.3584 9.58526Z" fill="#FFEDCC"/>
<path d="M36.4475 79.2461C35.9814 79.2461 35.5443 79.0422 35.253 78.6343C30.2418 71.4089 27.3575 63.0764 26.9496 54.54C26.5417 46.4697 28.2898 38.312 32.019 30.9992C37.6129 19.9863 46.9651 11.8578 58.3859 8.15766C59.1434 7.89545 59.9591 8.33247 60.2214 9.08997C60.4836 9.84747 60.0465 10.6632 59.289 10.9255C48.6258 14.3925 39.8563 21.9966 34.6412 32.3103C31.145 39.186 29.5135 46.8193 29.8922 54.3943C30.3001 62.4063 32.9805 70.2144 37.6712 76.9736C38.1373 77.6437 37.9625 78.5469 37.2924 79.013C37.0302 79.1587 36.7389 79.2461 36.4475 79.2461Z" fill="#FFEDCC"/>
<path d="M72.8367 89.8803C51.7141 89.8803 34.5247 72.6908 34.5247 51.5682C34.5247 30.4457 51.7141 13.2562 72.8367 13.2562C93.9593 13.2562 111.149 30.4457 111.149 51.5682C111.149 72.6908 93.9593 89.8803 72.8367 89.8803ZM72.8367 16.1697C53.3165 16.1697 37.4381 32.0481 37.4381 51.5682C37.4381 71.0884 53.3165 86.9668 72.8367 86.9668C92.3569 86.9668 108.235 71.0884 108.235 51.5682C108.235 32.0481 92.3569 16.1697 72.8367 16.1697Z" fill="#0D2D30"/>
<path d="M91.1623 135.33H54.5109C53.6952 135.33 53.0542 134.689 53.0542 133.874C53.0542 133.058 53.6952 132.417 54.5109 132.417H91.1623C91.978 132.417 92.619 133.058 92.619 133.874C92.619 134.689 91.9489 135.33 91.1623 135.33Z" fill="#0D2D30"/>
<path d="M47.2563 135.33H44.5759C43.7601 135.33 43.1191 134.689 43.1191 133.874C43.1191 133.058 43.7601 132.417 44.5759 132.417H47.2563C48.072 132.417 48.713 133.058 48.713 133.874C48.713 134.689 48.0429 135.33 47.2563 135.33Z" fill="#0D2D30"/>
<path d="M101.126 135.33H98.446C97.6302 135.33 96.9893 134.689 96.9893 133.874C96.9893 133.058 97.6302 132.417 98.446 132.417H101.126C101.942 132.417 102.583 133.058 102.583 133.874C102.583 134.689 101.913 135.33 101.126 135.33Z" fill="#0D2D30"/>
<path d="M5.15683 98.3876H1.45673C0.640962 98.3876 0 97.7467 0 96.9309C0 96.1151 0.640962 95.4742 1.45673 95.4742H5.15683C5.9726 95.4742 6.61356 96.1151 6.61356 96.9309C6.61356 97.7467 5.94346 98.3876 5.15683 98.3876Z" fill="#C9C9C9"/>
<path d="M133.349 98.3876H111.207C110.391 98.3876 109.75 97.7467 109.75 96.9309C109.75 96.1151 110.391 95.4742 111.207 95.4742H133.349C134.165 95.4742 134.806 96.1151 134.806 96.9309C134.806 97.7467 134.136 98.3876 133.349 98.3876Z" fill="#C9C9C9"/>
<path d="M71.3508 69.7774L61.2702 75.0799C58.9395 76.3035 56.2008 74.3224 56.667 71.7294L58.5898 60.5126C58.7647 59.4929 58.415 58.4149 57.6867 57.6865L49.529 49.7328C47.6352 47.8973 48.6841 44.6925 51.3062 44.3137L62.5813 42.6822C63.6301 42.5365 64.5042 41.8664 64.9703 40.9341L70.0106 30.7079C71.176 28.348 74.5556 28.348 75.721 30.7079L80.7613 40.9341C81.2274 41.8664 82.1306 42.5365 83.1503 42.6822L94.4254 44.3137C97.0475 44.6925 98.0672 47.8973 96.2026 49.7328L88.0449 57.6865C87.2874 58.4149 86.967 59.4637 87.1418 60.5126L89.0647 71.7294C89.5017 74.3224 86.7921 76.3035 84.4614 75.0799L74.3808 69.7774C73.3902 69.2821 72.2831 69.2821 71.3508 69.7774Z" fill="#FFD781"/>
<path d="M72.6035 40.0309C72.3996 40.0309 72.1665 39.9727 71.9626 39.8853C71.2342 39.5356 70.9429 38.6616 71.2925 37.9332L71.5256 37.4671C71.8752 36.7387 72.7492 36.4474 73.4776 36.797C74.2059 37.1466 74.4973 38.0206 74.1477 38.749L73.9146 39.2152C73.6524 39.7396 73.128 40.0309 72.6035 40.0309Z" fill="#FFBA27"/>
<path d="M64.3293 62.9308C64.2419 62.9308 64.1545 62.9308 64.0671 62.9017C63.2805 62.756 62.756 61.9985 62.8726 61.2118C63.2805 58.7645 62.4938 56.259 60.6875 54.54L56.3756 50.3446C55.9677 49.9659 55.822 49.3832 55.9968 48.8588C56.1716 48.3343 56.6378 47.9556 57.1622 47.8682L63.1348 46.9942C65.5821 46.6445 67.7089 45.1004 68.816 42.857C69.1657 42.1287 70.0397 41.8373 70.7681 42.1869C71.4964 42.5366 71.7878 43.4106 71.4382 44.139C69.9232 47.2272 66.9806 49.3541 63.5718 49.8494L60.5127 50.2864L62.7269 52.4423C65.2034 54.8605 66.3105 58.2984 65.7278 61.7071C65.6404 62.4355 65.0285 62.9308 64.3293 62.9308Z" fill="#FFBA27"/>
<path d="M85.8888 76.9154C85.1604 76.9154 84.4029 76.7406 83.7328 76.391L73.6522 71.0885C73.157 70.8263 72.5451 70.8263 72.0498 71.0885L61.9693 76.391C60.396 77.2068 58.5314 77.0902 57.0746 76.0414C55.647 74.9925 54.9187 73.2444 55.2392 71.4964L57.162 60.2795C57.2495 59.726 57.0746 59.1433 56.6668 58.7645L48.5091 50.8108C47.2271 49.558 46.7901 47.7517 47.3437 46.0619C47.8972 44.372 49.3248 43.1484 51.102 42.9153L62.3771 41.2838C62.9307 41.1964 63.426 40.8468 63.6882 40.3515L68.7285 30.1252C69.5151 28.5228 71.1175 27.5322 72.8947 27.5322C74.6719 27.5322 76.2744 28.5228 77.061 30.1252L82.1013 40.3515C82.3635 40.8468 82.8296 41.2255 83.4123 41.2838L94.6874 42.9153C96.4355 43.1775 97.8922 44.372 98.4458 46.0619C98.9994 47.7517 98.5332 49.5871 97.2804 50.8108L89.1227 58.7645C88.7148 59.1724 88.54 59.726 88.6274 60.2795L90.5503 71.4964C90.8417 73.2444 90.1424 74.9925 88.7148 76.0414C87.7825 76.6241 86.8502 76.9154 85.8888 76.9154ZM72.8365 67.9711C73.5648 67.9711 74.3223 68.1459 74.9924 68.4955L85.073 73.798C85.6557 74.1185 86.3549 74.0602 86.8794 73.6523C87.4329 73.2444 87.666 72.6326 87.5786 71.9625L85.6557 60.7457C85.3935 59.2307 85.8888 57.7157 86.9959 56.6377L95.1536 48.684C95.6197 48.2178 95.7945 47.5477 95.5906 46.9068C95.3867 46.2658 94.8622 45.8288 94.1921 45.7414L82.917 44.1098C81.4021 43.8768 80.091 42.9445 79.4209 41.5751L74.3806 31.3489C74.0893 30.737 73.5066 30.3874 72.8365 30.3874C72.1664 30.3874 71.5837 30.737 71.2923 31.3489L66.252 41.5751C65.5819 42.9445 64.2709 43.9059 62.7559 44.1098L51.4808 45.7414C50.8107 45.8288 50.2863 46.2658 50.0823 46.9068C49.8784 47.5477 50.0241 48.2178 50.5194 48.684L58.677 56.6377C59.7842 57.7157 60.2795 59.2307 60.0172 60.7457L58.0944 71.9625C57.9778 72.6326 58.24 73.2444 58.7936 73.6523C59.3471 74.0602 60.0172 74.0894 60.5999 73.798L70.6805 68.4955C71.3506 68.1459 72.1081 67.9711 72.8365 67.9711Z" fill="#0D2D30"/>
</g>
<defs>
<clipPath id="clip0_464_3394">
<rect width="145.673" height="145.673" fill="white"/>
</clipPath>
</defs>
</svg>
