<svg width="146" height="146" viewBox="0 0 146 146" fill="none" xmlns="http://www.w3.org/2000/svg">
<g clip-path="url(#clip0_464_4225)">
<path d="M75.313 24.6188H66.8931V5.65216C66.8931 3.32139 68.7868 1.45677 71.0884 1.45677C73.4192 1.45677 75.2838 3.35052 75.2838 5.65216V24.6188H75.313Z" fill="#C9C9C9"/>
<path d="M75.3129 26.0755H66.893C66.0772 26.0755 65.4363 25.4345 65.4363 24.6188V5.65215C65.4363 2.53474 67.971 3.05176e-05 71.0884 3.05176e-05C74.2058 3.05176e-05 76.7405 2.53474 76.7405 5.65215V24.6188C76.7696 25.4345 76.1287 26.0755 75.3129 26.0755ZM68.3497 23.162H73.8562V5.65215C73.8562 4.13715 72.6325 2.91349 71.1175 2.91349C69.6025 2.91349 68.3789 4.13715 68.3789 5.65215V23.162H68.3497Z" fill="#0D2D30"/>
<path d="M144.216 90.5213H1.45679V144.216H144.216V90.5213Z" fill="#E7E7E7"/>
<path d="M144.216 126.444H1.45679V144.216H144.216V126.444Z" fill="#B4EEB2"/>
<path d="M144.216 127.901H1.45673C0.640962 127.901 0 127.26 0 126.444C0 125.629 0.640962 124.988 1.45673 124.988H144.216C145.032 124.988 145.673 125.629 145.673 126.444C145.673 127.26 145.032 127.901 144.216 127.901Z" fill="#0D2D30"/>
<path d="M55.2974 98.3876H13.3144C12.4986 98.3876 11.8577 97.7467 11.8577 96.9309C11.8577 96.1151 12.4986 95.4742 13.3144 95.4742H55.2974C56.1131 95.4742 56.7541 96.1151 56.7541 96.9309C56.7541 97.7467 56.1131 98.3876 55.2974 98.3876Z" fill="#C9C9C9"/>
<path d="M144.216 91.978H1.45673C0.640962 91.978 0 91.3371 0 90.5213C0 89.7055 0.640962 89.0646 1.45673 89.0646H144.216C145.032 89.0646 145.673 89.7055 145.673 90.5213C145.673 91.3371 145.032 91.978 144.216 91.978Z" fill="#0D2D30"/>
<path d="M144.216 145.673H1.45673C0.640962 145.673 0 145.032 0 144.216C0 143.401 0.640962 142.76 1.45673 142.76H144.216C145.032 142.76 145.673 143.401 145.673 144.216C145.673 145.032 145.032 145.673 144.216 145.673Z" fill="#0D2D30"/>
<path d="M144.216 145.673H1.45673C0.640962 145.673 0 145.032 0 144.216C0 143.401 0.640962 142.76 1.45673 142.76H144.216C145.032 142.76 145.673 143.401 145.673 144.216C145.673 145.032 145.032 145.673 144.216 145.673Z" fill="#0D2D30"/>
<path d="M5.15683 98.3876H1.45673C0.640962 98.3876 0 97.7467 0 96.9309C0 96.1151 0.640962 95.4742 1.45673 95.4742H5.15683C5.9726 95.4742 6.61356 96.1151 6.61356 96.9309C6.61356 97.7467 5.94346 98.3876 5.15683 98.3876Z" fill="#C9C9C9"/>
<path d="M133.349 98.3876H86.9086C86.0929 98.3876 85.4519 97.7467 85.4519 96.9309C85.4519 96.1151 86.0929 95.4742 86.9086 95.4742H133.32C134.136 95.4742 134.777 96.1151 134.777 96.9309C134.777 97.7467 134.136 98.3876 133.349 98.3876Z" fill="#C9C9C9"/>
<path d="M135.971 57.8905H66.9221V16.6068C66.9221 13.9555 69.0489 11.8287 71.7002 11.8287H135.971C138.71 11.8287 139.904 15.3249 137.719 16.9855L114.499 34.8451L137.719 52.7046C139.875 54.3944 138.71 57.8905 135.971 57.8905Z" fill="#FDA568"/>
<path d="M72.7202 20.2777C71.9044 20.2777 71.2634 19.6367 71.2634 18.821V17.6556C71.2634 16.8398 71.9044 16.1989 72.7202 16.1989C73.5359 16.1989 74.1769 16.8398 74.1769 17.6556V18.821C74.1769 19.6367 73.5359 20.2777 72.7202 20.2777Z" fill="#FFEDCC"/>
<path d="M72.7202 53.5203C71.9044 53.5203 71.2634 52.8793 71.2634 52.0636V24.7353C71.2634 23.9195 71.9044 23.2786 72.7202 23.2786C73.5359 23.2786 74.1769 23.9195 74.1769 24.7353V52.0636C74.1769 52.8502 73.5359 53.5203 72.7202 53.5203Z" fill="#FFEDCC"/>
<path d="M113.392 13.2854H112.372C111.556 13.2854 110.916 12.6444 110.916 11.8287C110.916 11.0129 111.556 10.3719 112.372 10.3719H113.392C114.208 10.3719 114.849 11.0129 114.849 11.8287C114.849 12.6444 114.208 13.2854 113.392 13.2854Z" fill="#0D2D30"/>
<path d="M135.971 59.3472H66.9223C66.1065 59.3472 65.4656 58.7063 65.4656 57.8905V16.6068C65.4656 13.1689 68.2625 10.3719 71.7004 10.3719H105.234C106.05 10.3719 106.691 11.0129 106.691 11.8287C106.691 12.6444 106.05 13.2854 105.234 13.2854H71.6712C69.8358 13.2854 68.3499 14.7713 68.3499 16.6068V56.4338H135.942C136.875 56.4338 137.224 55.7054 137.282 55.4723C137.341 55.2393 137.545 54.4526 136.816 53.8991L113.596 36.0395C113.246 35.7773 113.013 35.3403 113.013 34.8742C113.013 34.408 113.217 34.0001 113.596 33.7088L136.816 15.8493C137.574 15.2666 137.37 14.4799 137.282 14.276C137.195 14.0429 136.875 13.3145 135.942 13.3145H120.035C119.219 13.3145 118.578 12.6736 118.578 11.8578C118.578 11.042 119.219 10.4011 120.035 10.4011H135.942C137.836 10.4011 139.438 11.5665 140.05 13.3437C140.662 15.1209 140.079 17.0146 138.593 18.18L116.888 34.9033L138.593 51.6266C140.079 52.7628 140.662 54.6857 140.05 56.4629C139.467 58.1819 137.836 59.3472 135.971 59.3472Z" fill="#0D2D30"/>
<path d="M86.9086 113.334H55.2976C54.4818 113.334 53.8408 112.693 53.8408 111.877C53.8408 111.061 54.4818 110.42 55.2976 110.42H86.9086C87.7244 110.42 88.3653 111.061 88.3653 111.877C88.3653 112.693 87.7244 113.334 86.9086 113.334Z" fill="#0D2D30"/>
<path d="M49.0336 113.334H46.7028C45.8871 113.334 45.2461 112.693 45.2461 111.877C45.2461 111.061 45.8871 110.42 46.7028 110.42H49.0336C49.8494 110.42 50.4903 111.061 50.4903 111.877C50.4903 112.693 49.8494 113.334 49.0336 113.334Z" fill="#0D2D30"/>
<path d="M95.5033 113.334H93.1726C92.3568 113.334 91.7158 112.693 91.7158 111.877C91.7158 111.061 92.3568 110.42 93.1726 110.42H95.5033C96.3191 110.42 96.9601 111.061 96.9601 111.877C96.9601 112.693 96.3191 113.334 95.5033 113.334Z" fill="#0D2D30"/>
<path d="M75.313 57.8905H66.8931V103.02H75.313V57.8905Z" fill="#C9C9C9"/>
<path d="M75.3129 104.448H66.893C66.0772 104.448 65.4363 103.807 65.4363 102.991V57.8905C65.4363 57.0748 66.0772 56.4338 66.893 56.4338H75.3129C76.1287 56.4338 76.7696 57.0748 76.7696 57.8905V103.02C76.7696 103.807 76.1287 104.448 75.3129 104.448ZM68.3497 101.534H73.8562V59.3473H68.3497V101.534Z" fill="#0D2D30"/>
<path d="M61.3284 111.877C61.3284 106.487 65.6986 102.117 71.0885 102.117C76.4784 102.117 80.8486 106.487 80.8486 111.877H61.3284Z" fill="#C9C9C9"/>
<path d="M80.8776 113.334H61.3283C60.5125 113.334 59.8716 112.693 59.8716 111.877C59.8716 105.7 64.9119 100.66 71.0884 100.66C77.2649 100.66 82.3052 105.7 82.3052 111.877C82.3344 112.693 81.6934 113.334 80.8776 113.334ZM62.9307 110.42H79.3044C78.6051 106.516 75.1964 103.574 71.1175 103.574C67.0387 103.574 63.6008 106.516 62.9307 110.42Z" fill="#0D2D30"/>
<path d="M114.499 36.3017H102.874C102.059 36.3017 101.418 35.6608 101.418 34.845C101.418 34.0292 102.059 33.3883 102.874 33.3883H114.499C115.315 33.3883 115.956 34.0292 115.956 34.845C115.956 35.6608 115.286 36.3017 114.499 36.3017Z" fill="#0D2D30"/>
<path d="M95.5032 36.3017H94.6C93.7843 36.3017 93.1433 35.6608 93.1433 34.845C93.1433 34.0292 93.7843 33.3883 94.6 33.3883H95.5032C96.319 33.3883 96.9599 34.0292 96.9599 34.845C96.9599 35.6608 96.319 36.3017 95.5032 36.3017Z" fill="#0D2D30"/>
</g>
<defs>
<clipPath id="clip0_464_4225">
<rect width="145.673" height="145.673" fill="white"/>
</clipPath>
</defs>
</svg>
