<svg width="40" height="40" viewBox="0 0 40 40" fill="none" xmlns="http://www.w3.org/2000/svg">
<circle opacity="0.9" cx="20" cy="20" r="20" fill="#FDA568"/>
<path d="M26.2579 11.508C26.395 11.5647 26.5121 11.6609 26.5946 11.7842C26.677 11.9076 26.721 12.0526 26.7209 12.201V16.444C26.7209 16.6429 26.6419 16.8336 26.5013 16.9743C26.3606 17.1149 26.1698 17.194 25.9709 17.194H21.7279C21.5797 17.1938 21.4348 17.1498 21.3116 17.0674C21.1884 16.9849 21.0924 16.8679 21.0356 16.7309C20.9789 16.5939 20.9641 16.4432 20.993 16.2978C21.0219 16.1524 21.0932 16.0189 21.1979 15.914L22.7999 14.31C21.3284 13.6937 19.6947 13.5801 18.152 13.9867C16.6093 14.3932 15.2438 15.2973 14.2671 16.5587C13.2904 17.8201 12.757 19.3685 12.7496 20.9639C12.7423 22.5592 13.2613 24.1124 14.2264 25.3828C15.1914 26.6532 16.5485 27.5698 18.0874 27.9906C19.6263 28.4114 21.261 28.3128 22.7382 27.7102C24.2153 27.1075 25.4525 26.0345 26.2579 24.6574C27.0633 23.2802 27.3919 21.6759 27.1929 20.093C27.1723 19.8977 27.2291 19.7022 27.3511 19.5483C27.473 19.3945 27.6505 19.2946 27.8453 19.2701C28.0401 19.2456 28.2367 19.2985 28.393 19.4174C28.5492 19.5363 28.6526 19.7117 28.6809 19.906C28.9243 21.8421 28.5136 23.8041 27.5139 25.48C26.5142 27.1559 24.9829 28.4495 23.1636 29.1552C21.3443 29.8609 19.3412 29.9382 17.4729 29.3748C15.6046 28.8113 13.9783 27.6396 12.8524 26.0457C11.7266 24.4518 11.1658 22.5273 11.2593 20.5781C11.3528 18.629 12.0952 16.767 13.3685 15.2882C14.6417 13.8094 16.3728 12.7987 18.2864 12.4167C20.2001 12.0347 22.1865 12.3034 23.9299 13.18L25.4399 11.67C25.5449 11.5652 25.6785 11.494 25.8239 11.4651C25.9693 11.4363 26.121 11.4512 26.2579 11.508Z" fill="white"/>
</svg>
